<svg width="40" height="38" viewBox="0 0 40 38" fill="none" xmlns="http://www.w3.org/2000/svg">
<path d="M22.4857 38L20 36.5385L25.7143 26.3077H34.2857C35.0435 26.3077 35.7702 25.9997 36.306 25.4515C36.8418 24.9034 37.1429 24.1599 37.1429 23.3846V5.84615C37.1429 5.07091 36.8418 4.32741 36.306 3.77923C35.7702 3.23104 35.0435 2.92308 34.2857 2.92308H5.71429C4.95652 2.92308 4.2298 3.23104 3.69398 3.77923C3.15816 4.32741 2.85714 5.07091 2.85714 5.84615V23.3846C2.85714 24.1599 3.15816 24.9034 3.69398 25.4515C4.2298 25.9997 4.95652 26.3077 5.71429 26.3077H18.5714V29.2308H5.71429C4.19876 29.2308 2.74531 28.6148 1.67368 27.5185C0.602039 26.4221 0 24.9351 0 23.3846V5.84615C0 4.29566 0.602039 2.80867 1.67368 1.7123C2.74531 0.615932 4.19876 0 5.71429 0H34.2857C35.8012 0 37.2547 0.615932 38.3263 1.7123C39.398 2.80867 40 4.29566 40 5.84615V23.3846C40 24.9351 39.398 26.4221 38.3263 27.5185C37.2547 28.6148 35.8012 29.2308 34.2857 29.2308H27.3714L22.4857 38Z" fill="black"/>
<path d="M22.4857 38L20 36.5385L25.7143 26.3077H34.2857C35.0435 26.3077 35.7702 25.9997 36.306 25.4515C36.8418 24.9034 37.1429 24.1599 37.1429 23.3846V5.84615C37.1429 5.07091 36.8418 4.32741 36.306 3.77923C35.7702 3.23104 35.0435 2.92308 34.2857 2.92308H5.71429C4.95652 2.92308 4.2298 3.23104 3.69398 3.77923C3.15816 4.32741 2.85714 5.07091 2.85714 5.84615V23.3846C2.85714 24.1599 3.15816 24.9034 3.69398 25.4515C4.2298 25.9997 4.95652 26.3077 5.71429 26.3077H18.5714V29.2308H5.71429C4.19876 29.2308 2.74531 28.6148 1.67368 27.5185C0.602039 26.4221 0 24.9351 0 23.3846V5.84615C0 4.29566 0.602039 2.80867 1.67368 1.7123C2.74531 0.615932 4.19876 0 5.71429 0H34.2857C35.8012 0 37.2547 0.615932 38.3263 1.7123C39.398 2.80867 40 4.29566 40 5.84615V23.3846C40 24.9351 39.398 26.4221 38.3263 27.5185C37.2547 28.6148 35.8012 29.2308 34.2857 29.2308H27.3714L22.4857 38Z" fill="#00AEEF"/>
<path d="M8 9H32V12H8V9Z" fill="black"/>
<path d="M8 9H32V12H8V9Z" fill="#00AEEF"/>
<path d="M8 18H23V20H8V18Z" fill="black"/>
<path d="M8 18H23V20H8V18Z" fill="#00AEEF"/>
</svg>
