<svg width="35" height="38" viewBox="0 0 35 38" fill="none" xmlns="http://www.w3.org/2000/svg">
<path d="M34.6956 0H11.5652V31.3913H34.6956V0ZM33.0435 29.7391H13.2174V1.65217H33.0435V29.7391Z" fill="#FF9703"/>
<path d="M23.1304 33.0434H21.4783V36.3478H1.65217V8.26082H9.91305V6.60864H0V38H23.1304V33.0434Z" fill="#FF9703"/>
<path d="M30.5651 15.6955C30.5651 13.5369 28.8948 11.7799 26.7825 11.6006C27.5896 10.7183 28.0869 9.54777 28.0869 8.26072C28.0869 5.5272 25.8639 3.3042 23.1303 3.3042C20.3968 3.3042 18.1738 5.5272 18.1738 8.26072C18.1738 9.54777 18.6711 10.7183 19.4782 11.6006C17.3659 11.7799 15.6956 13.5369 15.6956 15.6955V21.4781H30.5651V15.6955ZM23.1303 4.95637C24.9527 4.95637 26.4347 6.43837 26.4347 8.26072C26.4347 10.0831 24.9527 11.5651 23.1303 11.5651C21.308 11.5651 19.826 10.0831 19.826 8.26072C19.826 6.43837 21.308 4.95637 23.1303 4.95637ZM28.913 19.8259H17.3477V15.6955C17.3477 14.3292 18.4596 13.2172 19.826 13.2172H26.4347C27.801 13.2172 28.913 14.3292 28.913 15.6955V19.8259Z" fill="#FF9703"/>
<path d="M17.3477 23.1304H15.6956V24.7825H17.3477V23.1304Z" fill="#FF9703"/>
<path d="M30.5652 23.1304H19V24.7825H30.5652V23.1304Z" fill="#FF9703"/>
<path d="M30.5653 26.4348H28.9131V28.087H30.5653V26.4348Z" fill="#FF9703"/>
<path d="M27.2608 26.4348H15.6956V28.087H27.2608V26.4348Z" fill="#FF9703"/>
<path d="M9.9129 11.5653V9.91309H3.3042V16.5218H9.9129V14.8696H4.95637V11.5653H9.9129Z" fill="#FF9703"/>
<path d="M9.9129 18.1738H3.3042V19.826H9.9129V18.1738Z" fill="#FF9703"/>
<path d="M9.9129 21.4783H3.3042V23.1304H9.9129V21.4783Z" fill="#FF9703"/>
<path d="M4.95637 28.0869H3.3042V29.7391H4.95637V28.0869Z" fill="#FF9703"/>
<path d="M9.91299 28.0869H6.60864V29.7391H9.91299V28.0869Z" fill="#FF9703"/>
<path d="M9.9129 31.3911H3.3042V33.0433H9.9129V31.3911Z" fill="#FF9703"/>
</svg>
