<svg width="38" height="38" viewBox="0 0 38 38" fill="none" xmlns="http://www.w3.org/2000/svg">
<path d="M19.0001 17.33C18.8959 17.33 18.794 17.3401 18.6951 17.3584L13.6003 8.53405C13.4467 8.26775 13.1061 8.17661 12.8399 8.33025C12.5737 8.48395 12.4825 8.8244 12.6362 9.09062L17.7315 17.9158C17.4816 18.2078 17.3302 18.5864 17.3302 18.9999C17.3302 19.7255 17.7956 20.3443 18.4434 20.574V32.9902C18.4434 33.2977 18.6926 33.5468 19.0001 33.5468C19.3076 33.5468 19.5567 33.2977 19.5567 32.9902V20.5741C20.2046 20.3443 20.67 19.7256 20.67 18.9999C20.67 18.0792 19.9208 17.33 19.0001 17.33ZM19.0001 19.5566C18.6931 19.5566 18.4434 19.3069 18.4434 18.9999C18.4434 18.693 18.6931 18.4433 19.0001 18.4433C19.307 18.4433 19.5567 18.693 19.5567 18.9999C19.5567 19.3069 19.307 19.5566 19.0001 19.5566Z" fill="#FF9703"/>
<path d="M32.4351 5.56492C28.8465 1.97637 24.0751 0 19 0C13.9249 0 9.15355 1.97637 5.56492 5.56492C1.9763 9.15347 0 13.9249 0 19C0 24.0751 1.97637 28.8465 5.56492 32.4351C9.15347 36.0237 13.9249 38 19 38C24.0751 38 28.8465 36.0236 32.4351 32.4351C36.0237 28.8465 38 24.0751 38 19C38 13.9249 36.0236 9.15355 32.4351 5.56492ZM19 36.8867C9.13722 36.8867 1.11328 28.8628 1.11328 19C1.11328 9.13722 9.13722 1.11328 19 1.11328C28.8628 1.11328 36.8867 9.13722 36.8867 19C36.8867 28.8628 28.8628 36.8867 19 36.8867Z" fill="#FF9703"/>
<path d="M19 5.56641C19.3074 5.56641 19.5566 5.31719 19.5566 5.00977C19.5566 4.70234 19.3074 4.45312 19 4.45312C18.6926 4.45312 18.4434 4.70234 18.4434 5.00977C18.4434 5.31719 18.6926 5.56641 19 5.56641Z" fill="#FF9703"/>
<path d="M12.0049 7.44043C12.3123 7.44043 12.5615 7.19121 12.5615 6.88379C12.5615 6.57636 12.3123 6.32715 12.0049 6.32715C11.6975 6.32715 11.4482 6.57636 11.4482 6.88379C11.4482 7.19121 11.6975 7.44043 12.0049 7.44043Z" fill="#FF9703"/>
<path d="M6.88379 12.5615C7.19121 12.5615 7.44043 12.3123 7.44043 12.0049C7.44043 11.6975 7.19121 11.4482 6.88379 11.4482C6.57636 11.4482 6.32715 11.6975 6.32715 12.0049C6.32715 12.3123 6.57636 12.5615 6.88379 12.5615Z" fill="#FF9703"/>
<path d="M5.00977 19.5566C5.31719 19.5566 5.56641 19.3074 5.56641 19C5.56641 18.6926 5.31719 18.4434 5.00977 18.4434C4.70234 18.4434 4.45312 18.6926 4.45312 19C4.45312 19.3074 4.70234 19.5566 5.00977 19.5566Z" fill="#FF9703"/>
<path d="M6.88379 26.5518C7.19121 26.5518 7.44043 26.3025 7.44043 25.9951C7.44043 25.6877 7.19121 25.4385 6.88379 25.4385C6.57636 25.4385 6.32715 25.6877 6.32715 25.9951C6.32715 26.3025 6.57636 26.5518 6.88379 26.5518Z" fill="#FF9703"/>
<path d="M12.0049 31.6729C12.3123 31.6729 12.5615 31.4236 12.5615 31.1162C12.5615 30.8088 12.3123 30.5596 12.0049 30.5596C11.6975 30.5596 11.4482 30.8088 11.4482 31.1162C11.4482 31.4236 11.6975 31.6729 12.0049 31.6729Z" fill="#FF9703"/>
<path d="M25.9951 31.6729C26.3025 31.6729 26.5518 31.4236 26.5518 31.1162C26.5518 30.8088 26.3025 30.5596 25.9951 30.5596C25.6877 30.5596 25.4385 30.8088 25.4385 31.1162C25.4385 31.4236 25.6877 31.6729 25.9951 31.6729Z" fill="#FF9703"/>
<path d="M31.1162 26.5518C31.4236 26.5518 31.6729 26.3025 31.6729 25.9951C31.6729 25.6877 31.4236 25.4385 31.1162 25.4385C30.8088 25.4385 30.5596 25.6877 30.5596 25.9951C30.5596 26.3025 30.8088 26.5518 31.1162 26.5518Z" fill="#FF9703"/>
<path d="M32.9902 19.5566C33.2977 19.5566 33.5469 19.3074 33.5469 19C33.5469 18.6926 33.2977 18.4434 32.9902 18.4434C32.6828 18.4434 32.4336 18.6926 32.4336 19C32.4336 19.3074 32.6828 19.5566 32.9902 19.5566Z" fill="#FF9703"/>
<path d="M31.1162 12.5615C31.4236 12.5615 31.6729 12.3123 31.6729 12.0049C31.6729 11.6975 31.4236 11.4482 31.1162 11.4482C30.8088 11.4482 30.5596 11.6975 30.5596 12.0049C30.5596 12.3123 30.8088 12.5615 31.1162 12.5615Z" fill="#FF9703"/>
<path d="M25.9951 7.44043C26.3025 7.44043 26.5518 7.19121 26.5518 6.88379C26.5518 6.57636 26.3025 6.32715 25.9951 6.32715C25.6877 6.32715 25.4385 6.57636 25.4385 6.88379C25.4385 7.19121 25.6877 7.44043 25.9951 7.44043Z" fill="#FF9703"/>
<path d="M30.8606 7.1394C27.6925 3.9713 23.4803 2.22656 19 2.22656C14.9468 2.22656 11.0337 3.69223 7.98163 6.35342C7.74992 6.55552 7.72587 6.90709 7.92782 7.1388C8.12992 7.37059 8.48157 7.39456 8.71321 7.19254C11.5626 4.70814 15.2158 3.33984 19 3.33984C27.6351 3.33984 34.6602 10.3649 34.6602 19C34.6602 27.6351 27.6351 34.6602 19 34.6602C10.3649 34.6602 3.33984 27.6351 3.33984 19C3.33984 15.2158 4.70814 11.5626 7.19254 8.71321C7.39464 8.4815 7.37051 8.12992 7.1388 7.92782C6.90724 7.7258 6.55559 7.74977 6.35342 7.98163C3.69223 11.0337 2.22656 14.9468 2.22656 19C2.22656 23.4803 3.9713 27.6925 7.1394 30.8606C10.3075 34.0287 14.5197 35.7734 19 35.7734C23.4803 35.7734 27.6925 34.0287 30.8606 30.8606C34.0287 27.6925 35.7734 23.4803 35.7734 19C35.7734 14.5197 34.0287 10.3075 30.8606 7.1394Z" fill="#FF9703"/>
</svg>
