<svg width="35" height="38" viewBox="0 0 35 38" fill="none" xmlns="http://www.w3.org/2000/svg">
<path fill-rule="evenodd" clip-rule="evenodd" d="M9.57422 0.0371094C9.57422 0.0575195 9.49072 0.0742188 9.38867 0.0742188C9.28662 0.0742188 9.20312 0.090918 9.20312 0.111328C9.20312 0.131738 9.16973 0.148438 9.12891 0.148438C9.08809 0.148438 9.05469 0.165137 9.05469 0.185547C9.05469 0.205957 9.00459 0.222656 8.94336 0.222656C8.88213 0.222656 8.83203 0.239355 8.83203 0.259766C8.83203 0.280176 8.80231 0.296875 8.76601 0.296875C8.72968 0.296875 8.67591 0.330273 8.64648 0.371094C8.61706 0.411914 8.5716 0.445312 8.54547 0.445312C8.47805 0.445312 0.371094 8.56039 0.371094 8.62789C0.371094 8.65851 0.354395 8.68359 0.333984 8.68359C0.313574 8.68359 0.296875 8.71699 0.296875 8.75781C0.296875 8.79863 0.280176 8.83203 0.259766 8.83203C0.239355 8.83203 0.222656 8.86543 0.222656 8.90625C0.222656 8.94707 0.205957 8.98047 0.185547 8.98047C0.165137 8.98047 0.148438 9.01387 0.148438 9.05469C0.148438 9.09551 0.131738 9.12891 0.111328 9.12891C0.090918 9.12891 0.0742188 9.1957 0.0742188 9.27734C0.0742188 9.35898 0.0575195 9.42578 0.0371094 9.42578C0.0124316 9.42578 0 13.8913 0 22.748C0 31.6048 0.0124316 36.0703 0.0371094 36.0703C0.0575195 36.0703 0.0742188 36.1204 0.0742188 36.1816C0.0742188 36.2429 0.090918 36.293 0.111328 36.293C0.131738 36.293 0.148438 36.3431 0.148438 36.4043C0.148438 36.4655 0.165137 36.5156 0.185547 36.5156C0.205957 36.5156 0.222656 36.549 0.222656 36.5898C0.222656 36.6307 0.239355 36.6641 0.259766 36.6641C0.280176 36.6641 0.296875 36.6938 0.296875 36.7301C0.296875 36.7664 0.330273 36.8202 0.371094 36.8496C0.411914 36.879 0.445312 36.9248 0.445312 36.9513C0.445312 37.014 0.911777 37.4805 0.974529 37.4805C1.00099 37.4805 1.04674 37.5139 1.07617 37.5547C1.1056 37.5955 1.15937 37.6289 1.1957 37.6289C1.23199 37.6289 1.26172 37.6456 1.26172 37.666C1.26172 37.6864 1.29512 37.7031 1.33594 37.7031C1.37676 37.7031 1.41016 37.7198 1.41016 37.7402C1.41016 37.7606 1.44355 37.7773 1.48438 37.7773C1.5252 37.7773 1.55859 37.794 1.55859 37.8145C1.55859 37.8349 1.60869 37.8516 1.66992 37.8516C1.73115 37.8516 1.78125 37.8683 1.78125 37.8887C1.78125 37.9091 1.84805 37.9258 1.92969 37.9258C2.01133 37.9258 2.07812 37.9425 2.07812 37.9629C2.07812 37.9876 6.32095 38 14.7324 38C23.1439 38 27.3867 37.9876 27.3867 37.9629C27.3867 37.9425 27.4535 37.9258 27.5352 37.9258C27.6168 37.9258 27.6836 37.9091 27.6836 37.8887C27.6836 37.8683 27.7337 37.8516 27.7949 37.8516C27.8562 37.8516 27.9062 37.8349 27.9062 37.8145C27.9062 37.794 27.9396 37.7773 27.9805 37.7773C28.0213 37.7773 28.0547 37.7606 28.0547 37.7402C28.0547 37.7198 28.0881 37.7031 28.1289 37.7031C28.1697 37.7031 28.2031 37.6864 28.2031 37.666C28.2031 37.6456 28.2329 37.6289 28.2691 37.6289C28.3055 37.6289 28.3592 37.5955 28.3887 37.5547C28.4181 37.5139 28.4639 37.4805 28.4903 37.4805C28.5531 37.4805 29.0195 37.014 29.0195 36.9513C29.0195 36.9248 29.0529 36.879 29.0938 36.8496C29.1346 36.8202 29.168 36.7664 29.168 36.7301C29.168 36.6938 29.1847 36.6641 29.2051 36.6641C29.2255 36.6641 29.2422 36.6307 29.2422 36.5898C29.2422 36.549 29.2589 36.5156 29.2793 36.5156C29.2997 36.5156 29.3164 36.4655 29.3164 36.4043C29.3164 36.3431 29.3331 36.293 29.3535 36.293C29.3739 36.293 29.3906 36.2429 29.3906 36.1816C29.3906 36.1204 29.4073 36.0703 29.4277 36.0703C29.4521 36.0703 29.4648 35.2054 29.4648 33.55C29.4648 31.57 29.4748 31.025 29.5112 31.008C29.5483 30.9907 29.5483 30.982 29.5112 30.9647C29.4434 30.933 29.4431 22.2791 29.5109 22.2565C29.544 22.2454 29.5388 22.2229 29.4923 22.1765C29.4349 22.1191 29.4215 22.1181 29.3721 22.1675C29.3415 22.1982 29.3164 22.2494 29.3164 22.2815C29.3164 22.3136 29.2901 22.3398 29.2578 22.3398C29.2256 22.3398 29.1351 22.4066 29.0566 22.4883C28.9782 22.5699 28.8877 22.6367 28.8554 22.6367C28.8232 22.6367 28.7969 22.6534 28.7969 22.6738C28.7969 22.6942 28.7635 22.7109 28.7227 22.7109C28.6818 22.7109 28.6484 22.7276 28.6484 22.748C28.6484 22.7685 28.615 22.7852 28.5742 22.7852C28.5334 22.7852 28.5 22.8019 28.5 22.8223C28.5 22.8427 28.4499 22.8594 28.3887 22.8594C28.3274 22.8594 28.2773 22.8761 28.2773 22.8965C28.2773 22.9169 28.2183 22.9336 28.1462 22.9336C28.0461 22.9336 27.9847 22.964 27.8865 23.0623C27.8157 23.133 27.7578 23.2128 27.7578 23.2396C27.7578 23.2664 27.7244 23.3124 27.6836 23.3418C27.6428 23.3712 27.6094 23.4183 27.6094 23.4464C27.6094 23.4745 27.5593 23.5444 27.498 23.6016C27.4368 23.6587 27.3867 23.7286 27.3867 23.7567C27.3867 23.7848 27.3533 23.8319 27.3125 23.8613C27.2717 23.8908 27.2383 23.9409 27.2383 23.9727C27.2383 24.0045 27.2049 24.0546 27.1641 24.084C27.1232 24.1134 27.0898 24.1605 27.0898 24.1886C27.0898 24.2167 27.0397 24.2866 26.9785 24.3438L26.8672 24.4477V29.8879V35.3281H14.7324H2.59766V23.2093C2.59766 12.7557 2.60493 11.0831 2.65069 11.0374C2.69421 10.9938 2.89947 10.9844 3.80108 10.9844C4.5079 10.9844 4.89844 10.9976 4.89844 11.0215C4.89844 11.0421 4.99741 11.0586 5.12109 11.0586C5.24478 11.0586 5.34375 11.0421 5.34375 11.0215C5.34375 10.9978 5.65298 10.9844 6.19727 10.9844C6.74155 10.9844 7.05078 10.9978 7.05078 11.0215C7.05078 11.0437 7.19922 11.0586 7.42188 11.0586C7.64453 11.0586 7.79297 11.0437 7.79297 11.0215C7.79297 11.0011 7.82637 10.9844 7.86719 10.9844C7.90801 10.9844 7.94141 11.0011 7.94141 11.0215C7.94141 11.0421 8.04038 11.0586 8.16406 11.0586C8.28775 11.0586 8.38672 11.0421 8.38672 11.0215C8.38672 10.9985 8.58462 10.9844 8.90625 10.9844C9.22788 10.9844 9.42578 10.9702 9.42578 10.9473C9.42578 10.9269 9.47588 10.9102 9.53711 10.9102C9.59834 10.9102 9.64844 10.8935 9.64844 10.873C9.64844 10.8526 9.69486 10.8359 9.75156 10.8359C9.81213 10.8359 9.87677 10.8053 9.9082 10.7617C9.93763 10.7209 9.98773 10.6875 10.0195 10.6875C10.0513 10.6875 10.1014 10.6541 10.1309 10.6133C10.1603 10.5725 10.2069 10.5391 10.2345 10.5391C10.2957 10.5391 10.3906 10.4487 10.3906 10.3904C10.3906 10.3669 10.4574 10.2835 10.5391 10.2051C10.6207 10.1266 10.6875 10.0361 10.6875 10.0039C10.6875 9.97166 10.7042 9.94531 10.7246 9.94531C10.745 9.94531 10.7617 9.91191 10.7617 9.87109C10.7617 9.83027 10.7784 9.79688 10.7988 9.79688C10.8192 9.79688 10.8359 9.74678 10.8359 9.68555C10.8359 9.62432 10.8526 9.57422 10.873 9.57422C10.8935 9.57422 10.9102 9.50742 10.9102 9.42578C10.9102 9.34414 10.9269 9.27734 10.9473 9.27734C10.9717 9.27734 10.9844 8.1517 10.9844 5.97461V2.67188H18.9258H26.8672V4.97266C26.8672 6.48178 26.88 7.27344 26.9043 7.27344C26.9247 7.27344 26.9414 7.24676 26.9414 7.2141C26.9414 7.18148 26.9915 7.10797 27.0527 7.05078C27.114 6.9936 27.1641 6.9268 27.1641 6.90234C27.1641 6.87789 27.2142 6.81109 27.2754 6.75391C27.3366 6.69672 27.3867 6.63026 27.3867 6.60621C27.3867 6.5822 27.4535 6.49837 27.5352 6.41992C27.6168 6.34147 27.6836 6.25902 27.6836 6.23668C27.6836 6.17923 28.229 5.64062 28.2871 5.64062C28.3136 5.64062 28.3592 5.60723 28.3887 5.56641C28.4181 5.52559 28.4719 5.49219 28.5082 5.49219C28.5445 5.49219 28.5742 5.47549 28.5742 5.45508C28.5742 5.43467 28.6076 5.41797 28.6484 5.41797C28.6893 5.41797 28.7227 5.40127 28.7227 5.38086C28.7227 5.36045 28.7728 5.34375 28.834 5.34375C28.8952 5.34375 28.9453 5.32705 28.9453 5.30664C28.9453 5.28623 29.0288 5.26953 29.1309 5.26953C29.2329 5.26953 29.3164 5.25283 29.3164 5.23242C29.3164 5.21201 29.3498 5.19531 29.3906 5.19531C29.4637 5.19531 29.4648 5.17056 29.4648 3.5625C29.4648 2.49869 29.4519 1.92969 29.4277 1.92969C29.4073 1.92969 29.3906 1.87959 29.3906 1.81836C29.3906 1.75713 29.3739 1.70703 29.3535 1.70703C29.3331 1.70703 29.3164 1.65693 29.3164 1.5957C29.3164 1.53447 29.2997 1.48438 29.2793 1.48438C29.2589 1.48438 29.2422 1.45098 29.2422 1.41016C29.2422 1.36934 29.2255 1.33594 29.2051 1.33594C29.1847 1.33594 29.168 1.30621 29.168 1.26992C29.168 1.23359 29.1346 1.17982 29.0938 1.15039C29.0529 1.12096 29.0195 1.07521 29.0195 1.04875C29.0195 0.985996 28.5531 0.519531 28.4903 0.519531C28.4639 0.519531 28.4181 0.486133 28.3887 0.445312C28.3592 0.404492 28.3055 0.371094 28.2691 0.371094C28.2329 0.371094 28.2031 0.354395 28.2031 0.333984C28.2031 0.313574 28.1697 0.296875 28.1289 0.296875C28.0881 0.296875 28.0547 0.280176 28.0547 0.259766C28.0547 0.239355 28.0213 0.222656 27.9805 0.222656C27.9396 0.222656 27.9062 0.205957 27.9062 0.185547C27.9062 0.165137 27.8562 0.148438 27.7949 0.148438C27.7337 0.148438 27.6836 0.131738 27.6836 0.111328C27.6836 0.090918 27.6168 0.0742188 27.5352 0.0742188C27.4535 0.0742188 27.3867 0.0575195 27.3867 0.0371094C27.3867 0.0124688 24.3932 0 18.4805 0C12.5677 0 9.57422 0.0124688 9.57422 0.0371094ZM9.20312 6.32978C9.20312 9.26113 9.20643 9.20312 9.03877 9.20312C9.0067 9.20312 8.98047 9.21982 8.98047 9.24023C8.98047 9.26465 8.04038 9.27734 6.23438 9.27734C4.72402 9.27734 3.48828 9.26896 3.48828 9.25871C3.48828 9.23036 9.14342 3.56911 9.17529 3.56558C9.19062 3.56387 9.20312 4.80778 9.20312 6.32978ZM29.5391 7.01367C29.5391 7.03408 29.4969 7.05078 29.4453 7.05078C29.3494 7.05078 29.0195 7.34035 29.0195 7.42455C29.0195 7.44752 28.9694 7.51313 28.9082 7.57031C28.847 7.6275 28.7969 7.69429 28.7969 7.71875C28.7969 7.74321 28.7468 7.81 28.6855 7.86719C28.6243 7.92437 28.5742 7.99084 28.5742 8.01488C28.5742 8.03889 28.5074 8.12272 28.4258 8.20117C28.3441 8.27962 28.2773 8.36345 28.2773 8.38746C28.2773 8.41151 28.2272 8.47797 28.166 8.53516C28.1048 8.59234 28.0547 8.65914 28.0547 8.68359C28.0547 8.70805 28.0046 8.77485 27.9434 8.83203C27.8821 8.88922 27.832 8.95601 27.832 8.98047C27.832 9.00492 27.7819 9.07172 27.7207 9.12891C27.6595 9.18609 27.6094 9.25289 27.6094 9.27734C27.6094 9.3018 27.5593 9.3686 27.498 9.42578C27.4368 9.48297 27.3867 9.54943 27.3867 9.57348C27.3867 9.59749 27.3199 9.68132 27.2383 9.75977C27.1566 9.83821 27.0898 9.92204 27.0898 9.94605C27.0898 9.9701 27.0397 10.0366 26.9785 10.0938C26.9173 10.1509 26.8672 10.2177 26.8672 10.2422C26.8672 10.2666 26.8171 10.3334 26.7559 10.3906C26.6946 10.4478 26.6445 10.5146 26.6445 10.5391C26.6445 10.5635 26.5944 10.6303 26.5332 10.6875C26.472 10.7447 26.4219 10.8111 26.4219 10.8352C26.4219 10.8592 26.3551 10.943 26.2734 11.0215C26.1918 11.0999 26.125 11.1838 26.125 11.2078C26.125 11.2318 26.0749 11.2983 26.0137 11.3555C25.9524 11.4127 25.9023 11.4795 25.9023 11.5039C25.9023 11.5284 25.8522 11.5952 25.791 11.6523C25.7298 11.7095 25.6797 11.7763 25.6797 11.8008C25.6797 11.8252 25.6296 11.892 25.5684 11.9492C25.5071 12.0064 25.457 12.0732 25.457 12.0977C25.457 12.1221 25.4069 12.1889 25.3457 12.2461C25.2845 12.3033 25.2344 12.3701 25.2344 12.3945C25.2344 12.419 25.1843 12.4858 25.123 12.543C25.0618 12.6002 25.0117 12.6666 25.0117 12.6907C25.0117 12.7147 24.9449 12.7985 24.8633 12.877C24.7816 12.9554 24.7148 13.0392 24.7148 13.0632C24.7148 13.0873 24.6647 13.1538 24.6035 13.2109C24.5423 13.2681 24.4922 13.3349 24.4922 13.3594C24.4922 13.3838 24.4421 13.4506 24.3809 13.5078C24.3196 13.565 24.2695 13.6318 24.2695 13.6562C24.2695 13.6807 24.2194 13.7475 24.1582 13.8047C24.097 13.8619 24.0469 13.9283 24.0469 13.9524C24.0469 13.9764 23.9801 14.0602 23.8984 14.1387C23.8168 14.2171 23.75 14.301 23.75 14.325C23.75 14.349 23.6999 14.4155 23.6387 14.4727C23.5774 14.5298 23.5273 14.5963 23.5273 14.6204C23.5273 14.6444 23.4605 14.7282 23.3789 14.8066C23.2973 14.8851 23.2305 14.9689 23.2305 14.9929C23.2305 15.017 23.1804 15.0834 23.1191 15.1406C23.0579 15.1978 23.0078 15.2646 23.0078 15.2891C23.0078 15.3135 22.9577 15.3803 22.8965 15.4375C22.8353 15.4947 22.7852 15.5645 22.7852 15.5926C22.7852 15.6207 22.7518 15.6678 22.7109 15.6973C22.6701 15.7267 22.6367 15.7805 22.6367 15.8168C22.6367 15.8531 22.62 15.8828 22.5996 15.8828C22.579 15.8828 22.5625 15.9818 22.5625 16.1055C22.5625 16.2292 22.579 16.3281 22.5996 16.3281C22.62 16.3281 22.6367 16.3544 22.6367 16.3864C22.6367 16.4614 22.7261 16.5508 22.8011 16.5508C22.8331 16.5508 22.8594 16.5675 22.8594 16.5879C22.8594 16.6083 22.8928 16.625 22.9336 16.625C22.9744 16.625 23.0078 16.6417 23.0078 16.6621C23.0078 16.6825 23.0579 16.6992 23.1191 16.6992C23.1804 16.6992 23.2305 16.6825 23.2305 16.6621C23.2305 16.6417 23.2727 16.625 23.3242 16.625C23.4197 16.625 23.75 16.3356 23.75 16.252C23.75 16.2294 23.8168 16.1468 23.8984 16.0684C23.9801 15.9899 24.0469 15.9061 24.0469 15.8821C24.0469 15.858 24.097 15.7916 24.1582 15.7344C24.2194 15.6772 24.2695 15.6104 24.2695 15.5859C24.2695 15.5615 24.3196 15.4947 24.3809 15.4375C24.4421 15.3803 24.4922 15.3135 24.4922 15.2891C24.4922 15.2646 24.5423 15.1978 24.6035 15.1406C24.6647 15.0834 24.7148 15.0166 24.7148 14.9922C24.7148 14.9677 24.7649 14.9009 24.8262 14.8438C24.8874 14.7866 24.9375 14.7201 24.9375 14.6961C24.9375 14.672 25.0043 14.5882 25.0859 14.5098C25.1676 14.4313 25.2344 14.3475 25.2344 14.3235C25.2344 14.2994 25.2845 14.233 25.3457 14.1758C25.4069 14.1186 25.457 14.0518 25.457 14.0273C25.457 14.0029 25.5071 13.9361 25.5684 13.8789C25.6296 13.8217 25.6797 13.7549 25.6797 13.7305C25.6797 13.706 25.7298 13.6392 25.791 13.582C25.8522 13.5248 25.9023 13.458 25.9023 13.4336C25.9023 13.4091 25.9524 13.3423 26.0137 13.2852C26.0749 13.228 26.125 13.1615 26.125 13.1375C26.125 13.1135 26.1918 13.0296 26.2734 12.9512C26.3551 12.8727 26.4219 12.7889 26.4219 12.7649C26.4219 12.7408 26.472 12.6744 26.5332 12.6172C26.5944 12.56 26.6445 12.4932 26.6445 12.4688C26.6445 12.4443 26.6946 12.3775 26.7559 12.3203C26.8171 12.2631 26.8672 12.1967 26.8672 12.1726C26.8672 12.1486 26.934 12.0648 27.0156 11.9863C27.0973 11.9079 27.1641 11.824 27.1641 11.8C27.1641 11.776 27.2142 11.7095 27.2754 11.6523C27.3366 11.5952 27.3867 11.5284 27.3867 11.5039C27.3867 11.4795 27.4368 11.4127 27.498 11.3555C27.5593 11.2983 27.6094 11.2315 27.6094 11.207C27.6094 11.1826 27.6595 11.1158 27.7207 11.0586C27.7819 11.0014 27.832 10.9346 27.832 10.9102C27.832 10.8857 27.8821 10.8189 27.9434 10.7617C28.0046 10.7045 28.0547 10.6381 28.0547 10.614C28.0547 10.59 28.1215 10.5062 28.2031 10.4277C28.2848 10.3493 28.3516 10.2588 28.3516 10.2265C28.3516 10.1943 28.3683 10.168 28.3887 10.168C28.4091 10.168 28.4258 10.1847 28.4258 10.2051C28.4258 10.2255 28.4555 10.2422 28.4918 10.2422C28.5281 10.2422 28.5819 10.2756 28.6113 10.3164C28.6408 10.3572 28.6874 10.3906 28.7149 10.3906C28.7425 10.3906 28.7889 10.4145 28.8181 10.4437C28.8789 10.5044 28.8891 10.6133 28.834 10.6133C28.8136 10.6133 28.7969 10.64 28.7969 10.6726C28.7969 10.7052 28.7468 10.7788 28.6855 10.8359C28.6243 10.8931 28.5742 10.9596 28.5742 10.9836C28.5742 11.0076 28.5074 11.0915 28.4258 11.1699C28.3441 11.2484 28.2773 11.3322 28.2773 11.3562C28.2773 11.3803 28.2272 11.4467 28.166 11.5039C28.1048 11.5611 28.0547 11.6279 28.0547 11.6523C28.0547 11.6768 28.0046 11.7436 27.9434 11.8008C27.8821 11.858 27.832 11.9248 27.832 11.9492C27.832 11.9737 27.7819 12.0405 27.7207 12.0977C27.6595 12.1548 27.6094 12.2216 27.6094 12.2461C27.6094 12.2705 27.5593 12.3373 27.498 12.3945C27.4368 12.4517 27.3867 12.5182 27.3867 12.5422C27.3867 12.5662 27.3199 12.6501 27.2383 12.7285C27.1566 12.807 27.0898 12.8938 27.0898 12.9215C27.0898 12.9492 27.0564 12.996 27.0156 13.0254C26.9748 13.0548 26.9414 13.1019 26.9414 13.13C26.9414 13.1581 26.8913 13.228 26.8301 13.2852C26.7688 13.3423 26.7188 13.4091 26.7188 13.4336C26.7188 13.458 26.6687 13.5248 26.6074 13.582C26.5462 13.6392 26.4961 13.706 26.4961 13.7305C26.4961 13.7549 26.446 13.8217 26.3848 13.8789C26.3235 13.9361 26.2734 14.0026 26.2734 14.0266C26.2734 14.0506 26.2066 14.1344 26.125 14.2129C26.0434 14.2913 25.9766 14.3752 25.9766 14.3992C25.9766 14.4232 25.9265 14.4897 25.8652 14.5469C25.804 14.6041 25.7539 14.6709 25.7539 14.6953C25.7539 14.7198 25.7038 14.7866 25.6426 14.8438C25.5813 14.9009 25.5312 14.9677 25.5312 14.9922C25.5312 15.0166 25.4812 15.0834 25.4199 15.1406C25.3587 15.1978 25.3086 15.2646 25.3086 15.2891C25.3086 15.3135 25.2585 15.3803 25.1973 15.4375C25.136 15.4947 25.0859 15.5615 25.0859 15.5859C25.0859 15.6104 25.0358 15.6772 24.9746 15.7344C24.9134 15.7916 24.8633 15.858 24.8633 15.8821C24.8633 15.9061 24.7965 15.9899 24.7148 16.0684C24.6332 16.1468 24.5664 16.2306 24.5664 16.2547C24.5664 16.2787 24.5163 16.3452 24.4551 16.4023C24.3938 16.4595 24.3438 16.5263 24.3438 16.5508C24.3438 16.5752 24.2937 16.642 24.2324 16.6992C24.1712 16.7564 24.1211 16.8232 24.1211 16.8477C24.1211 16.8721 24.071 16.9389 24.0098 16.9961C23.9485 17.0533 23.8984 17.1201 23.8984 17.1445C23.8984 17.169 23.8483 17.2358 23.7871 17.293C23.7259 17.3502 23.6758 17.417 23.6758 17.4414C23.6758 17.4659 23.6257 17.5327 23.5645 17.5898C23.496 17.6538 23.4531 17.731 23.4531 17.7903C23.4531 17.8433 23.4364 17.8867 23.416 17.8867C23.3956 17.8867 23.3789 17.9201 23.3789 17.9609C23.3789 18.0018 23.3956 18.0352 23.416 18.0352C23.4364 18.0352 23.4531 18.0782 23.4531 18.1308C23.4531 18.1939 23.5036 18.2751 23.6016 18.3691C23.7416 18.5037 23.7952 18.6289 23.7129 18.6289C23.6925 18.6289 23.6758 18.6586 23.6758 18.6949C23.6758 18.7313 23.6424 18.785 23.6016 18.8145C23.5607 18.8439 23.5273 18.891 23.5273 18.9191C23.5273 18.9472 23.4772 19.017 23.416 19.0742C23.3548 19.1314 23.3047 19.2012 23.3047 19.2293C23.3047 19.2575 23.2713 19.3046 23.2305 19.334C23.1896 19.3634 23.1562 19.4135 23.1562 19.4453C23.1562 19.4771 23.1229 19.5272 23.082 19.5566C23.0412 19.5861 23.0078 19.6332 23.0078 19.6613C23.0078 19.6894 22.9577 19.7592 22.8965 19.8164C22.8353 19.8736 22.7852 19.9434 22.7852 19.9715C22.7852 19.9997 22.7518 20.0467 22.7109 20.0762C22.6701 20.1056 22.6367 20.1557 22.6367 20.1875C22.6367 20.2193 22.6033 20.2694 22.5625 20.2988C22.5217 20.3283 22.4883 20.3753 22.4883 20.4035C22.4883 20.4316 22.4382 20.5014 22.377 20.5586C22.3157 20.6158 22.2656 20.6856 22.2656 20.7137C22.2656 20.7418 22.2322 20.7889 22.1914 20.8184C22.1506 20.8478 22.1172 20.8979 22.1172 20.9297C22.1172 20.9615 22.0838 21.0116 22.043 21.041C22.0021 21.0704 21.9688 21.1175 21.9688 21.1457C21.9688 21.1738 21.9187 21.2436 21.8574 21.3008C21.7962 21.358 21.7461 21.4278 21.7461 21.4559C21.7461 21.484 21.7127 21.5311 21.6719 21.5605C21.6311 21.59 21.5977 21.6401 21.5977 21.6719C21.5977 21.7037 21.5643 21.7538 21.5234 21.7832C21.4826 21.8126 21.4492 21.8597 21.4492 21.8879C21.4492 21.9159 21.3991 21.9858 21.3379 22.043C21.2767 22.1002 21.2266 22.17 21.2266 22.1981C21.2266 22.2262 21.1932 22.2733 21.1523 22.3027C21.1115 22.3322 21.0781 22.3823 21.0781 22.4141C21.0781 22.4459 21.0447 22.496 21.0039 22.5254C20.9631 22.5548 20.9297 22.6019 20.9297 22.63C20.9297 22.6581 20.8796 22.728 20.8184 22.7852C20.7571 22.8423 20.707 22.9122 20.707 22.9403C20.707 22.9684 20.6736 23.0155 20.6328 23.0449C20.592 23.0744 20.5586 23.1214 20.5586 23.1496C20.5586 23.1777 20.5085 23.2475 20.4473 23.3047C20.386 23.3619 20.3359 23.4317 20.3359 23.4598C20.3359 23.4879 20.3025 23.535 20.2617 23.5645C20.2209 23.5939 20.1875 23.644 20.1875 23.6758C20.1875 23.7076 20.1541 23.7577 20.1133 23.7871C20.0725 23.8165 20.0391 23.8666 20.0391 23.8984C20.0391 23.9302 20.0057 23.9803 19.9648 24.0098C19.924 24.0392 19.8906 24.0863 19.8906 24.1144C19.8906 24.1425 19.8405 24.2123 19.7793 24.2695C19.7181 24.3267 19.668 24.3966 19.668 24.4246C19.668 24.4528 19.6346 24.4999 19.5938 24.5293C19.5529 24.5587 19.5195 24.6088 19.5195 24.6406C19.5195 24.6724 19.4861 24.7225 19.4453 24.752C19.4045 24.7814 19.3711 24.8315 19.3711 24.8633C19.3711 24.8951 19.3377 24.9452 19.2969 24.9746C19.2561 25.004 19.2227 25.0541 19.2227 25.0859C19.2227 25.1177 19.1893 25.1678 19.1484 25.1973C19.1076 25.2267 19.0742 25.2768 19.0742 25.3086C19.0742 25.3404 19.0408 25.3905 19 25.4199C18.9592 25.4494 18.9258 25.5031 18.9258 25.5395C18.9258 25.5757 18.9091 25.6055 18.8887 25.6055C18.8683 25.6055 18.8516 25.6352 18.8516 25.6715C18.8516 25.7078 18.8182 25.7616 18.7773 25.791C18.7365 25.8204 18.7031 25.8742 18.7031 25.9105C18.7031 25.9468 18.6864 25.9766 18.666 25.9766C18.6456 25.9766 18.6289 26.0063 18.6289 26.0426C18.6289 26.0789 18.5955 26.1327 18.5547 26.1621C18.5139 26.1915 18.4805 26.2453 18.4805 26.2816C18.4805 26.3179 18.4638 26.3477 18.4434 26.3477C18.4229 26.3477 18.4062 26.3811 18.4062 26.4219C18.4062 26.4627 18.3896 26.4961 18.3691 26.4961C18.3487 26.4961 18.332 26.5295 18.332 26.5703C18.332 26.6111 18.3153 26.6445 18.2949 26.6445C18.2745 26.6445 18.2578 26.6779 18.2578 26.7188C18.2578 26.7596 18.2411 26.793 18.2207 26.793C18.2003 26.793 18.1836 26.8264 18.1836 26.8672C18.1836 26.908 18.1669 26.9414 18.1465 26.9414C18.1261 26.9414 18.1094 26.9748 18.1094 27.0156C18.1094 27.0564 18.0927 27.0898 18.0723 27.0898C18.0519 27.0898 18.0352 27.1232 18.0352 27.1641C18.0352 27.2049 18.0185 27.2383 17.998 27.2383C17.9776 27.2383 17.9609 27.2884 17.9609 27.3496C17.9609 27.4108 17.9442 27.4609 17.9238 27.4609C17.9034 27.4609 17.8867 27.4943 17.8867 27.5352C17.8867 27.576 17.87 27.6094 17.8496 27.6094C17.8292 27.6094 17.8125 27.6595 17.8125 27.7207C17.8125 27.7819 17.7958 27.832 17.7754 27.832C17.755 27.832 17.7383 27.8654 17.7383 27.9062C17.7383 27.9471 17.7216 27.9805 17.7012 27.9805C17.6808 27.9805 17.6641 28.0306 17.6641 28.0918C17.6641 28.153 17.6474 28.2031 17.627 28.2031C17.6065 28.2031 17.5898 28.2532 17.5898 28.3145C17.5898 28.3757 17.5731 28.4258 17.5527 28.4258C17.5323 28.4258 17.5156 28.4759 17.5156 28.5371C17.5156 28.5983 17.4989 28.6484 17.4785 28.6484C17.4581 28.6484 17.4414 28.7152 17.4414 28.7969C17.4414 28.8785 17.4247 28.9453 17.4043 28.9453C17.3839 28.9453 17.3672 28.9954 17.3672 29.0566C17.3672 29.1179 17.3505 29.168 17.3301 29.168C17.3097 29.168 17.293 29.2348 17.293 29.3164C17.293 29.398 17.2763 29.4648 17.2559 29.4648C17.2354 29.4648 17.2188 29.5316 17.2188 29.6133C17.2188 29.6949 17.2021 29.7617 17.1816 29.7617C17.1612 29.7617 17.1445 29.8579 17.1445 29.9762C17.1445 30.1481 17.1593 30.2013 17.2188 30.2441C17.326 30.3214 17.3109 30.4574 17.1816 30.5781C17.1204 30.6353 17.0703 30.7052 17.0703 30.7332C17.0703 30.7614 17.0369 30.8085 16.9961 30.8379C16.9553 30.8673 16.9219 30.9174 16.9219 30.9492C16.9219 30.981 16.8885 31.0311 16.8477 31.0605C16.8068 31.09 16.7734 31.1437 16.7734 31.1801C16.7734 31.2164 16.7567 31.2461 16.7363 31.2461C16.7157 31.2461 16.6992 31.3451 16.6992 31.4688C16.6992 31.5924 16.7157 31.6914 16.7363 31.6914C16.7567 31.6914 16.7734 31.7172 16.7734 31.7487C16.7734 31.8389 16.9459 31.9883 17.0501 31.9883C17.102 31.9883 17.1445 32.005 17.1445 32.0254C17.1445 32.0458 17.2113 32.0625 17.293 32.0625C17.3746 32.0625 17.4414 32.0458 17.4414 32.0254C17.4414 32.005 17.4669 31.9883 17.498 31.9883C17.5671 31.9883 17.8867 31.6754 17.8867 31.6078C17.8867 31.5812 17.9201 31.5353 17.9609 31.5059C18.0018 31.4764 18.0352 31.4293 18.0352 31.4012C18.0352 31.3731 18.0853 31.3033 18.1465 31.2461C18.2077 31.1889 18.2578 31.1154 18.2578 31.0828C18.2578 30.9992 18.3794 31.0089 18.4434 31.0977C18.4986 31.1743 18.6289 31.2004 18.6289 31.1348C18.6289 31.1144 18.6586 31.0977 18.6949 31.0977C18.7313 31.0977 18.785 31.0643 18.8145 31.0234C18.8439 30.9826 18.8977 30.9492 18.934 30.9492C18.9703 30.9492 19 30.9325 19 30.9121C19 30.8917 19.0297 30.875 19.066 30.875C19.1023 30.875 19.1561 30.8416 19.1855 30.8008C19.215 30.76 19.2651 30.7266 19.2969 30.7266C19.3287 30.7266 19.3788 30.6932 19.4082 30.6523C19.4376 30.6115 19.4847 30.5781 19.5129 30.5781C19.5409 30.5781 19.6108 30.528 19.668 30.4668C19.7252 30.4056 19.7916 30.3555 19.8157 30.3555C19.8397 30.3555 19.9235 30.2887 20.002 30.207C20.0804 30.1254 20.1627 30.0586 20.1848 30.0586C20.2369 30.0586 21.5977 28.6986 21.5977 28.6466C21.5977 28.6249 21.6979 28.5089 21.8203 28.3887C21.9428 28.2685 22.043 28.1508 22.043 28.1273C22.043 28.1037 22.0931 28.0377 22.1543 27.9805C22.2155 27.9233 22.2656 27.8568 22.2656 27.8328C22.2656 27.8088 22.3324 27.7249 22.4141 27.6465C22.4957 27.568 22.5625 27.4842 22.5625 27.4602C22.5625 27.4361 22.6126 27.3697 22.6738 27.3125C22.7351 27.2553 22.7852 27.1885 22.7852 27.1641C22.7852 27.1396 22.8353 27.0728 22.8965 27.0156C22.9577 26.9584 23.0078 26.8886 23.0078 26.8605C23.0078 26.8324 23.0412 26.7853 23.082 26.7559C23.1229 26.7264 23.1562 26.6793 23.1562 26.6512C23.1562 26.6231 23.2063 26.5533 23.2676 26.4961C23.3288 26.4389 23.3789 26.3691 23.3789 26.341C23.3789 26.3128 23.4123 26.2658 23.4531 26.2363C23.4939 26.2069 23.5273 26.1598 23.5273 26.1317C23.5273 26.1036 23.5774 26.0337 23.6387 25.9766C23.6999 25.9194 23.75 25.8495 23.75 25.8214C23.75 25.7933 23.7834 25.7462 23.8242 25.7168C23.865 25.6874 23.8984 25.6373 23.8984 25.6055C23.8984 25.5737 23.9318 25.5236 23.9727 25.4941C24.0135 25.4647 24.0469 25.4176 24.0469 25.3895C24.0469 25.3614 24.097 25.2916 24.1582 25.2344C24.2194 25.1772 24.2695 25.1073 24.2695 25.0793C24.2695 25.0511 24.3029 25.004 24.3438 24.9746C24.3846 24.9452 24.418 24.8981 24.418 24.87C24.418 24.8419 24.4681 24.772 24.5293 24.7148C24.5905 24.6577 24.6406 24.5878 24.6406 24.5597C24.6406 24.5316 24.674 24.4845 24.7148 24.4551C24.7557 24.4256 24.7891 24.3756 24.7891 24.3438C24.7891 24.3119 24.8225 24.2619 24.8633 24.2324C24.9041 24.203 24.9375 24.1529 24.9375 24.1211C24.9375 24.0893 24.9709 24.0392 25.0117 24.0098C25.0525 23.9803 25.0859 23.9332 25.0859 23.9051C25.0859 23.877 25.136 23.8072 25.1973 23.75C25.2585 23.6928 25.3086 23.623 25.3086 23.5949C25.3086 23.5668 25.342 23.5197 25.3828 23.4902C25.4236 23.4608 25.457 23.4137 25.457 23.3856C25.457 23.3575 25.5071 23.2877 25.5684 23.2305C25.6296 23.1733 25.6797 23.1034 25.6797 23.0754C25.6797 23.0472 25.7131 23.0001 25.7539 22.9707C25.7947 22.9413 25.8281 22.8912 25.8281 22.8594C25.8281 22.8276 25.8615 22.7775 25.9023 22.748C25.9432 22.7186 25.9766 22.6715 25.9766 22.6434C25.9766 22.6153 26.0267 22.5455 26.0879 22.4883C26.1491 22.4311 26.1992 22.3613 26.1992 22.3332C26.1992 22.305 26.2326 22.2579 26.2734 22.2285C26.3143 22.1991 26.3477 22.149 26.3477 22.1172C26.3477 22.0854 26.3811 22.0353 26.4219 22.0059C26.4627 21.9764 26.4961 21.9293 26.4961 21.9012C26.4961 21.8731 26.5462 21.8033 26.6074 21.7461C26.6687 21.6889 26.7188 21.6191 26.7188 21.591C26.7188 21.5628 26.7521 21.5158 26.793 21.4863C26.8338 21.4569 26.8672 21.4068 26.8672 21.375C26.8672 21.3432 26.9006 21.2931 26.9414 21.2637C26.9822 21.2342 27.0156 21.1805 27.0156 21.1441C27.0156 21.0955 27.045 21.0781 27.127 21.0781C27.1882 21.0781 27.2383 21.0948 27.2383 21.1152C27.2383 21.1356 27.2717 21.1523 27.3125 21.1523C27.3533 21.1523 27.3867 21.169 27.3867 21.1895C27.3867 21.2099 27.4535 21.2266 27.5352 21.2266C27.6168 21.2266 27.6836 21.2099 27.6836 21.1895C27.6836 21.169 27.7259 21.1523 27.7776 21.1523C27.8775 21.1523 28.1289 20.9333 28.1289 20.8463C28.1289 20.8195 28.1623 20.7736 28.2031 20.7441C28.2439 20.7147 28.2773 20.6646 28.2773 20.6328C28.2773 20.601 28.3107 20.5509 28.3516 20.5215C28.3924 20.4921 28.4258 20.442 28.4258 20.4102C28.4258 20.3784 28.4592 20.3283 28.5 20.2988C28.5408 20.2694 28.5742 20.2156 28.5742 20.1793C28.5742 20.143 28.5909 20.1133 28.6113 20.1133C28.6317 20.1133 28.6484 20.0836 28.6484 20.0473C28.6484 20.0109 28.6818 19.9572 28.7227 19.9277C28.7635 19.8983 28.7969 19.8482 28.7969 19.8164C28.7969 19.7846 28.8303 19.7345 28.8711 19.7051C28.9119 19.6756 28.9453 19.6256 28.9453 19.5938C28.9453 19.5619 28.9787 19.5119 29.0195 19.4824C29.0604 19.453 29.0938 19.4029 29.0938 19.3711C29.0938 19.3393 29.1271 19.2892 29.168 19.2598C29.2088 19.2303 29.2422 19.1802 29.2422 19.1484C29.2422 19.1166 29.2756 19.0665 29.3164 19.0371C29.3572 19.0077 29.3906 18.9539 29.3906 18.9176C29.3906 18.8813 29.4073 18.8516 29.4277 18.8516C29.4481 18.8516 29.4648 18.8218 29.4648 18.7855C29.4648 18.7492 29.4982 18.6954 29.5391 18.666C29.5799 18.6366 29.6133 18.5865 29.6133 18.5547C29.6133 18.5229 29.6467 18.4728 29.6875 18.4434C29.7283 18.4139 29.7617 18.3638 29.7617 18.332C29.7617 18.3002 29.7951 18.2501 29.8359 18.2207C29.8768 18.1913 29.9102 18.1412 29.9102 18.1094C29.9102 18.0776 29.9436 18.0275 29.9844 17.998C30.0252 17.9686 30.0586 17.9148 30.0586 17.8785C30.0586 17.8422 30.0753 17.8125 30.0957 17.8125C30.1161 17.8125 30.1328 17.7828 30.1328 17.7465C30.1328 17.7102 30.1662 17.6564 30.207 17.627C30.2479 17.5975 30.2812 17.5474 30.2812 17.5156C30.2812 17.4838 30.3146 17.4337 30.3555 17.4043C30.3963 17.3749 30.4297 17.3248 30.4297 17.293C30.4297 17.2612 30.4631 17.2111 30.5039 17.1816C30.5447 17.1522 30.5781 17.1021 30.5781 17.0703C30.5781 17.0385 30.6115 16.9884 30.6523 16.959C30.6932 16.9296 30.7266 16.8795 30.7266 16.8477C30.7266 16.8159 30.76 16.7658 30.8008 16.7363C30.8416 16.7069 30.875 16.6531 30.875 16.6168C30.875 16.5805 30.8917 16.5508 30.9121 16.5508C30.9325 16.5508 30.9492 16.5211 30.9492 16.4848C30.9492 16.4484 30.9826 16.3947 31.0234 16.3652C31.0643 16.3358 31.0977 16.2857 31.0977 16.2539C31.0977 16.2221 31.1311 16.172 31.1719 16.1426C31.2127 16.1131 31.2461 16.0631 31.2461 16.0312C31.2461 15.9994 31.2795 15.9493 31.3203 15.9199C31.3611 15.8905 31.3945 15.8404 31.3945 15.8086C31.3945 15.7768 31.4279 15.7267 31.4688 15.6973C31.5096 15.6678 31.543 15.6141 31.543 15.5777C31.543 15.5414 31.5597 15.5117 31.5801 15.5117C31.6005 15.5117 31.6172 15.482 31.6172 15.4457C31.6172 15.4094 31.6506 15.3556 31.6914 15.3262C31.7322 15.2967 31.7656 15.2466 31.7656 15.2148C31.7656 15.183 31.799 15.1329 31.8398 15.1035C31.8807 15.0741 31.9141 15.024 31.9141 14.9922C31.9141 14.9604 31.9475 14.9103 31.9883 14.8809C32.0291 14.8514 32.0625 14.8013 32.0625 14.7695C32.0625 14.7377 32.0959 14.6876 32.1367 14.6582C32.1775 14.6288 32.2109 14.5787 32.2109 14.5469C32.2109 14.5151 32.2443 14.465 32.2852 14.4355C32.326 14.4061 32.3594 14.3523 32.3594 14.316C32.3594 14.2797 32.3761 14.25 32.3965 14.25C32.4169 14.25 32.4336 14.2203 32.4336 14.184C32.4336 14.1477 32.467 14.0939 32.5078 14.0645C32.5486 14.035 32.582 13.9849 32.582 13.9531C32.582 13.9213 32.6154 13.8712 32.6562 13.8418C32.6971 13.8124 32.7305 13.7623 32.7305 13.7305C32.7305 13.6987 32.7639 13.6486 32.8047 13.6191C32.8455 13.5897 32.8789 13.5396 32.8789 13.5078C32.8789 13.476 32.9123 13.4259 32.9531 13.3965C32.9939 13.3671 33.0273 13.317 33.0273 13.2852C33.0273 13.2534 33.0607 13.2033 33.1016 13.1738C33.1424 13.1444 33.1758 13.0906 33.1758 13.0543C33.1758 13.018 33.1925 12.9883 33.2129 12.9883C33.2333 12.9883 33.25 12.9586 33.25 12.9223C33.25 12.8859 33.2834 12.8322 33.3242 12.8027C33.365 12.7733 33.3984 12.7232 33.3984 12.6914C33.3984 12.6596 33.4318 12.6095 33.4727 12.5801C33.5135 12.5507 33.5469 12.5006 33.5469 12.4688C33.5469 12.4369 33.5803 12.3868 33.6211 12.3574C33.6619 12.328 33.6953 12.2779 33.6953 12.2461C33.6953 12.2143 33.7287 12.1642 33.7695 12.1348C33.8104 12.1053 33.8438 12.0552 33.8438 12.0234C33.8438 11.9916 33.8771 11.9415 33.918 11.9121C33.9588 11.8827 33.9922 11.8289 33.9922 11.7926C33.9922 11.7563 34.0089 11.7266 34.0293 11.7266C34.0497 11.7266 34.0664 11.6968 34.0664 11.6605C34.0664 11.6242 34.0998 11.5704 34.1406 11.541C34.1814 11.5116 34.2148 11.4615 34.2148 11.4297C34.2148 11.3979 34.2482 11.3478 34.2891 11.3184C34.3299 11.2889 34.3633 11.2388 34.3633 11.207C34.3633 11.1752 34.3967 11.1251 34.4375 11.0957C34.4783 11.0663 34.5117 11.0125 34.5117 10.9762C34.5117 10.9399 34.5284 10.9102 34.5488 10.9102C34.5708 10.9102 34.5859 10.7741 34.5859 10.5762C34.5859 10.3783 34.5708 10.2422 34.5488 10.2422C34.5284 10.2422 34.5117 10.1921 34.5117 10.1309C34.5117 10.0696 34.495 10.0195 34.4746 10.0195C34.4542 10.0195 34.4375 9.98981 34.4375 9.95351C34.4375 9.91718 34.4041 9.86341 34.3633 9.83398C34.3225 9.80456 34.2891 9.75784 34.2891 9.73011C34.2891 9.70239 34.2223 9.61556 34.1406 9.53711C34.059 9.45866 33.9922 9.37527 33.9922 9.35182C33.9922 9.29712 33.8987 9.20312 33.8443 9.20312C33.8213 9.20312 33.7042 9.10293 33.584 8.98047C33.4638 8.85801 33.3431 8.75781 33.3159 8.75781C33.2887 8.75781 33.2423 8.72441 33.2129 8.68359C33.1835 8.64277 33.1334 8.60938 33.1016 8.60938C33.0698 8.60938 33.0197 8.57598 32.9902 8.53516C32.9608 8.49434 32.907 8.46094 32.8707 8.46094C32.8344 8.46094 32.8047 8.44424 32.8047 8.42383C32.8047 8.40342 32.7713 8.38672 32.7305 8.38672C32.6896 8.38672 32.6562 8.37002 32.6562 8.34961C32.6562 8.3292 32.6229 8.3125 32.582 8.3125C32.5412 8.3125 32.5078 8.2958 32.5078 8.27539C32.5078 8.25498 32.4744 8.23828 32.4336 8.23828C32.3928 8.23828 32.3594 8.22158 32.3594 8.20117C32.3594 8.18076 32.326 8.16406 32.2852 8.16406C32.2443 8.16406 32.2109 8.14736 32.2109 8.12695C32.2109 8.10654 32.1608 8.08984 32.0996 8.08984C32.0384 8.08984 31.9883 8.07314 31.9883 8.05273C31.9883 8.03232 31.9048 8.01562 31.8027 8.01562C31.7007 8.01562 31.6172 7.99893 31.6172 7.97852C31.6172 7.95788 31.5182 7.94141 31.3945 7.94141C31.2708 7.94141 31.1719 7.95788 31.1719 7.97852C31.1719 7.99893 31.1087 8.01562 31.0316 8.01562C30.934 8.01562 30.8751 8.03815 30.8379 8.08984C30.8085 8.13066 30.7547 8.16406 30.7184 8.16406C30.6821 8.16406 30.6523 8.19041 30.6523 8.22262C30.6523 8.25487 30.5855 8.34538 30.5039 8.42383C30.4223 8.50228 30.3555 8.58911 30.3555 8.61683C30.3555 8.64455 30.3221 8.69128 30.2812 8.7207C30.2404 8.75013 30.207 8.79674 30.207 8.82431C30.207 8.88892 30.1155 8.98047 30.0509 8.98047C30.0233 8.98047 29.9767 8.94707 29.9473 8.90625C29.9178 8.86543 29.8716 8.83203 29.8446 8.83203C29.7809 8.83203 29.6133 8.66441 29.6133 8.60069C29.6133 8.57368 29.6467 8.52747 29.6875 8.49805C29.7283 8.46862 29.7617 8.42153 29.7617 8.3934C29.7617 8.36531 29.8118 8.29547 29.873 8.23828C29.9343 8.1811 29.9844 8.11126 29.9844 8.08316C29.9844 8.05504 30.0178 8.00794 30.0586 7.97852C30.0994 7.94909 30.1328 7.89532 30.1328 7.85899C30.1328 7.82269 30.1495 7.79297 30.1699 7.79297C30.1906 7.79297 30.207 7.694 30.207 7.57031C30.207 7.44663 30.1906 7.34766 30.1699 7.34766C30.1495 7.34766 30.1328 7.32142 30.1328 7.28936C30.1328 7.21436 30.0435 7.125 29.9685 7.125C29.9364 7.125 29.9102 7.1083 29.9102 7.08789C29.9102 7.06748 29.8601 7.05078 29.7988 7.05078C29.7376 7.05078 29.6875 7.03408 29.6875 7.01367C29.6875 6.99326 29.6541 6.97656 29.6133 6.97656C29.5725 6.97656 29.5391 6.99326 29.5391 7.01367ZM5.86328 15.7344V16.625H13.3223H20.7812V16.1055C20.7812 15.7838 20.7954 15.5859 20.8184 15.5859C20.8388 15.5859 20.8555 15.5191 20.8555 15.4375C20.8555 15.3559 20.8722 15.2891 20.8926 15.2891C20.913 15.2891 20.9297 15.2557 20.9297 15.2148C20.9297 15.174 20.9464 15.1406 20.9668 15.1406C20.9872 15.1406 21.0039 15.1072 21.0039 15.0664C21.0039 15.0256 21.0206 14.9922 21.041 14.9922C21.0614 14.9922 21.0781 14.9588 21.0781 14.918C21.0781 14.844 21.0534 14.8438 13.4707 14.8438H5.86328V15.7344ZM5.86328 19.5938V20.4844H13.0466C20.6531 20.4844 20.3359 20.4912 20.3359 20.3282C20.3359 20.3006 20.3693 20.254 20.4102 20.2246C20.451 20.1952 20.4844 20.1481 20.4844 20.12C20.4844 20.0919 20.5345 20.022 20.5957 19.9648C20.6569 19.9077 20.707 19.8378 20.707 19.8097C20.707 19.7816 20.7404 19.7345 20.7812 19.7051C20.8221 19.6756 20.8555 19.6286 20.8555 19.6004C20.8555 19.5723 20.9056 19.5025 20.9668 19.4453C21.028 19.3881 21.0781 19.3183 21.0781 19.2902C21.0781 19.2621 21.1115 19.215 21.1523 19.1855C21.1932 19.1561 21.2266 19.106 21.2266 19.0742C21.2266 19.0424 21.26 18.9923 21.3008 18.9629C21.3416 18.9335 21.375 18.8797 21.375 18.8434C21.375 18.8071 21.3917 18.7773 21.4121 18.7773C21.4325 18.7773 21.4492 18.7606 21.4492 18.7402C21.4492 18.7156 18.8268 18.7031 13.6562 18.7031H5.86328V19.5938ZM5.86328 23.4531V24.3438H11.7106C17.8963 24.3438 17.6641 24.3498 17.6641 24.1876C17.6641 24.16 17.6975 24.1134 17.7383 24.084C17.7791 24.0546 17.8125 24.0045 17.8125 23.9727C17.8125 23.9409 17.8459 23.8908 17.8867 23.8613C17.9275 23.8319 17.9609 23.7818 17.9609 23.75C17.9609 23.7182 17.9943 23.6681 18.0352 23.6387C18.076 23.6092 18.1094 23.5591 18.1094 23.5273C18.1094 23.4955 18.1428 23.4454 18.1836 23.416C18.2244 23.3866 18.2578 23.3365 18.2578 23.3047C18.2578 23.2729 18.2912 23.2228 18.332 23.1934C18.3729 23.1639 18.4062 23.1168 18.4062 23.0887C18.4062 23.0606 18.4563 22.9908 18.5176 22.9336C18.5788 22.8764 18.6289 22.8066 18.6289 22.7785C18.6289 22.7503 18.6623 22.7033 18.7031 22.6738C18.7439 22.6444 18.7773 22.6073 18.7773 22.5914C18.7773 22.5755 15.8717 22.5625 12.3203 22.5625H5.86328V23.4531ZM8.38672 27.3496C8.38672 27.37 8.36093 27.3867 8.32939 27.3867C8.26333 27.3867 8.08984 27.5487 8.08984 27.6103C8.08984 27.6709 7.99299 27.7578 7.92549 27.7578C7.89342 27.7578 7.86719 27.7745 7.86719 27.7949C7.86719 27.8153 7.7746 27.832 7.66142 27.832C7.49238 27.832 7.43932 27.8157 7.36454 27.7409C7.31444 27.6908 7.27344 27.624 7.27344 27.5925C7.27344 27.5609 7.24371 27.5352 7.20742 27.5352C7.17109 27.5352 7.11732 27.5018 7.08789 27.4609C7.04414 27.4002 6.99181 27.3867 6.8004 27.3867C6.57277 27.3867 6.5619 27.3912 6.4004 27.5527C6.23768 27.7154 6.23438 27.7236 6.23438 27.9609C6.23438 28.0977 6.25052 28.2031 6.27148 28.2031C6.29189 28.2031 6.30859 28.2328 6.30859 28.2691C6.30859 28.3055 6.34199 28.3592 6.38281 28.3887C6.42363 28.4181 6.45703 28.4647 6.45703 28.4923C6.45703 28.5569 6.54858 28.6484 6.61319 28.6484C6.64076 28.6484 6.68737 28.6818 6.7168 28.7227C6.74622 28.7635 6.8 28.7969 6.83633 28.7969C6.87262 28.7969 6.90234 28.8136 6.90234 28.834C6.90234 28.8544 6.95244 28.8711 7.01367 28.8711C7.0749 28.8711 7.125 28.8878 7.125 28.9082C7.125 28.9286 7.1918 28.9453 7.27344 28.9453C7.35508 28.9453 7.42188 28.962 7.42188 28.9824C7.42188 29.0031 7.52085 29.0195 7.64453 29.0195C7.76822 29.0195 7.86719 29.0031 7.86719 28.9824C7.86719 28.962 7.93398 28.9453 8.01562 28.9453C8.09727 28.9453 8.16406 28.9286 8.16406 28.9082C8.16406 28.8878 8.21416 28.8711 8.27539 28.8711C8.33662 28.8711 8.38672 28.8544 8.38672 28.834C8.38672 28.8136 8.42012 28.7969 8.46094 28.7969C8.50176 28.7969 8.53516 28.7802 8.53516 28.7598C8.53516 28.7394 8.56065 28.7227 8.59179 28.7227C8.66085 28.7227 8.98047 28.4097 8.98047 28.3422C8.98047 28.3155 9.01387 28.2697 9.05469 28.2402C9.09825 28.2088 9.12891 28.1442 9.12891 28.0836C9.12891 28.0269 9.14561 27.9805 9.16602 27.9805C9.18643 27.9805 9.20312 27.9471 9.20312 27.9062C9.20312 27.8654 9.18643 27.832 9.16602 27.832C9.14561 27.832 9.12891 27.7897 9.12891 27.738C9.12891 27.6335 8.90822 27.3867 8.8147 27.3867C8.78342 27.3867 8.75781 27.37 8.75781 27.3496C8.75781 27.3292 8.67432 27.3125 8.57227 27.3125C8.47021 27.3125 8.38672 27.3292 8.38672 27.3496ZM7.27344 29.7988C7.27344 29.8192 7.22334 29.8359 7.16211 29.8359C7.10088 29.8359 7.05078 29.8526 7.05078 29.873C7.05078 29.8935 7.01738 29.9102 6.97656 29.9102C6.93574 29.9102 6.90234 29.9269 6.90234 29.9473C6.90234 29.9677 6.877 29.9844 6.84598 29.9844C6.81499 29.9844 6.6814 30.0926 6.5491 30.2249C6.41684 30.3572 6.30859 30.4908 6.30859 30.5218C6.30859 30.5528 6.29189 30.5781 6.27148 30.5781C6.25107 30.5781 6.23438 30.6115 6.23438 30.6523C6.23438 30.6932 6.21768 30.7266 6.19727 30.7266C6.17686 30.7266 6.16016 30.76 6.16016 30.8008C6.16016 30.8416 6.14346 30.875 6.12305 30.875C6.10264 30.875 6.08594 30.9418 6.08594 31.0234C6.08594 31.1051 6.06924 31.1719 6.04883 31.1719C6.02615 31.1719 6.01172 31.3451 6.01172 31.6172C6.01172 31.8893 6.02615 32.0625 6.04883 32.0625C6.06924 32.0625 6.08594 32.0887 6.08594 32.1208C6.08594 32.1958 6.1753 32.2852 6.2503 32.2852C6.28236 32.2852 6.30859 32.3019 6.30859 32.3223C6.30859 32.3435 6.41992 32.3594 6.56836 32.3594C6.7168 32.3594 6.82812 32.3435 6.82812 32.3223C6.82812 32.3019 6.85436 32.2852 6.88642 32.2852C6.96142 32.2852 7.05078 32.1958 7.05078 32.1208C7.05078 32.0887 7.06748 32.0625 7.08789 32.0625C7.1083 32.0625 7.125 32.0124 7.125 31.9512C7.125 31.8899 7.1417 31.8398 7.16211 31.8398C7.18374 31.8398 7.19922 31.7162 7.19922 31.543C7.19922 31.3698 7.21469 31.2461 7.23633 31.2461C7.25674 31.2461 7.27344 31.2203 7.27344 31.1888C7.27344 31.1572 7.31444 31.0904 7.36454 31.0403C7.44269 30.9621 7.49008 30.9492 7.69853 30.9492C7.83572 30.9492 7.94141 30.9654 7.94141 30.9863C7.94141 31.0067 7.9748 31.0234 8.01562 31.0234C8.05645 31.0234 8.08984 31.0401 8.08984 31.0605C8.08984 31.081 8.11511 31.0977 8.14603 31.0977C8.20948 31.0977 8.83203 31.7056 8.83203 31.7675C8.83203 31.7895 8.91553 31.8889 9.01758 31.9883C9.11963 32.0877 9.20312 32.1951 9.20312 32.2271C9.20312 32.259 9.22981 32.2852 9.26246 32.2852C9.29508 32.2852 9.3686 32.3353 9.42578 32.3965C9.48297 32.4577 9.55648 32.5078 9.5891 32.5078C9.62176 32.5078 9.64844 32.5245 9.64844 32.5449C9.64844 32.5653 9.69853 32.582 9.75977 32.582C9.821 32.582 9.87109 32.5987 9.87109 32.6191C9.87109 32.6395 9.95459 32.6562 10.0566 32.6562C10.1587 32.6562 10.2422 32.6395 10.2422 32.6191C10.2422 32.5987 10.2923 32.582 10.3535 32.582C10.4147 32.582 10.4648 32.5653 10.4648 32.5449C10.4648 32.5245 10.4982 32.5078 10.5391 32.5078C10.5799 32.5078 10.6133 32.4911 10.6133 32.4707C10.6133 32.4503 10.6467 32.4336 10.6875 32.4336C10.7283 32.4336 10.7617 32.4169 10.7617 32.3965C10.7617 32.3761 10.7951 32.3594 10.8359 32.3594C10.8768 32.3594 10.9102 32.3427 10.9102 32.3223C10.9102 32.3019 10.9399 32.2852 10.9762 32.2852C11.0125 32.2852 11.0663 32.2518 11.0957 32.2109C11.1251 32.1701 11.1752 32.1367 11.207 32.1367C11.2388 32.1367 11.2889 32.1033 11.3184 32.0625C11.3478 32.0217 11.4016 31.9883 11.4379 31.9883C11.4742 31.9883 11.5039 31.9716 11.5039 31.9512C11.5039 31.9308 11.5373 31.9141 11.5781 31.9141C11.6189 31.9141 11.6523 31.8974 11.6523 31.877C11.6523 31.8565 11.6857 31.8398 11.7266 31.8398C11.7674 31.8398 11.8008 31.8231 11.8008 31.8027C11.8008 31.7823 11.8342 31.7656 11.875 31.7656C11.9158 31.7656 11.9492 31.7489 11.9492 31.7285C11.9492 31.7081 11.9993 31.6914 12.0605 31.6914C12.1218 31.6914 12.1719 31.6747 12.1719 31.6543C12.1719 31.6339 12.2554 31.6172 12.3574 31.6172C12.4595 31.6172 12.543 31.6005 12.543 31.5801C12.543 31.5571 12.7409 31.543 13.0625 31.543C13.3841 31.543 13.582 31.5571 13.582 31.5801C13.582 31.6005 13.6655 31.6172 13.7676 31.6172C13.8696 31.6172 13.9531 31.6339 13.9531 31.6543C13.9531 31.6747 14.0199 31.6914 14.1016 31.6914C14.1832 31.6914 14.25 31.7081 14.25 31.7285C14.25 31.7489 14.3001 31.7656 14.3613 31.7656C14.4226 31.7656 14.4727 31.7823 14.4727 31.8027C14.4727 31.8231 14.5395 31.8398 14.6211 31.8398C14.7027 31.8398 14.7695 31.8565 14.7695 31.877C14.7695 31.8974 14.8363 31.9141 14.918 31.9141C14.9996 31.9141 15.0664 31.8974 15.0664 31.877C15.0664 31.8565 15.092 31.8398 15.1233 31.8398C15.2168 31.8398 15.4375 31.5931 15.4375 31.4885C15.4375 31.4368 15.4542 31.3945 15.4746 31.3945C15.495 31.3945 15.5117 31.3611 15.5117 31.3203C15.5117 31.2795 15.495 31.2461 15.4746 31.2461C15.4542 31.2461 15.4375 31.2038 15.4375 31.1521C15.4375 31.0476 15.2168 30.8008 15.1233 30.8008C15.092 30.8008 15.0664 30.7841 15.0664 30.7637C15.0664 30.7433 15.0163 30.7266 14.9551 30.7266C14.8938 30.7266 14.8438 30.7099 14.8438 30.6895C14.8438 30.669 14.7937 30.6523 14.7324 30.6523C14.6712 30.6523 14.6211 30.6356 14.6211 30.6152C14.6211 30.5948 14.571 30.5781 14.5098 30.5781C14.4485 30.5781 14.3984 30.5614 14.3984 30.541C14.3984 30.5206 14.3149 30.5039 14.2129 30.5039C14.1108 30.5039 14.0273 30.4872 14.0273 30.4668C14.0273 30.4462 13.9284 30.4297 13.8047 30.4297C13.681 30.4297 13.582 30.4132 13.582 30.3926C13.582 30.3694 13.3594 30.3555 12.9883 30.3555C12.6172 30.3555 12.3945 30.3694 12.3945 30.3926C12.3945 30.413 12.311 30.4297 12.209 30.4297C12.1069 30.4297 12.0234 30.4464 12.0234 30.4668C12.0234 30.4872 11.9733 30.5039 11.9121 30.5039C11.8509 30.5039 11.8008 30.5206 11.8008 30.541C11.8008 30.5614 11.7507 30.5781 11.6895 30.5781C11.6282 30.5781 11.5781 30.5948 11.5781 30.6152C11.5781 30.6356 11.5447 30.6523 11.5039 30.6523C11.4631 30.6523 11.4297 30.669 11.4297 30.6895C11.4297 30.7099 11.3963 30.7266 11.3555 30.7266C11.3146 30.7266 11.2812 30.7433 11.2812 30.7637C11.2812 30.7841 11.2479 30.8008 11.207 30.8008C11.1662 30.8008 11.1328 30.8175 11.1328 30.8379C11.1328 30.8583 11.0994 30.875 11.0586 30.875C11.0178 30.875 10.9844 30.8917 10.9844 30.9121C10.9844 30.9325 10.951 30.9492 10.9102 30.9492C10.8693 30.9492 10.8359 30.9659 10.8359 30.9863C10.8359 31.0067 10.8062 31.0234 10.7699 31.0234C10.7336 31.0234 10.6798 31.0568 10.6504 31.0977C10.621 31.1385 10.5672 31.1719 10.5309 31.1719C10.4946 31.1719 10.4648 31.1886 10.4648 31.209C10.4648 31.2294 10.4314 31.2461 10.3906 31.2461C10.3498 31.2461 10.3164 31.2628 10.3164 31.2832C10.3164 31.3036 10.2496 31.3203 10.168 31.3203C10.0863 31.3203 10.0195 31.3036 10.0195 31.2832C10.0195 31.2628 9.9933 31.2461 9.96123 31.2461C9.89314 31.2461 9.79688 31.159 9.79688 31.0974C9.79688 31.0739 9.73008 30.9906 9.64844 30.9121C9.5668 30.8337 9.5 30.7511 9.5 30.7285C9.5 30.6747 9.18015 30.3555 9.12623 30.3555C9.10326 30.3555 9.03765 30.3054 8.98047 30.2441C8.92328 30.1829 8.84977 30.1328 8.81715 30.1328C8.78449 30.1328 8.75781 30.1161 8.75781 30.0957C8.75781 30.0753 8.72441 30.0586 8.68359 30.0586C8.64277 30.0586 8.60938 30.0419 8.60938 30.0215C8.60938 30.0011 8.57598 29.9844 8.53516 29.9844C8.49434 29.9844 8.46094 29.9677 8.46094 29.9473C8.46094 29.9269 8.42754 29.9102 8.38672 29.9102C8.3459 29.9102 8.3125 29.8935 8.3125 29.873C8.3125 29.8526 8.2624 29.8359 8.20117 29.8359C8.13994 29.8359 8.08984 29.8192 8.08984 29.7988C8.08984 29.7763 7.92905 29.7617 7.68164 29.7617C7.43423 29.7617 7.27344 29.7763 7.27344 29.7988Z" fill="#FF9703"/>
</svg>
