<svg width="38" height="38" viewBox="0 0 38 38" fill="none" xmlns="http://www.w3.org/2000/svg">
<path fill-rule="evenodd" clip-rule="evenodd" d="M11.7992 0.0135518C11.1407 0.0831713 10.3779 0.318487 9.73271 0.651054C8.9416 1.05888 8.41285 1.56184 8.10894 2.19569L7.92429 2.58072L7.9347 3.19023C7.94745 3.93888 7.99801 4.25804 8.22374 5.01523C8.50612 5.96237 8.62178 6.43544 8.59173 6.52004C8.57632 6.56343 8.49868 6.68023 8.41925 6.77956C8.19878 7.05519 8.00035 7.48397 7.89131 7.92029C7.76263 8.43526 7.75195 9.65631 7.87149 10.1883C7.97111 10.6318 8.20342 11.1002 8.48179 11.419C8.68058 11.6466 8.70901 11.7053 8.73244 11.9366C8.83332 12.9325 9.13881 13.9337 9.55464 14.6311C9.7952 15.0346 10.1301 15.4394 10.6217 15.921L11.057 16.3474L11.0451 17.813L11.0332 19.2787L10.47 19.4532C6.5755 20.6604 4.92006 21.2046 4.19418 21.5163C3.6895 21.733 2.89991 22.1463 2.60754 22.3467C1.4661 23.1292 0.922397 23.8204 0.593749 24.9068C0.272176 25.9697 0.0116548 28.2217 0.00088616 30.0312C-0.00753954 31.4406 0.0312998 31.531 0.692605 31.6403C0.952991 31.6834 3.63385 31.6998 12.3737 31.712L23.7169 31.7278V34.614V37.5002L23.8448 37.6485C23.9151 37.7301 24.0109 37.8425 24.0576 37.8984L24.1424 38H30.865H37.5875L37.7937 37.7637L38 37.5275V32.0844V26.6413L37.8085 26.4566C37.5433 26.2007 37.4997 26.1849 36.9579 26.1482L36.4789 26.1158L36.451 25.9113C36.4356 25.7989 36.423 25.5752 36.423 25.4143C36.423 25.0137 36.3063 24.2596 36.1713 23.7866C35.8478 22.6545 35.0087 21.4757 34.0721 20.8379C33.4911 20.4422 32.701 20.0673 32.18 19.94C31.8577 19.8613 30.5901 19.8321 30.0227 19.8903C29.4018 19.9541 29.2172 20.0098 28.5154 20.345C27.6704 20.7488 26.9286 21.3577 26.3782 22.0994C26.2458 22.2778 26.1304 22.4236 26.1217 22.4236C26.113 22.4236 25.9891 22.3349 25.8463 22.2265C24.8627 21.4795 23.7269 20.9792 19.5491 19.4528L19.0534 19.2717L19.025 18.6692C19.0093 18.3379 18.9941 17.6664 18.9912 17.177L18.9858 16.2872L19.291 16.0432C20.0133 15.4658 20.5055 14.7525 20.898 13.7145C21.0513 13.309 21.1731 12.8315 21.3224 12.0509C21.402 11.6348 21.4288 11.568 21.5896 11.385C21.8396 11.1003 22.0864 10.6085 22.173 10.2223C22.2275 9.97913 22.2465 9.66236 22.2465 8.99185C22.2465 8.00278 22.1912 7.62163 21.9905 7.22536C21.8869 7.0207 21.4888 6.57639 21.4091 6.57639C21.3897 6.57639 21.3737 6.31733 21.3735 6.00074C21.3724 4.3971 21.1557 3.61241 20.5717 3.09731C20.2365 2.80158 19.8876 2.61553 19.4115 2.47832C18.9334 2.34057 18.9484 2.35312 18.7768 1.94863C18.5327 1.37321 18.1503 0.889756 17.7014 0.589064C17.3541 0.356412 16.7415 0.127598 16.3181 0.0722904C15.9544 0.024839 12.1592 -0.0245087 11.7992 0.0135518ZM15.4828 1.56514C16.1009 1.61643 16.6515 1.77896 16.9321 1.99301C17.1522 2.16088 17.2944 2.48198 17.3974 3.04385C17.4727 3.4552 17.583 3.66176 17.792 3.78271C17.8665 3.82588 18.1692 3.89509 18.4677 3.93721C19.3686 4.06435 19.6121 4.2217 19.7009 4.734C19.7281 4.89062 19.7711 5.4962 19.7966 6.07975C19.8613 7.56371 19.8664 7.58326 20.2529 7.84029C20.6013 8.07181 20.6676 8.2664 20.6683 9.05958C20.6691 9.91935 20.5766 10.1776 20.1987 10.3707C19.9559 10.4949 19.8524 10.7222 19.7721 11.3074C19.6358 12.301 19.604 12.475 19.4742 12.9384C19.4011 13.1994 19.267 13.5544 19.1763 13.7273C18.9685 14.1237 18.3554 14.7776 17.927 15.06C17.4188 15.395 17.4381 15.3061 17.421 17.3895C17.4128 18.381 17.3866 19.224 17.361 19.3189C17.336 19.4116 17.2735 19.51 17.2221 19.5376C16.7442 19.7939 13.9976 19.827 13.0158 19.5882L12.7004 19.5115L12.6741 17.5927C12.6577 16.3934 12.6299 15.6316 12.5998 15.561C12.5424 15.4263 12.4198 15.3121 11.9119 14.9201C11.3222 14.465 10.942 13.9593 10.6617 13.2568C10.4769 12.794 10.396 12.4073 10.2936 11.497C10.2068 10.7255 10.2045 10.7168 10.0564 10.5622C9.97413 10.4763 9.83148 10.3672 9.73933 10.3196C9.52973 10.2114 9.48435 10.1261 9.40794 9.69695C9.32643 9.23905 9.32805 8.68832 9.41186 8.35797C9.48197 8.08165 9.55523 7.99045 9.94952 7.68818C10.2111 7.48768 10.2608 7.3195 10.231 6.73441C10.2057 6.23791 10.076 5.63838 9.81093 4.79301C9.66715 4.33448 9.47845 3.42938 9.47976 3.2044C9.48404 2.46103 10.7612 1.68654 12.1822 1.56559C12.7662 1.51593 14.8864 1.51561 15.4828 1.56514ZM18.5603 20.7992C18.6657 20.8394 18.6777 20.8633 18.6536 20.9843C18.6213 21.1461 18.0508 22.3212 17.9846 22.3621C17.945 22.3867 16.8682 21.3566 16.8682 21.2942C16.8682 21.2806 17.0591 21.2215 17.2925 21.1628C17.5259 21.104 17.8756 20.9889 18.0697 20.9068C18.2638 20.8247 18.4264 20.7566 18.431 20.7553C18.4356 20.7541 18.4937 20.7739 18.5603 20.7992ZM12.0145 20.9326C12.1987 21.0065 12.5352 21.1124 12.7624 21.1679L13.1754 21.2688L12.7351 21.714C12.493 21.9588 12.24 22.1991 12.173 22.2478L12.0512 22.3365L11.9803 22.2281C11.8481 22.0259 11.3292 20.8749 11.3529 20.8365C11.4003 20.7597 11.6878 20.8015 12.0145 20.9326ZM9.82859 21.5997C9.95619 21.804 10.1186 22.1089 10.8089 23.4395C11.3055 24.3969 11.4457 24.5456 11.852 24.5456C12.1635 24.5456 12.2751 24.455 13.8454 22.927C14.4999 22.2901 15.0542 21.7747 15.0772 21.7816C15.1002 21.7886 15.5886 22.2576 16.1625 22.824C17.7405 24.381 17.9333 24.5456 18.1788 24.5456C18.2601 24.5456 18.4136 24.5034 18.5199 24.4519C18.7551 24.3378 18.8473 24.1926 19.4923 22.9203C19.9931 21.9324 20.2419 21.4755 20.279 21.4755C20.3417 21.4755 21.1291 21.732 21.4865 21.8688C23.9556 22.8138 25.0576 23.4288 25.3176 24.0066C25.395 24.1784 25.3971 24.2367 25.3467 24.809C25.3168 25.1484 25.2927 25.5815 25.2931 25.7715L25.2939 26.117L24.7661 26.15L24.2383 26.1831L23.9776 26.4322L23.7169 26.6814V28.3902V30.0991L12.644 30.0878L1.57122 30.0764L1.58451 29.67C1.64489 27.8279 1.91861 25.8255 2.20788 25.1102C2.49643 24.3966 2.99954 23.9131 3.9926 23.395C4.89708 22.923 6.18932 22.4447 8.30728 21.7978C8.71617 21.673 9.18252 21.5301 9.3436 21.4805C9.50467 21.4309 9.64958 21.3891 9.66557 21.3877C9.68157 21.3863 9.75492 21.4817 9.82859 21.5997ZM31.6695 21.5015C32.1843 21.6053 32.4343 21.7 32.8384 21.9441C33.2908 22.2174 33.7475 22.6132 33.9834 22.9364C34.5993 23.7802 34.7982 24.4221 34.8 25.5728L34.8009 26.1258H30.8514H26.9019L26.9294 25.4553C26.9445 25.0866 26.9904 24.637 27.0314 24.4563C27.329 23.1455 28.3147 22.0536 29.6052 21.6055C29.8236 21.5296 30.124 21.4508 30.2727 21.4302C30.6065 21.384 31.2497 21.4168 31.6695 21.5015ZM36.412 32.0968L36.4005 36.4424L30.8771 36.4538L25.3536 36.4653L25.3238 34.0609C25.2862 31.0287 25.286 28.9562 25.3233 28.3066C25.3521 27.8059 25.3536 27.8009 25.4696 27.7829C25.534 27.7729 28.025 27.7617 31.0051 27.758L36.4234 27.7512L36.412 32.0968ZM30.498 28.563C30.0214 28.6381 29.5033 28.9171 29.1389 29.2949C28.7304 29.7184 28.4609 30.4484 28.507 31.0066C28.5524 31.5569 28.6716 31.8571 29.1025 32.5075C29.2638 32.7509 29.2772 32.797 29.3056 33.2084C29.3488 33.8323 29.4397 34.0726 29.7502 34.3837C30.1276 34.7619 30.2553 34.8092 30.8911 34.8061C31.3784 34.8036 31.4363 34.7941 31.6128 34.687C31.8503 34.5429 31.9965 34.4119 32.1481 34.2075C32.3051 33.9957 32.3586 33.8207 32.4153 33.3321C32.4758 32.8114 32.5263 32.6452 32.6863 32.4404C33.1875 31.7988 33.3308 31.0332 33.1129 30.1605C32.9483 29.5016 32.2021 28.812 31.4667 28.6393C31.0637 28.5447 30.7639 28.521 30.498 28.563ZM31.1695 30.2013C31.4501 30.3621 31.6135 30.599 31.6367 30.8785C31.6551 31.1017 31.6448 31.1319 31.4781 31.3432C31.2613 31.618 30.9524 31.7972 30.773 31.7521C30.6093 31.7109 30.1298 31.239 30.0907 31.0806C30.0139 30.7694 30.2508 30.3364 30.5796 30.1868C30.8253 30.075 30.9548 30.0782 31.1695 30.2013Z" fill="#FF9703"/>
</svg>
