<svg width="31" height="38" viewBox="0 0 31 38" fill="none" xmlns="http://www.w3.org/2000/svg">
<mask id="path-1-inside-1" fill="white">
<path fill-rule="evenodd" clip-rule="evenodd" d="M13.7237 0.0241117C13.7237 0.0373731 13.669 0.0482234 13.602 0.0482234C13.5351 0.0482234 13.4804 0.0590736 13.4804 0.072335C13.4804 0.0855964 13.4475 0.0964467 13.4074 0.0964467C13.3672 0.0964467 13.3344 0.107297 13.3344 0.120558C13.3344 0.13382 13.3125 0.14467 13.2857 0.14467C13.2589 0.14467 13.237 0.15552 13.237 0.168782C13.237 0.182043 13.2042 0.192893 13.1641 0.192893C13.1239 0.192893 13.0911 0.203744 13.0911 0.217005C13.0911 0.230266 13.0692 0.241117 13.0424 0.241117C13.0156 0.241117 12.9937 0.251967 12.9937 0.265228C12.9937 0.27849 12.9742 0.28934 12.9504 0.28934C12.9266 0.28934 12.8914 0.311041 12.8721 0.337563C12.8528 0.364086 12.8229 0.385787 12.8056 0.385787C12.7673 0.385787 12.2637 0.880727 12.2637 0.918341C12.2637 0.933074 12.2309 0.975534 12.1907 1.01269C12.1506 1.04985 12.1177 1.09761 12.1177 1.11881C12.1177 1.14002 12.1068 1.15736 12.0934 1.15736C12.08 1.15736 12.0691 1.17906 12.0691 1.20558C12.0691 1.23211 12.0581 1.25381 12.0447 1.25381C12.0314 1.25381 12.0204 1.27551 12.0204 1.30203C12.0204 1.32855 12.0095 1.35025 11.9961 1.35025C11.9827 1.35025 11.9717 1.3828 11.9717 1.42259C11.9717 1.46237 11.9608 1.49492 11.9474 1.49492C11.934 1.49492 11.9231 1.52747 11.9231 1.56726C11.9231 1.60704 11.9121 1.63959 11.8987 1.63959C11.8854 1.63959 11.8744 1.69385 11.8744 1.76015C11.8744 1.82646 11.8635 1.88071 11.8501 1.88071C11.8339 1.88071 11.8257 4.05076 11.8257 8.34264C11.8257 12.6345 11.8176 14.8046 11.8014 14.8046C11.788 14.8046 11.7771 14.8371 11.7771 14.8769C11.7771 14.9167 11.7661 14.9492 11.7527 14.9492C11.7394 14.9492 11.7284 14.9658 11.7284 14.986C11.7284 15.0339 11.5219 15.2386 11.4736 15.2386C11.4531 15.2386 11.4364 15.2494 11.4364 15.2627C11.4364 15.276 11.4145 15.2868 11.3878 15.2868C11.361 15.2868 11.3391 15.2977 11.3391 15.3109C11.3391 15.3254 11.2418 15.335 11.0958 15.335C10.9498 15.335 10.8524 15.3254 10.8524 15.3109C10.8524 15.2977 10.822 15.2868 10.7848 15.2868C10.7451 15.2868 10.7027 15.2669 10.6821 15.2386C10.6628 15.2121 10.6322 15.1904 10.6142 15.1904C10.5718 15.1904 10.5118 15.1309 10.5118 15.0889C10.5118 15.071 10.4899 15.0407 10.4631 15.0216C10.4363 15.0025 10.4144 14.9675 10.4144 14.9439C10.4144 14.9203 10.4035 14.901 10.3901 14.901C10.374 14.901 10.3658 12.9962 10.3658 9.23477C10.3658 5.47335 10.3576 3.56853 10.3414 3.56853C10.3273 3.56853 10.3171 3.48816 10.3171 3.37563C10.3171 3.26311 10.307 3.18274 10.2928 3.18274C10.2794 3.18274 10.2684 3.15019 10.2684 3.11041C10.2684 3.07062 10.2575 3.03807 10.2441 3.03807C10.2307 3.03807 10.2198 3.00552 10.2198 2.96574C10.2198 2.92595 10.2088 2.8934 10.1954 2.8934C10.1821 2.8934 10.1711 2.86324 10.1711 2.82639C10.1711 2.78704 10.151 2.74504 10.1224 2.72462C10.0957 2.7055 10.0738 2.67056 10.0738 2.64696C10.0738 2.62337 10.0628 2.60406 10.0495 2.60406C10.0361 2.60406 10.0251 2.58475 10.0251 2.56117C10.0251 2.53756 10.0032 2.50262 9.97645 2.4835C9.94969 2.46438 9.92779 2.43378 9.92779 2.41551C9.92779 2.39726 9.89494 2.35188 9.85479 2.31472C9.81464 2.27756 9.78179 2.23494 9.78179 2.22001C9.78179 2.18471 9.57233 1.97716 9.53671 1.97716C9.52165 1.97716 9.47863 1.94461 9.44113 1.90482C9.40363 1.86504 9.35543 1.83249 9.33404 1.83249C9.31263 1.83249 9.29513 1.82164 9.29513 1.80838C9.29513 1.79511 9.27564 1.78426 9.25185 1.78426C9.22802 1.78426 9.19277 1.76256 9.17347 1.73604C9.15286 1.70773 9.11047 1.68782 9.07076 1.68782C9.03358 1.68782 9.00314 1.67697 9.00314 1.66371C9.00314 1.65044 8.98124 1.63959 8.95447 1.63959C8.92771 1.63959 8.90581 1.62874 8.90581 1.61548C8.90581 1.60222 8.88391 1.59137 8.85714 1.59137C8.83038 1.59137 8.80848 1.58052 8.80848 1.56726C8.80848 1.554 8.76468 1.54315 8.71115 1.54315C8.65761 1.54315 8.61381 1.5323 8.61381 1.51904C8.61381 1.50577 8.55907 1.49492 8.49215 1.49492C8.42524 1.49492 8.37049 1.48407 8.37049 1.47081C8.37049 1.45651 8.28126 1.4467 8.15149 1.4467C8.02172 1.4467 7.9325 1.45651 7.9325 1.47081C7.9325 1.48422 7.8676 1.49492 7.7865 1.49492C7.7054 1.49492 7.6405 1.50563 7.6405 1.51904C7.6405 1.5323 7.60765 1.54315 7.5675 1.54315C7.52735 1.54315 7.49451 1.554 7.49451 1.56726C7.49451 1.58052 7.46166 1.59137 7.42151 1.59137C7.38136 1.59137 7.34851 1.60222 7.34851 1.61548C7.34851 1.62874 7.32661 1.63959 7.29984 1.63959C7.27308 1.63959 7.25118 1.65044 7.25118 1.66371C7.25118 1.67697 7.22928 1.68782 7.20251 1.68782C7.17575 1.68782 7.15385 1.69867 7.15385 1.71193C7.15385 1.72519 7.13195 1.73604 7.10518 1.73604C7.07841 1.73604 7.05651 1.74689 7.05651 1.76015C7.05651 1.77341 7.03702 1.78426 7.01323 1.78426C6.98941 1.78426 6.95415 1.80596 6.93485 1.83249C6.91556 1.85901 6.88565 1.88071 6.86837 1.88071C6.82737 1.88071 6.32653 2.377 6.32653 2.41763C6.32653 2.43475 6.30463 2.46438 6.27786 2.4835C6.2511 2.50262 6.2292 2.53756 6.2292 2.56117C6.2292 2.58475 6.21825 2.60406 6.20487 2.60406C6.19148 2.60406 6.18053 2.62576 6.18053 2.65228C6.18053 2.67881 6.16958 2.70051 6.1562 2.70051C6.14282 2.70051 6.13187 2.72221 6.13187 2.74873C6.13187 2.77525 6.12092 2.79695 6.10754 2.79695C6.09415 2.79695 6.0832 2.8295 6.0832 2.86929C6.0832 2.90907 6.07225 2.94162 6.05887 2.94162C6.04549 2.94162 6.03454 2.97418 6.03454 3.01396C6.03454 3.05374 6.02359 3.08629 6.0102 3.08629C5.99682 3.08629 5.98587 3.1297 5.98587 3.18274C5.98587 3.23579 5.97492 3.27919 5.96154 3.27919C5.94538 3.27919 5.93721 5.20812 5.93721 9.01777C5.93721 12.8274 5.92903 14.7563 5.91287 14.7563C5.89949 14.7563 5.88854 14.7997 5.88854 14.8528C5.88854 14.9058 5.87759 14.9492 5.86421 14.9492C5.85082 14.9492 5.83987 14.9658 5.83987 14.986C5.83987 15.0063 5.79089 15.0714 5.73101 15.1307C5.67115 15.19 5.60545 15.2386 5.58501 15.2386C5.5646 15.2386 5.54788 15.2494 5.54788 15.2627C5.54788 15.276 5.51503 15.2868 5.47488 15.2868C5.43473 15.2868 5.40188 15.2977 5.40188 15.3109C5.40188 15.3252 5.31266 15.335 5.18289 15.335C5.05312 15.335 4.96389 15.3252 4.96389 15.3109C4.96389 15.2977 4.93104 15.2868 4.89089 15.2868C4.85075 15.2868 4.8179 15.276 4.8179 15.2627C4.8179 15.2494 4.80118 15.2386 4.78076 15.2386C4.71801 15.2386 4.5259 15.03 4.5259 14.9619C4.5259 14.9284 4.51495 14.901 4.50157 14.901C4.48819 14.901 4.47724 14.8576 4.47724 14.8046C4.47724 14.7515 4.46629 14.7081 4.4529 14.7081C4.43689 14.7081 4.42857 14.0973 4.42857 12.9239C4.42857 11.7504 4.43689 11.1396 4.4529 11.1396C4.46629 11.1396 4.47724 11.1179 4.47724 11.0914C4.47724 11.0648 4.46629 11.0431 4.4529 11.0431C4.41779 11.0431 4.4229 10.9533 4.45899 10.9366C4.48332 10.9254 4.48332 10.9198 4.45899 10.9085C4.43543 10.8976 4.42857 10.688 4.42857 9.98023C4.42857 9.38682 4.42003 9.06599 4.40424 9.06599C4.39086 9.06599 4.37991 9.02259 4.37991 8.96954C4.37991 8.9165 4.36896 8.8731 4.35557 8.8731C4.34219 8.8731 4.33124 8.84055 4.33124 8.80076C4.33124 8.76098 4.32029 8.72843 4.30691 8.72843C4.29352 8.72843 4.28257 8.70673 4.28257 8.6802C4.28257 8.65368 4.27163 8.63198 4.25824 8.63198C4.24486 8.63198 4.23391 8.61028 4.23391 8.58376C4.23391 8.55723 4.22296 8.53553 4.20958 8.53553C4.19619 8.53553 4.18524 8.51622 4.18524 8.49264C4.18524 8.46903 4.16334 8.4341 4.13658 8.41497C4.10981 8.39585 4.08791 8.36526 4.08791 8.34698C4.08791 8.32873 4.05506 8.28335 4.01491 8.24619C3.97476 8.20904 3.94192 8.16655 3.94192 8.1518C3.94192 8.11097 3.53422 7.71574 3.4921 7.71574C3.47183 7.71574 3.45526 7.70489 3.45526 7.69162C3.45526 7.67836 3.43577 7.66751 3.41197 7.66751C3.38815 7.66751 3.35289 7.64581 3.3336 7.61929C3.3143 7.59277 3.27904 7.57107 3.25522 7.57107C3.23142 7.57107 3.21193 7.56022 3.21193 7.54695C3.21193 7.53369 3.19003 7.52284 3.16327 7.52284C3.1365 7.52284 3.1146 7.51199 3.1146 7.49873C3.1146 7.48547 3.08175 7.47462 3.0416 7.47462C3.00145 7.47462 2.9686 7.46377 2.9686 7.45051C2.9686 7.43725 2.9467 7.4264 2.91994 7.4264C2.89317 7.4264 2.87127 7.41555 2.87127 7.40228C2.87127 7.38902 2.82747 7.37817 2.77394 7.37817C2.72041 7.37817 2.67661 7.36732 2.67661 7.35406C2.67661 7.34029 2.60361 7.32995 2.50628 7.32995C2.40895 7.32995 2.33595 7.31961 2.33595 7.30584C2.33595 7.29258 2.3031 7.28173 2.26295 7.28173C2.2228 7.28173 2.18995 7.29258 2.18995 7.30584C2.18995 7.31989 2.10885 7.32995 1.99529 7.32995C1.88173 7.32995 1.80063 7.34 1.80063 7.35406C1.80063 7.36732 1.75683 7.37817 1.7033 7.37817C1.64976 7.37817 1.60597 7.38902 1.60597 7.40228C1.60597 7.41555 1.57312 7.4264 1.53297 7.4264C1.49282 7.4264 1.45997 7.43725 1.45997 7.45051C1.45997 7.46377 1.43807 7.47462 1.4113 7.47462C1.38454 7.47462 1.36264 7.48547 1.36264 7.49873C1.36264 7.51199 1.3322 7.52284 1.29502 7.52284C1.25531 7.52284 1.21292 7.54276 1.19231 7.57107C1.17301 7.59759 1.14016 7.61929 1.11931 7.61929C1.09846 7.61929 1.06561 7.64099 1.04631 7.66751C1.02701 7.69404 0.99711 7.71574 0.979834 7.71574C0.938833 7.71574 0.437991 8.21203 0.437991 8.25266C0.437991 8.26977 0.416091 8.29941 0.389325 8.31853C0.362559 8.33765 0.340659 8.3702 0.340659 8.39086C0.340659 8.41153 0.31876 8.44408 0.291994 8.4632C0.263427 8.48362 0.243328 8.52562 0.243328 8.56497C0.243328 8.60182 0.232378 8.63198 0.218995 8.63198C0.205612 8.63198 0.194662 8.66453 0.194662 8.70432C0.194662 8.7441 0.183713 8.77665 0.17033 8.77665C0.156947 8.77665 0.145997 8.79835 0.145997 8.82487C0.145997 8.8514 0.135047 8.8731 0.121664 8.8731C0.108281 8.8731 0.0973312 8.9165 0.0973312 8.96954C0.0973312 9.02259 0.0863815 9.06599 0.0729984 9.06599C0.0588124 9.06599 0.0486656 9.14635 0.0486656 9.25888C0.0486656 9.37141 0.0385188 9.45178 0.0243328 9.45178C0.0091978 9.45178 0 9.58842 0 9.81345C0 10.0385 0.0091978 10.1751 0.0243328 10.1751C0.0393948 10.1751 0.0486656 10.3037 0.0486656 10.5127C0.0486656 10.7217 0.0393948 10.8503 0.0243328 10.8503C0.0091978 10.8503 0 10.9869 0 11.2119C0 11.437 0.0091978 11.5736 0.0243328 11.5736C0.0394678 11.5736 0.0486656 11.7102 0.0486656 11.9353C0.0486656 12.1603 0.0394678 12.297 0.0243328 12.297C0.0091978 12.297 0 12.4336 0 12.6586C0 12.8837 0.0091978 13.0203 0.0243328 13.0203C0.0394678 13.0203 0.0486656 13.1569 0.0486656 13.382C0.0486656 13.607 0.0394678 13.7437 0.0243328 13.7437C0.0091978 13.7437 0 13.8803 0 14.1053C0 14.3304 0.0091978 14.467 0.0243328 14.467C0.0394678 14.467 0.0486656 14.6036 0.0486656 14.8287C0.0486656 15.0537 0.0394678 15.1904 0.0243328 15.1904C0.0091248 15.1904 0 15.335 0 15.5761C0 15.8173 0.0091248 15.9619 0.0243328 15.9619C0.0393948 15.9619 0.0486656 16.0905 0.0486656 16.2995C0.0486656 16.5085 0.0393948 16.6371 0.0243328 16.6371C0.0091978 16.6371 0 16.7737 0 16.9987C0 17.2238 0.0091978 17.3604 0.0243328 17.3604C0.0394678 17.3604 0.0486656 17.497 0.0486656 17.7221C0.0486656 17.9471 0.0394678 18.0838 0.0243328 18.0838C0.0091978 18.0838 0 18.2204 0 18.4454C0 18.6705 0.0091978 18.8071 0.0243328 18.8071C0.0394678 18.8071 0.0486656 18.9437 0.0486656 19.1688C0.0486656 19.3938 0.0394678 19.5305 0.0243328 19.5305C0.0091978 19.5305 0 19.6671 0 19.8921C0 20.1172 0.0091978 20.2538 0.0243328 20.2538C0.0394678 20.2538 0.0486656 20.3904 0.0486656 20.6155C0.0486656 20.8405 0.0394678 20.9772 0.0243328 20.9772C0.0091248 20.9772 0 21.1218 0 21.3629C0 21.6041 0.0091248 21.7487 0.0243328 21.7487C0.0393948 21.7487 0.0486656 21.8773 0.0486656 22.0863C0.0486656 22.2953 0.0393948 22.4239 0.0243328 22.4239C0.0091978 22.4239 0 22.5605 0 22.7855C0 23.0106 0.0091978 23.1472 0.0243328 23.1472C0.0394678 23.1472 0.0486656 23.2838 0.0486656 23.5089C0.0486656 23.7339 0.0394678 23.8706 0.0243328 23.8706C0.0091978 23.8706 0 24.0072 0 24.2322C0 24.4573 0.0091978 24.5939 0.0243328 24.5939C0.0394678 24.5939 0.0486656 24.7305 0.0486656 24.9556C0.0486656 25.1806 0.0394678 25.3173 0.0243328 25.3173C0.0091978 25.3173 0 25.4539 0 25.6789C0 25.904 0.0091978 26.0406 0.0243328 26.0406C0.0394678 26.0406 0.0486656 26.1772 0.0486656 26.4023C0.0486656 26.6273 0.0394678 26.764 0.0243328 26.764C0.0091248 26.764 0 26.9086 0 27.1497C0 27.3909 0.0091248 27.5355 0.0243328 27.5355C0.0393948 27.5355 0.0486656 27.6641 0.0486656 27.8731C0.0486656 28.0821 0.0393948 28.2107 0.0243328 28.2107C0.0091978 28.2107 0 28.3473 0 28.5723C0 28.7974 0.0091978 28.934 0.0243328 28.934C0.0399301 28.934 0.0486656 29.159 0.0486656 29.5609C0.0486656 29.9628 0.0574011 30.1878 0.0729984 30.1878C0.0865275 30.1878 0.0973312 30.2521 0.0973312 30.3325C0.0973312 30.4129 0.108135 30.4772 0.121664 30.4772C0.135558 30.4772 0.145997 30.5495 0.145997 30.6459C0.145997 30.7424 0.156436 30.8147 0.17033 30.8147C0.183713 30.8147 0.194662 30.869 0.194662 30.9353C0.194662 31.0016 0.205612 31.0558 0.218995 31.0558C0.232378 31.0558 0.243328 31.0992 0.243328 31.1523C0.243328 31.2053 0.254278 31.2487 0.267661 31.2487C0.281044 31.2487 0.291994 31.303 0.291994 31.3693C0.291994 31.4356 0.302943 31.4898 0.316327 31.4898C0.32971 31.4898 0.340659 31.5224 0.340659 31.5622C0.340659 31.602 0.351609 31.6345 0.364992 31.6345C0.378375 31.6345 0.389325 31.6671 0.389325 31.7069C0.389325 31.7466 0.400275 31.7792 0.413658 31.7792C0.427041 31.7792 0.437991 31.8117 0.437991 31.8515C0.437991 31.8913 0.44894 31.9239 0.462323 31.9239C0.475706 31.9239 0.486656 31.9564 0.486656 31.9962C0.486656 32.036 0.497606 32.0685 0.510989 32.0685C0.524372 32.0685 0.535322 32.1011 0.535322 32.1409C0.535322 32.1806 0.546272 32.2132 0.559655 32.2132C0.573038 32.2132 0.583987 32.2458 0.583987 32.2855C0.583987 32.3253 0.594937 32.3579 0.60832 32.3579C0.621703 32.3579 0.632653 32.3796 0.632653 32.4061C0.632653 32.4326 0.643603 32.4543 0.656986 32.4543C0.670369 32.4543 0.681319 32.4869 0.681319 32.5266C0.681319 32.5664 0.692268 32.599 0.705652 32.599C0.719035 32.599 0.729984 32.6207 0.729984 32.6472C0.729984 32.6737 0.740934 32.6954 0.754317 32.6954C0.7677 32.6954 0.77865 32.7171 0.77865 32.7437C0.77865 32.7702 0.7896 32.7919 0.802983 32.7919C0.816366 32.7919 0.827316 32.8244 0.827316 32.8642C0.827316 32.904 0.838265 32.9365 0.851648 32.9365C0.865031 32.9365 0.875981 32.9582 0.875981 32.9848C0.875981 33.0113 0.886931 33.033 0.900314 33.033C0.913697 33.033 0.924647 33.0523 0.924647 33.0759C0.924647 33.0995 0.946546 33.1344 0.973312 33.1536C1.00188 33.174 1.02198 33.216 1.02198 33.2553C1.02198 33.2922 1.03293 33.3223 1.04631 33.3223C1.05969 33.3223 1.07064 33.3416 1.07064 33.3652C1.07064 33.3888 1.09254 33.4238 1.11931 33.4429C1.14608 33.462 1.16797 33.497 1.16797 33.5206C1.16797 33.5441 1.17892 33.5634 1.19231 33.5634C1.20569 33.5634 1.21664 33.5852 1.21664 33.6117C1.21664 33.6382 1.22759 33.6599 1.24097 33.6599C1.25436 33.6599 1.26531 33.6792 1.26531 33.7028C1.26531 33.7264 1.28721 33.7613 1.31397 33.7805C1.34074 33.7996 1.36264 33.8321 1.36264 33.8528C1.36264 33.8735 1.38454 33.906 1.4113 33.9251C1.43807 33.9442 1.45997 33.9768 1.45997 33.9975C1.45997 34.0181 1.48187 34.0507 1.50863 34.0698C1.5354 34.0889 1.5573 34.1215 1.5573 34.1421C1.5573 34.1628 1.5792 34.1953 1.60597 34.2145C1.63273 34.2336 1.65463 34.2642 1.65463 34.2825C1.65463 34.3007 1.68748 34.3461 1.72763 34.3832C1.76778 34.4204 1.80063 34.4638 1.80063 34.4797C1.80063 34.4956 1.83348 34.539 1.87363 34.5761C1.91378 34.6133 1.94662 34.6563 1.94662 34.6718C1.94662 34.6872 2.00137 34.7527 2.06829 34.8173C2.1352 34.8819 2.18995 34.9463 2.18995 34.9605C2.18995 34.9943 3.08195 35.8782 3.11601 35.8782C3.13037 35.8782 3.19541 35.9324 3.2606 35.9987C3.32578 36.065 3.39185 36.1193 3.40742 36.1193C3.42299 36.1193 3.46643 36.1518 3.50392 36.1916C3.54142 36.2314 3.58522 36.264 3.60126 36.264C3.61729 36.264 3.66109 36.2965 3.69859 36.3363C3.73608 36.3761 3.78429 36.4086 3.80568 36.4086C3.82709 36.4086 3.84458 36.4195 3.84458 36.4327C3.84458 36.446 3.86208 36.4569 3.88349 36.4569C3.90488 36.4569 3.95308 36.4894 3.99058 36.5292C4.02808 36.569 4.07628 36.6015 4.09767 36.6015C4.11908 36.6015 4.13658 36.6124 4.13658 36.6256C4.13658 36.6389 4.15607 36.6497 4.17987 36.6497C4.20369 36.6497 4.23895 36.6714 4.25824 36.698C4.27754 36.7245 4.3128 36.7462 4.33662 36.7462C4.36042 36.7462 4.37991 36.757 4.37991 36.7703C4.37991 36.7836 4.3994 36.7944 4.42319 36.7944C4.44702 36.7944 4.48227 36.8161 4.50157 36.8426C4.52087 36.8692 4.55612 36.8909 4.57995 36.8909C4.60374 36.8909 4.62323 36.9017 4.62323 36.915C4.62323 36.9282 4.64513 36.9391 4.6719 36.9391C4.69867 36.9391 4.72057 36.9499 4.72057 36.9632C4.72057 36.9765 4.74246 36.9873 4.76923 36.9873C4.796 36.9873 4.8179 36.9982 4.8179 37.0114C4.8179 37.0247 4.8398 37.0355 4.86656 37.0355C4.89333 37.0355 4.91523 37.0464 4.91523 37.0596C4.91523 37.0729 4.93713 37.0838 4.96389 37.0838C4.99066 37.0838 5.01256 37.0946 5.01256 37.1079C5.01256 37.1211 5.03446 37.132 5.06122 37.132C5.08799 37.132 5.10989 37.1428 5.10989 37.1561C5.10989 37.1694 5.13179 37.1802 5.15856 37.1802C5.18532 37.1802 5.20722 37.1911 5.20722 37.2043C5.20722 37.2176 5.24007 37.2284 5.28022 37.2284C5.32037 37.2284 5.35322 37.2393 5.35322 37.2525C5.35322 37.2658 5.37512 37.2766 5.40188 37.2766C5.42865 37.2766 5.45055 37.2875 5.45055 37.3008C5.45055 37.314 5.47245 37.3249 5.49922 37.3249C5.52598 37.3249 5.54788 37.3357 5.54788 37.349C5.54788 37.3622 5.58073 37.3731 5.62088 37.3731C5.66103 37.3731 5.69388 37.3839 5.69388 37.3972C5.69388 37.4105 5.71578 37.4213 5.74254 37.4213C5.76931 37.4213 5.79121 37.4322 5.79121 37.4454C5.79121 37.4587 5.81311 37.4695 5.83987 37.4695C5.86664 37.4695 5.88854 37.4804 5.88854 37.4937C5.88854 37.5069 5.92139 37.5178 5.96154 37.5178C6.00169 37.5178 6.03454 37.5286 6.03454 37.5419C6.03454 37.5551 6.07834 37.566 6.13187 37.566C6.1854 37.566 6.2292 37.5768 6.2292 37.5901C6.2292 37.6034 6.26205 37.6142 6.3022 37.6142C6.34235 37.6142 6.3752 37.6251 6.3752 37.6383C6.3752 37.6516 6.40805 37.6624 6.44819 37.6624C6.48834 37.6624 6.52119 37.6733 6.52119 37.6865C6.52119 37.6998 6.56499 37.7107 6.61852 37.7107C6.67206 37.7107 6.71586 37.7215 6.71586 37.7348C6.71586 37.748 6.75965 37.7589 6.81319 37.7589C6.86672 37.7589 6.91052 37.7697 6.91052 37.783C6.91052 37.7963 6.96527 37.8071 7.03218 37.8071C7.0991 37.8071 7.15385 37.818 7.15385 37.8312C7.15385 37.8446 7.21874 37.8553 7.29984 37.8553C7.38094 37.8553 7.44584 37.866 7.44584 37.8794C7.44584 37.8935 7.52694 37.9036 7.6405 37.9036C7.75406 37.9036 7.83517 37.9136 7.83517 37.9277C7.83517 37.9417 7.91627 37.9518 8.02983 37.9518C8.14339 37.9518 8.22449 37.9618 8.22449 37.9759C8.22449 37.9919 9.31136 38 11.4364 38C13.5615 38 14.6484 37.9919 14.6484 37.9759C14.6484 37.9612 14.7619 37.9518 14.9403 37.9518C15.1188 37.9518 15.2323 37.9424 15.2323 37.9277C15.2323 37.9143 15.2972 37.9036 15.3783 37.9036C15.4594 37.9036 15.5243 37.8928 15.5243 37.8794C15.5243 37.866 15.5892 37.8553 15.6703 37.8553C15.7514 37.8553 15.8163 37.8446 15.8163 37.8312C15.8163 37.818 15.8601 37.8071 15.9137 37.8071C15.9672 37.8071 16.011 37.7963 16.011 37.783C16.011 37.7697 16.0548 37.7589 16.1083 37.7589C16.1619 37.7589 16.2057 37.748 16.2057 37.7348C16.2057 37.7215 16.2495 37.7107 16.303 37.7107C16.3565 37.7107 16.4003 37.6998 16.4003 37.6865C16.4003 37.6733 16.4332 37.6624 16.4733 37.6624C16.5135 37.6624 16.5463 37.6516 16.5463 37.6383C16.5463 37.6251 16.5792 37.6142 16.6193 37.6142C16.6595 37.6142 16.6923 37.6034 16.6923 37.5901C16.6923 37.5768 16.7252 37.566 16.7653 37.566C16.8055 37.566 16.8383 37.5551 16.8383 37.5419C16.8383 37.5286 16.8602 37.5178 16.887 37.5178C16.9137 37.5178 16.9356 37.5069 16.9356 37.4937C16.9356 37.4804 16.9685 37.4695 17.0086 37.4695C17.0488 37.4695 17.0816 37.4587 17.0816 37.4454C17.0816 37.4322 17.1145 37.4213 17.1546 37.4213C17.1948 37.4213 17.2276 37.4105 17.2276 37.3972C17.2276 37.3839 17.2495 37.3731 17.2763 37.3731C17.3031 37.3731 17.325 37.3622 17.325 37.349C17.325 37.3357 17.3469 37.3249 17.3736 37.3249C17.4004 37.3249 17.4223 37.314 17.4223 37.3008C17.4223 37.2875 17.4551 37.2766 17.4953 37.2766C17.5354 37.2766 17.5683 37.2658 17.5683 37.2525C17.5683 37.2393 17.5902 37.2284 17.617 37.2284C17.6437 37.2284 17.6656 37.2176 17.6656 37.2043C17.6656 37.1911 17.6875 37.1802 17.7143 37.1802C17.7411 37.1802 17.763 37.1694 17.763 37.1561C17.763 37.1428 17.7849 37.132 17.8116 37.132C17.8384 37.132 17.8603 37.1211 17.8603 37.1079C17.8603 37.0946 17.8822 37.0838 17.9089 37.0838C17.9357 37.0838 17.9576 37.0729 17.9576 37.0596C17.9576 37.0464 17.9771 37.0355 18.0009 37.0355C18.0247 37.0355 18.06 37.0138 18.0793 36.9873C18.0986 36.9608 18.1338 36.9391 18.1577 36.9391C18.1814 36.9391 18.2009 36.9282 18.2009 36.915C18.2009 36.9017 18.2204 36.8909 18.2442 36.8909C18.2681 36.8909 18.3033 36.8692 18.3226 36.8426C18.3419 36.8161 18.3772 36.7944 18.401 36.7944C18.4248 36.7944 18.4443 36.7836 18.4443 36.7703C18.4443 36.757 18.4638 36.7462 18.4876 36.7462C18.5114 36.7462 18.5466 36.7245 18.5659 36.698C18.5852 36.6714 18.6161 36.6497 18.6346 36.6497C18.653 36.6497 18.6988 36.6172 18.7363 36.5774C18.7738 36.5376 18.8173 36.5051 18.8331 36.5051C18.8489 36.5051 18.9038 36.4617 18.9553 36.4086C19.0067 36.3556 19.0614 36.3122 19.0769 36.3122C19.0924 36.3122 19.1471 36.2688 19.1986 36.2157C19.25 36.1627 19.304 36.1193 19.3185 36.1193C19.3518 36.1193 20.2936 35.1879 20.2936 35.1549C20.2936 35.1154 24.6456 30.8147 24.6856 30.8147C24.7057 30.8147 24.7221 30.7983 24.7221 30.7782C24.7221 30.7375 25.1205 30.3325 25.1606 30.3325C25.2001 30.3325 25.3548 30.1699 25.3548 30.1283C25.3548 30.1075 25.376 30.0914 25.4035 30.0914C25.431 30.0914 25.4521 30.0753 25.4521 30.0544C25.4521 30.0121 25.6072 29.8503 25.6477 29.8503C25.6829 29.8503 25.7441 29.789 25.7441 29.7538C25.7441 29.7188 25.8053 29.6574 25.8402 29.6574C25.8809 29.6574 26.1334 29.3982 26.1334 29.3565C26.1334 29.3359 26.1548 29.3198 26.1821 29.3198C26.2096 29.3198 26.2308 29.3037 26.2308 29.2828C26.2308 29.2405 26.3858 29.0787 26.4264 29.0787C26.4658 29.0787 26.5228 29.0156 26.5228 28.9719C26.5228 28.9511 26.5394 28.934 26.5597 28.934C26.6078 28.934 26.9121 28.6325 26.9121 28.5849C26.9121 28.5647 26.9293 28.5482 26.9503 28.5482C26.9995 28.5482 27.0581 28.4902 27.0581 28.4414C27.0581 28.4206 27.0746 28.4036 27.0949 28.4036C27.115 28.4036 27.2574 28.2789 27.4112 28.1265C27.5649 27.9741 27.6907 27.8331 27.6907 27.8131C27.6907 27.7927 27.7122 27.7766 27.7394 27.7766C27.7718 27.7766 27.7881 27.7606 27.7881 27.7284C27.7881 27.7016 27.8043 27.6802 27.8246 27.6802C27.8661 27.6802 30.3187 25.2594 30.3187 25.2185C30.3187 25.2039 30.3515 25.1615 30.3917 25.1244C30.4318 25.0872 30.4647 25.0418 30.4647 25.0236C30.4647 25.0053 30.4866 24.9747 30.5133 24.9556C30.5401 24.9365 30.562 24.9015 30.562 24.8779C30.562 24.8543 30.573 24.835 30.5863 24.835C30.5997 24.835 30.6107 24.8157 30.6107 24.7921C30.6107 24.7685 30.6326 24.7336 30.6593 24.7145C30.6861 24.6953 30.708 24.6604 30.708 24.6368C30.708 24.6132 30.719 24.5939 30.7323 24.5939C30.7457 24.5939 30.7567 24.5722 30.7567 24.5457C30.7567 24.5192 30.7676 24.4975 30.781 24.4975C30.7944 24.4975 30.8053 24.4649 30.8053 24.4251C30.8053 24.3853 30.8163 24.3528 30.8297 24.3528C30.8431 24.3528 30.854 24.3202 30.854 24.2805C30.854 24.2407 30.865 24.2081 30.8783 24.2081C30.8917 24.2081 30.9027 24.1647 30.9027 24.1117C30.9027 24.0586 30.9136 24.0152 30.927 24.0152C30.9404 24.0152 30.9513 23.961 30.9513 23.8947C30.9513 23.8284 30.9623 23.7741 30.9757 23.7741C30.9909 23.7741 31 23.6214 31 23.3642C31 23.107 30.9909 22.9543 30.9757 22.9543C30.9623 22.9543 30.9513 22.9109 30.9513 22.8579C30.9513 22.8048 30.9404 22.7614 30.927 22.7614C30.9136 22.7614 30.9027 22.718 30.9027 22.665C30.9027 22.6119 30.8917 22.5685 30.8783 22.5685C30.865 22.5685 30.854 22.536 30.854 22.4962C30.854 22.4564 30.8431 22.4239 30.8297 22.4239C30.8163 22.4239 30.8053 22.3913 30.8053 22.3515C30.8053 22.3117 30.7944 22.2792 30.781 22.2792C30.7676 22.2792 30.7567 22.2575 30.7567 22.231C30.7567 22.2044 30.7457 22.1827 30.7323 22.1827C30.719 22.1827 30.708 22.161 30.708 22.1345C30.708 22.108 30.6971 22.0863 30.6837 22.0863C30.6703 22.0863 30.6593 22.0646 30.6593 22.0381C30.6593 22.0115 30.6484 21.9898 30.635 21.9898C30.6216 21.9898 30.6107 21.9705 30.6107 21.947C30.6107 21.9233 30.5888 21.8884 30.562 21.8693C30.5352 21.8502 30.5133 21.8176 30.5133 21.797C30.5133 21.7763 30.4914 21.7437 30.4647 21.7246C30.4379 21.7055 30.416 21.6706 30.416 21.647C30.416 21.6201 30.3978 21.6041 30.3673 21.6041C30.3401 21.6041 30.3187 21.588 30.3187 21.5676C30.3187 21.5201 29.8194 21.0254 29.7715 21.0254C29.7512 21.0254 29.7347 21.0145 29.7347 21.0013C29.7347 20.988 29.7152 20.9772 29.6914 20.9772C29.6676 20.9772 29.6323 20.9555 29.613 20.9289C29.5937 20.9024 29.5609 20.8807 29.54 20.8807C29.5192 20.8807 29.4863 20.859 29.467 20.8325C29.4477 20.806 29.4125 20.7843 29.3887 20.7843C29.3649 20.7843 29.3454 20.7734 29.3454 20.7602C29.3454 20.7469 29.3235 20.736 29.2967 20.736C29.2699 20.736 29.248 20.7252 29.248 20.7119C29.248 20.6987 29.2261 20.6878 29.1994 20.6878C29.1726 20.6878 29.1507 20.677 29.1507 20.6637C29.1507 20.6504 29.1179 20.6396 29.0777 20.6396C29.0376 20.6396 29.0047 20.6287 29.0047 20.6155C29.0047 20.6022 28.9719 20.5914 28.9317 20.5914C28.8916 20.5914 28.8587 20.5805 28.8587 20.5673C28.8587 20.554 28.8149 20.5431 28.7614 20.5431C28.7078 20.5431 28.6641 20.5323 28.6641 20.519C28.6641 20.5058 28.6093 20.4949 28.5424 20.4949C28.4755 20.4949 28.4207 20.4841 28.4207 20.4708C28.4207 20.4558 28.2828 20.4467 28.0557 20.4467C27.8286 20.4467 27.6907 20.4558 27.6907 20.4708C27.6907 20.4842 27.6258 20.4949 27.5447 20.4949C27.4636 20.4949 27.3987 20.5056 27.3987 20.519C27.3987 20.5323 27.3549 20.5431 27.3014 20.5431C27.2479 20.5431 27.2041 20.554 27.2041 20.5673C27.2041 20.5805 27.1712 20.5914 27.1311 20.5914C27.0909 20.5914 27.0581 20.6022 27.0581 20.6155C27.0581 20.6287 27.0362 20.6396 27.0094 20.6396C26.9827 20.6396 26.9608 20.6504 26.9608 20.6637C26.9608 20.677 26.9389 20.6878 26.9121 20.6878C26.8853 20.6878 26.8634 20.6987 26.8634 20.7119C26.8634 20.7252 26.8415 20.736 26.8148 20.736C26.788 20.736 26.7661 20.7469 26.7661 20.7602C26.7661 20.7734 26.7442 20.7843 26.7174 20.7843C26.6907 20.7843 26.6688 20.7951 26.6688 20.8084C26.6688 20.8216 26.6493 20.8325 26.6255 20.8325C26.6016 20.8325 26.5664 20.8542 26.5471 20.8807C26.5278 20.9072 26.4925 20.9289 26.4687 20.9289C26.4449 20.9289 26.4254 20.9398 26.4254 20.953C26.4254 20.9663 26.4083 20.9772 26.3874 20.9772C26.3664 20.9772 26.296 21.0314 26.2308 21.0977C26.1656 21.164 26.0998 21.2183 26.0846 21.2183C26.0445 21.2183 25.9874 21.281 25.9874 21.3251C25.9874 21.3459 25.9708 21.3629 25.9504 21.3629C25.9022 21.3629 25.6468 21.6161 25.6468 21.6638C25.6468 21.684 25.6301 21.7005 25.6096 21.7005C25.5613 21.7005 25.3548 21.9052 25.3548 21.9531C25.3548 21.9733 25.3382 21.9898 25.3178 21.9898C25.2697 21.9898 24.9655 22.2913 24.9655 22.339C24.9655 22.3592 24.9488 22.3756 24.9285 22.3756C24.8804 22.3756 24.5761 22.6771 24.5761 22.7248C24.5761 22.745 24.5589 22.7614 24.5379 22.7614C24.4887 22.7614 24.4301 22.8195 24.4301 22.8682C24.4301 22.889 24.4134 22.9061 24.3928 22.9061C24.3444 22.9061 24.1868 23.0622 24.1868 23.1102C24.1868 23.1306 24.1696 23.1472 24.1486 23.1472C24.0994 23.1472 24.0408 23.2053 24.0408 23.254C24.0408 23.2748 24.024 23.2919 24.0035 23.2919C23.9551 23.2919 23.7975 23.448 23.7975 23.496C23.7975 23.5164 23.781 23.533 23.7608 23.533C23.7129 23.533 23.0188 24.2207 23.0188 24.2682C23.0188 24.2882 23.0016 24.3046 22.9806 24.3046C22.9314 24.3046 22.8728 24.3626 22.8728 24.4114C22.8728 24.4322 22.8563 24.4492 22.8361 24.4492C22.7881 24.4492 22.2402 24.9922 22.2402 25.0397C22.2402 25.0601 22.2187 25.0761 22.1915 25.0761C22.1429 25.0761 22.1429 25.0601 22.1429 14.9492C22.1429 8.21405 22.1347 4.82234 22.1185 4.82234C22.1051 4.82234 22.0942 4.76808 22.0942 4.70178C22.0942 4.63547 22.0832 4.58122 22.0699 4.58122C22.0565 4.58122 22.0455 4.54867 22.0455 4.50888C22.0455 4.4691 22.0346 4.43655 22.0212 4.43655C22.0078 4.43655 21.9969 4.404 21.9969 4.36421C21.9969 4.32443 21.9859 4.29188 21.9725 4.29188C21.9591 4.29188 21.9482 4.27018 21.9482 4.24365C21.9482 4.21713 21.9372 4.19543 21.9239 4.19543C21.9105 4.19543 21.8995 4.17373 21.8995 4.14721C21.8995 4.12069 21.8886 4.09898 21.8752 4.09898C21.8618 4.09898 21.8509 4.07967 21.8509 4.05609C21.8509 4.03248 21.829 3.99755 21.8022 3.97843C21.7754 3.95931 21.7535 3.92895 21.7535 3.91094C21.7535 3.89293 21.7097 3.83651 21.6562 3.78553C21.6027 3.73456 21.5589 3.68089 21.5589 3.66623C21.5589 3.63127 21.3491 3.42386 21.3138 3.42386C21.2987 3.42386 21.2557 3.39131 21.2182 3.35152C21.1807 3.31174 21.1325 3.27919 21.1111 3.27919C21.0897 3.27919 21.0722 3.26834 21.0722 3.25508C21.0722 3.24181 21.0527 3.23096 21.0289 3.23096C21.0051 3.23096 20.9698 3.20926 20.9506 3.18274C20.9299 3.15443 20.8876 3.13452 20.8478 3.13452C20.8107 3.13452 20.7802 3.12367 20.7802 3.11041C20.7802 3.09714 20.7583 3.08629 20.7316 3.08629C20.7048 3.08629 20.6829 3.07544 20.6829 3.06218C20.6829 3.04892 20.65 3.03807 20.6099 3.03807C20.5697 3.03807 20.5369 3.02722 20.5369 3.01396C20.5369 3.0007 20.4931 2.98985 20.4396 2.98985C20.386 2.98985 20.3422 2.979 20.3422 2.96574C20.3422 2.9517 20.2618 2.94162 20.1496 2.94162C20.0193 2.94162 19.9524 2.93188 19.9428 2.91148C19.9314 2.88737 19.9257 2.88737 19.9144 2.91148C19.9048 2.93188 19.8379 2.94162 19.7076 2.94162C19.5954 2.94162 19.5149 2.9517 19.5149 2.96574C19.5149 2.979 19.4711 2.98985 19.4176 2.98985C19.364 2.98985 19.3203 3.0007 19.3203 3.01396C19.3203 3.02722 19.2874 3.03807 19.2473 3.03807C19.2071 3.03807 19.1743 3.04892 19.1743 3.06218C19.1743 3.07544 19.1524 3.08629 19.1256 3.08629C19.0988 3.08629 19.0769 3.09714 19.0769 3.11041C19.0769 3.12367 19.055 3.13452 19.0283 3.13452C19.0015 3.13452 18.9796 3.14537 18.9796 3.15863C18.9796 3.17189 18.9577 3.18274 18.9309 3.18274C18.9042 3.18274 18.8823 3.19359 18.8823 3.20685C18.8823 3.22011 18.8628 3.23096 18.839 3.23096C18.8151 3.23096 18.7799 3.25267 18.7606 3.27919C18.7413 3.30571 18.7104 3.32741 18.692 3.32741C18.6736 3.32741 18.6278 3.35996 18.5903 3.39975C18.5528 3.43953 18.5096 3.47208 18.4942 3.47208C18.4585 3.47208 18.3469 3.58205 18.3469 3.61721C18.3469 3.63194 18.2922 3.69683 18.2253 3.76142C18.1584 3.82602 18.1036 3.89343 18.1036 3.91125C18.1036 3.92909 18.0817 3.95931 18.0549 3.97843C18.0282 3.99755 18.0063 4.03248 18.0063 4.05609C18.0063 4.07967 17.9953 4.09898 17.9819 4.09898C17.9686 4.09898 17.9576 4.12069 17.9576 4.14721C17.9576 4.17373 17.9467 4.19543 17.9333 4.19543C17.9199 4.19543 17.9089 4.22798 17.9089 4.26777C17.9089 4.30755 17.898 4.3401 17.8846 4.3401C17.8712 4.3401 17.8603 4.3618 17.8603 4.38832C17.8603 4.41485 17.8493 4.43655 17.8359 4.43655C17.8226 4.43655 17.8116 4.47995 17.8116 4.53299C17.8116 4.58604 17.8007 4.62944 17.7873 4.62944C17.7739 4.62944 17.763 4.68369 17.763 4.75C17.763 4.81631 17.752 4.87056 17.7386 4.87056C17.7225 4.87056 17.7143 6.55035 17.7143 9.86168C17.7143 13.173 17.7061 14.8528 17.69 14.8528C17.6766 14.8528 17.6656 14.8745 17.6656 14.901C17.6656 14.9275 17.6547 14.9492 17.6413 14.9492C17.6279 14.9492 17.617 14.9709 17.617 14.9975C17.617 15.024 17.606 15.0457 17.5926 15.0457C17.5792 15.0457 17.5683 15.0674 17.5683 15.0939C17.5683 15.1241 17.5521 15.1421 17.525 15.1421C17.5012 15.1421 17.4659 15.1638 17.4466 15.1904C17.4273 15.2169 17.3921 15.2386 17.3682 15.2386C17.3445 15.2386 17.325 15.2494 17.325 15.2627C17.325 15.276 17.3031 15.2868 17.2763 15.2868C17.2495 15.2868 17.2276 15.2977 17.2276 15.3109C17.2276 15.3254 17.1303 15.335 16.9843 15.335C16.8383 15.335 16.741 15.3254 16.741 15.3109C16.741 15.2977 16.7191 15.2868 16.6923 15.2868C16.6655 15.2868 16.6436 15.276 16.6436 15.2627C16.6436 15.2494 16.6242 15.2386 16.6004 15.2386C16.5765 15.2386 16.5413 15.2169 16.522 15.1904C16.5027 15.1638 16.4674 15.1421 16.4436 15.1421C16.4165 15.1421 16.4003 15.1241 16.4003 15.0939C16.4003 15.0674 16.3894 15.0457 16.376 15.0457C16.3626 15.0457 16.3516 15.024 16.3516 14.9975C16.3516 14.9709 16.3407 14.9492 16.3273 14.9492C16.3139 14.9492 16.303 14.9275 16.303 14.901C16.303 14.8745 16.292 14.8528 16.2787 14.8528C16.2625 14.8528 16.2543 12.6827 16.2543 8.39086C16.2543 4.09898 16.2461 1.92893 16.23 1.92893C16.2166 1.92893 16.2057 1.87468 16.2057 1.80838C16.2057 1.74207 16.1947 1.68782 16.1813 1.68782C16.1679 1.68782 16.157 1.65527 16.157 1.61548C16.157 1.5757 16.146 1.54315 16.1327 1.54315C16.1193 1.54315 16.1083 1.5106 16.1083 1.47081C16.1083 1.43103 16.0974 1.39848 16.084 1.39848C16.0706 1.39848 16.0597 1.37678 16.0597 1.35025C16.0597 1.32373 16.0487 1.30203 16.0353 1.30203C16.0219 1.30203 16.011 1.28033 16.011 1.25381C16.011 1.22728 16 1.20558 15.9867 1.20558C15.9733 1.20558 15.9623 1.18627 15.9623 1.16269C15.9623 1.13908 15.9404 1.10415 15.9137 1.08503C15.8869 1.0659 15.865 1.03097 15.865 1.00736C15.865 0.98378 15.854 0.964467 15.8407 0.964467C15.8273 0.964467 15.8163 0.948047 15.8163 0.927986C15.8163 0.883645 15.3674 0.43401 15.3232 0.43401C15.3059 0.43401 15.276 0.41231 15.2567 0.385787C15.2374 0.359264 15.2021 0.337563 15.1783 0.337563C15.1545 0.337563 15.135 0.326713 15.135 0.313452C15.135 0.30019 15.1131 0.28934 15.0863 0.28934C15.0596 0.28934 15.0377 0.27849 15.0377 0.265228C15.0377 0.251967 15.0158 0.241117 14.989 0.241117C14.9622 0.241117 14.9403 0.230266 14.9403 0.217005C14.9403 0.203744 14.9184 0.192893 14.8917 0.192893C14.8649 0.192893 14.843 0.182043 14.843 0.168782C14.843 0.15552 14.8211 0.14467 14.7943 0.14467C14.7676 0.14467 14.7457 0.13382 14.7457 0.120558C14.7457 0.107297 14.7128 0.0964467 14.6727 0.0964467C14.6325 0.0964467 14.5997 0.0855964 14.5997 0.072335C14.5997 0.0590736 14.5449 0.0482234 14.478 0.0482234C14.4111 0.0482234 14.3564 0.0373731 14.3564 0.0241117C14.3564 0.009283 14.2347 0 14.04 0C13.8454 0 13.7237 0.009283 13.7237 0.0241117ZM9.95212 22.4239C10.7817 23.2461 11.472 23.9188 11.486 23.9188C11.5196 23.9188 11.6311 24.0297 11.6311 24.0632C11.6311 24.0775 11.67 24.1278 11.7176 24.1749L11.8041 24.2606L11.8482 24.2103C11.8724 24.1826 11.9102 24.1599 11.932 24.1599C11.9555 24.1599 11.9717 24.1402 11.9717 24.1117C11.9717 24.0839 11.988 24.0635 12.01 24.0635C12.031 24.0635 12.0639 24.0479 12.083 24.029C12.1021 24.0101 12.1177 23.9775 12.1177 23.9567C12.1177 23.9349 12.1384 23.9188 12.1664 23.9188C12.1944 23.9188 12.2151 23.9027 12.2151 23.8809C12.2151 23.8372 12.272 23.7741 12.3115 23.7741C12.352 23.7741 12.5071 23.6123 12.5071 23.57C12.5071 23.5496 12.5236 23.533 12.5439 23.533C12.5919 23.533 12.9937 23.1349 12.9937 23.0873C12.9937 23.0672 13.0102 23.0508 13.0304 23.0508C13.0506 23.0508 13.5487 22.5734 14.1374 21.9898C14.726 21.4063 15.2187 20.9289 15.2322 20.9289C15.2457 20.9289 15.7003 21.3683 16.2422 21.9054C16.9065 22.5637 17.2276 22.8981 17.2276 22.9318C17.2276 22.9911 17.1736 23.0508 17.1199 23.0508C17.0979 23.0508 17.0816 23.0712 17.0816 23.099C17.0816 23.1268 17.0654 23.1472 17.0434 23.1472C16.9942 23.1472 16.9356 23.2053 16.9356 23.254C16.9356 23.2758 16.915 23.2919 16.887 23.2919C16.8598 23.2919 16.8383 23.308 16.8383 23.3282C16.8383 23.3482 16.3018 23.8961 15.646 24.5457C14.9902 25.1953 14.4537 25.7385 14.4537 25.7528C14.4537 25.7865 14.3918 25.8477 14.3577 25.8477C14.3079 25.8477 13.9184 26.2551 13.9184 26.3072C13.9184 26.3667 13.9723 26.4264 14.0261 26.4264C14.0472 26.4264 14.0644 26.4429 14.0644 26.4631C14.0644 26.5048 14.3169 26.764 14.3576 26.764C14.3968 26.764 14.4537 26.8272 14.4537 26.8707C14.4537 26.8925 14.4743 26.9086 14.5024 26.9086C14.5295 26.9086 14.551 26.9247 14.551 26.945C14.551 26.965 15.0657 27.4911 15.6947 28.1142C16.3237 28.7373 16.8383 29.2634 16.8383 29.2834C16.8383 29.3034 16.855 29.3198 16.8753 29.3198C16.9235 29.3198 17.179 29.5729 17.179 29.6207C17.179 29.6408 17.1899 29.6574 17.2033 29.6574C17.2167 29.6574 17.2276 29.6737 17.2276 29.6936C17.2276 29.7333 15.2721 31.6827 15.2323 31.6827C15.2187 31.6827 14.5837 31.0643 13.821 30.3084C13.0584 29.5525 12.4179 28.934 12.3977 28.934C12.3776 28.934 12.3611 28.9175 12.3611 28.8974C12.3611 28.8497 12.0568 28.5482 12.0087 28.5482C11.9884 28.5482 11.9717 28.5315 11.9717 28.511C11.9717 28.4688 11.8658 28.3553 11.8265 28.3553C11.7925 28.3553 11.3391 28.8053 11.3391 28.839C11.3391 28.8728 11.2772 28.934 11.243 28.934C11.2024 28.934 10.9011 29.2416 10.9011 29.2832C10.9011 29.3033 10.8846 29.3198 10.8644 29.3198C10.8442 29.3198 10.2914 29.8515 9.63579 30.5013C8.98022 31.1511 8.43278 31.6827 8.41925 31.6827C8.40575 31.6827 7.95123 31.2433 7.40927 30.7063C6.76528 30.0682 6.42386 29.7131 6.42386 29.6814C6.42386 29.6495 6.86555 29.1954 7.7135 28.3553C8.4228 27.6527 9.00314 27.0614 9.00314 27.0414C9.00314 27.0214 9.01986 27.0051 9.04027 27.0051C9.08205 27.0051 9.29513 26.8033 9.29513 26.7638C9.29513 26.7244 9.45909 26.5711 9.50116 26.5711C9.52223 26.5711 9.53846 26.5501 9.53846 26.5228C9.53846 26.4907 9.55469 26.4746 9.58713 26.4746C9.61956 26.4746 9.63579 26.4585 9.63579 26.4264C9.63579 26.3943 9.65202 26.3782 9.68446 26.3782C9.72232 26.3782 9.73312 26.3621 9.73312 26.3058C9.73312 26.2496 9.72232 26.2335 9.68446 26.2335C9.65679 26.2335 9.63579 26.2174 9.63579 26.1962C9.63579 26.1533 9.52958 26.0406 9.48916 26.0406C9.45451 26.0406 9.39246 25.9797 9.39246 25.9457C9.39246 25.9315 8.72453 25.258 7.90816 24.4492C6.93028 23.4804 6.42386 22.9622 6.42386 22.9303C6.42386 22.8781 8.35771 20.9345 8.41321 20.9309C8.43003 20.9298 9.12254 21.6017 9.95212 22.4239Z"/>
</mask>
<path fill-rule="evenodd" clip-rule="evenodd" d="M13.7237 0.0241117C13.7237 0.0373731 13.669 0.0482234 13.602 0.0482234C13.5351 0.0482234 13.4804 0.0590736 13.4804 0.072335C13.4804 0.0855964 13.4475 0.0964467 13.4074 0.0964467C13.3672 0.0964467 13.3344 0.107297 13.3344 0.120558C13.3344 0.13382 13.3125 0.14467 13.2857 0.14467C13.2589 0.14467 13.237 0.15552 13.237 0.168782C13.237 0.182043 13.2042 0.192893 13.1641 0.192893C13.1239 0.192893 13.0911 0.203744 13.0911 0.217005C13.0911 0.230266 13.0692 0.241117 13.0424 0.241117C13.0156 0.241117 12.9937 0.251967 12.9937 0.265228C12.9937 0.27849 12.9742 0.28934 12.9504 0.28934C12.9266 0.28934 12.8914 0.311041 12.8721 0.337563C12.8528 0.364086 12.8229 0.385787 12.8056 0.385787C12.7673 0.385787 12.2637 0.880727 12.2637 0.918341C12.2637 0.933074 12.2309 0.975534 12.1907 1.01269C12.1506 1.04985 12.1177 1.09761 12.1177 1.11881C12.1177 1.14002 12.1068 1.15736 12.0934 1.15736C12.08 1.15736 12.0691 1.17906 12.0691 1.20558C12.0691 1.23211 12.0581 1.25381 12.0447 1.25381C12.0314 1.25381 12.0204 1.27551 12.0204 1.30203C12.0204 1.32855 12.0095 1.35025 11.9961 1.35025C11.9827 1.35025 11.9717 1.3828 11.9717 1.42259C11.9717 1.46237 11.9608 1.49492 11.9474 1.49492C11.934 1.49492 11.9231 1.52747 11.9231 1.56726C11.9231 1.60704 11.9121 1.63959 11.8987 1.63959C11.8854 1.63959 11.8744 1.69385 11.8744 1.76015C11.8744 1.82646 11.8635 1.88071 11.8501 1.88071C11.8339 1.88071 11.8257 4.05076 11.8257 8.34264C11.8257 12.6345 11.8176 14.8046 11.8014 14.8046C11.788 14.8046 11.7771 14.8371 11.7771 14.8769C11.7771 14.9167 11.7661 14.9492 11.7527 14.9492C11.7394 14.9492 11.7284 14.9658 11.7284 14.986C11.7284 15.0339 11.5219 15.2386 11.4736 15.2386C11.4531 15.2386 11.4364 15.2494 11.4364 15.2627C11.4364 15.276 11.4145 15.2868 11.3878 15.2868C11.361 15.2868 11.3391 15.2977 11.3391 15.3109C11.3391 15.3254 11.2418 15.335 11.0958 15.335C10.9498 15.335 10.8524 15.3254 10.8524 15.3109C10.8524 15.2977 10.822 15.2868 10.7848 15.2868C10.7451 15.2868 10.7027 15.2669 10.6821 15.2386C10.6628 15.2121 10.6322 15.1904 10.6142 15.1904C10.5718 15.1904 10.5118 15.1309 10.5118 15.0889C10.5118 15.071 10.4899 15.0407 10.4631 15.0216C10.4363 15.0025 10.4144 14.9675 10.4144 14.9439C10.4144 14.9203 10.4035 14.901 10.3901 14.901C10.374 14.901 10.3658 12.9962 10.3658 9.23477C10.3658 5.47335 10.3576 3.56853 10.3414 3.56853C10.3273 3.56853 10.3171 3.48816 10.3171 3.37563C10.3171 3.26311 10.307 3.18274 10.2928 3.18274C10.2794 3.18274 10.2684 3.15019 10.2684 3.11041C10.2684 3.07062 10.2575 3.03807 10.2441 3.03807C10.2307 3.03807 10.2198 3.00552 10.2198 2.96574C10.2198 2.92595 10.2088 2.8934 10.1954 2.8934C10.1821 2.8934 10.1711 2.86324 10.1711 2.82639C10.1711 2.78704 10.151 2.74504 10.1224 2.72462C10.0957 2.7055 10.0738 2.67056 10.0738 2.64696C10.0738 2.62337 10.0628 2.60406 10.0495 2.60406C10.0361 2.60406 10.0251 2.58475 10.0251 2.56117C10.0251 2.53756 10.0032 2.50262 9.97645 2.4835C9.94969 2.46438 9.92779 2.43378 9.92779 2.41551C9.92779 2.39726 9.89494 2.35188 9.85479 2.31472C9.81464 2.27756 9.78179 2.23494 9.78179 2.22001C9.78179 2.18471 9.57233 1.97716 9.53671 1.97716C9.52165 1.97716 9.47863 1.94461 9.44113 1.90482C9.40363 1.86504 9.35543 1.83249 9.33404 1.83249C9.31263 1.83249 9.29513 1.82164 9.29513 1.80838C9.29513 1.79511 9.27564 1.78426 9.25185 1.78426C9.22802 1.78426 9.19277 1.76256 9.17347 1.73604C9.15286 1.70773 9.11047 1.68782 9.07076 1.68782C9.03358 1.68782 9.00314 1.67697 9.00314 1.66371C9.00314 1.65044 8.98124 1.63959 8.95447 1.63959C8.92771 1.63959 8.90581 1.62874 8.90581 1.61548C8.90581 1.60222 8.88391 1.59137 8.85714 1.59137C8.83038 1.59137 8.80848 1.58052 8.80848 1.56726C8.80848 1.554 8.76468 1.54315 8.71115 1.54315C8.65761 1.54315 8.61381 1.5323 8.61381 1.51904C8.61381 1.50577 8.55907 1.49492 8.49215 1.49492C8.42524 1.49492 8.37049 1.48407 8.37049 1.47081C8.37049 1.45651 8.28126 1.4467 8.15149 1.4467C8.02172 1.4467 7.9325 1.45651 7.9325 1.47081C7.9325 1.48422 7.8676 1.49492 7.7865 1.49492C7.7054 1.49492 7.6405 1.50563 7.6405 1.51904C7.6405 1.5323 7.60765 1.54315 7.5675 1.54315C7.52735 1.54315 7.49451 1.554 7.49451 1.56726C7.49451 1.58052 7.46166 1.59137 7.42151 1.59137C7.38136 1.59137 7.34851 1.60222 7.34851 1.61548C7.34851 1.62874 7.32661 1.63959 7.29984 1.63959C7.27308 1.63959 7.25118 1.65044 7.25118 1.66371C7.25118 1.67697 7.22928 1.68782 7.20251 1.68782C7.17575 1.68782 7.15385 1.69867 7.15385 1.71193C7.15385 1.72519 7.13195 1.73604 7.10518 1.73604C7.07841 1.73604 7.05651 1.74689 7.05651 1.76015C7.05651 1.77341 7.03702 1.78426 7.01323 1.78426C6.98941 1.78426 6.95415 1.80596 6.93485 1.83249C6.91556 1.85901 6.88565 1.88071 6.86837 1.88071C6.82737 1.88071 6.32653 2.377 6.32653 2.41763C6.32653 2.43475 6.30463 2.46438 6.27786 2.4835C6.2511 2.50262 6.2292 2.53756 6.2292 2.56117C6.2292 2.58475 6.21825 2.60406 6.20487 2.60406C6.19148 2.60406 6.18053 2.62576 6.18053 2.65228C6.18053 2.67881 6.16958 2.70051 6.1562 2.70051C6.14282 2.70051 6.13187 2.72221 6.13187 2.74873C6.13187 2.77525 6.12092 2.79695 6.10754 2.79695C6.09415 2.79695 6.0832 2.8295 6.0832 2.86929C6.0832 2.90907 6.07225 2.94162 6.05887 2.94162C6.04549 2.94162 6.03454 2.97418 6.03454 3.01396C6.03454 3.05374 6.02359 3.08629 6.0102 3.08629C5.99682 3.08629 5.98587 3.1297 5.98587 3.18274C5.98587 3.23579 5.97492 3.27919 5.96154 3.27919C5.94538 3.27919 5.93721 5.20812 5.93721 9.01777C5.93721 12.8274 5.92903 14.7563 5.91287 14.7563C5.89949 14.7563 5.88854 14.7997 5.88854 14.8528C5.88854 14.9058 5.87759 14.9492 5.86421 14.9492C5.85082 14.9492 5.83987 14.9658 5.83987 14.986C5.83987 15.0063 5.79089 15.0714 5.73101 15.1307C5.67115 15.19 5.60545 15.2386 5.58501 15.2386C5.5646 15.2386 5.54788 15.2494 5.54788 15.2627C5.54788 15.276 5.51503 15.2868 5.47488 15.2868C5.43473 15.2868 5.40188 15.2977 5.40188 15.3109C5.40188 15.3252 5.31266 15.335 5.18289 15.335C5.05312 15.335 4.96389 15.3252 4.96389 15.3109C4.96389 15.2977 4.93104 15.2868 4.89089 15.2868C4.85075 15.2868 4.8179 15.276 4.8179 15.2627C4.8179 15.2494 4.80118 15.2386 4.78076 15.2386C4.71801 15.2386 4.5259 15.03 4.5259 14.9619C4.5259 14.9284 4.51495 14.901 4.50157 14.901C4.48819 14.901 4.47724 14.8576 4.47724 14.8046C4.47724 14.7515 4.46629 14.7081 4.4529 14.7081C4.43689 14.7081 4.42857 14.0973 4.42857 12.9239C4.42857 11.7504 4.43689 11.1396 4.4529 11.1396C4.46629 11.1396 4.47724 11.1179 4.47724 11.0914C4.47724 11.0648 4.46629 11.0431 4.4529 11.0431C4.41779 11.0431 4.4229 10.9533 4.45899 10.9366C4.48332 10.9254 4.48332 10.9198 4.45899 10.9085C4.43543 10.8976 4.42857 10.688 4.42857 9.98023C4.42857 9.38682 4.42003 9.06599 4.40424 9.06599C4.39086 9.06599 4.37991 9.02259 4.37991 8.96954C4.37991 8.9165 4.36896 8.8731 4.35557 8.8731C4.34219 8.8731 4.33124 8.84055 4.33124 8.80076C4.33124 8.76098 4.32029 8.72843 4.30691 8.72843C4.29352 8.72843 4.28257 8.70673 4.28257 8.6802C4.28257 8.65368 4.27163 8.63198 4.25824 8.63198C4.24486 8.63198 4.23391 8.61028 4.23391 8.58376C4.23391 8.55723 4.22296 8.53553 4.20958 8.53553C4.19619 8.53553 4.18524 8.51622 4.18524 8.49264C4.18524 8.46903 4.16334 8.4341 4.13658 8.41497C4.10981 8.39585 4.08791 8.36526 4.08791 8.34698C4.08791 8.32873 4.05506 8.28335 4.01491 8.24619C3.97476 8.20904 3.94192 8.16655 3.94192 8.1518C3.94192 8.11097 3.53422 7.71574 3.4921 7.71574C3.47183 7.71574 3.45526 7.70489 3.45526 7.69162C3.45526 7.67836 3.43577 7.66751 3.41197 7.66751C3.38815 7.66751 3.35289 7.64581 3.3336 7.61929C3.3143 7.59277 3.27904 7.57107 3.25522 7.57107C3.23142 7.57107 3.21193 7.56022 3.21193 7.54695C3.21193 7.53369 3.19003 7.52284 3.16327 7.52284C3.1365 7.52284 3.1146 7.51199 3.1146 7.49873C3.1146 7.48547 3.08175 7.47462 3.0416 7.47462C3.00145 7.47462 2.9686 7.46377 2.9686 7.45051C2.9686 7.43725 2.9467 7.4264 2.91994 7.4264C2.89317 7.4264 2.87127 7.41555 2.87127 7.40228C2.87127 7.38902 2.82747 7.37817 2.77394 7.37817C2.72041 7.37817 2.67661 7.36732 2.67661 7.35406C2.67661 7.34029 2.60361 7.32995 2.50628 7.32995C2.40895 7.32995 2.33595 7.31961 2.33595 7.30584C2.33595 7.29258 2.3031 7.28173 2.26295 7.28173C2.2228 7.28173 2.18995 7.29258 2.18995 7.30584C2.18995 7.31989 2.10885 7.32995 1.99529 7.32995C1.88173 7.32995 1.80063 7.34 1.80063 7.35406C1.80063 7.36732 1.75683 7.37817 1.7033 7.37817C1.64976 7.37817 1.60597 7.38902 1.60597 7.40228C1.60597 7.41555 1.57312 7.4264 1.53297 7.4264C1.49282 7.4264 1.45997 7.43725 1.45997 7.45051C1.45997 7.46377 1.43807 7.47462 1.4113 7.47462C1.38454 7.47462 1.36264 7.48547 1.36264 7.49873C1.36264 7.51199 1.3322 7.52284 1.29502 7.52284C1.25531 7.52284 1.21292 7.54276 1.19231 7.57107C1.17301 7.59759 1.14016 7.61929 1.11931 7.61929C1.09846 7.61929 1.06561 7.64099 1.04631 7.66751C1.02701 7.69404 0.99711 7.71574 0.979834 7.71574C0.938833 7.71574 0.437991 8.21203 0.437991 8.25266C0.437991 8.26977 0.416091 8.29941 0.389325 8.31853C0.362559 8.33765 0.340659 8.3702 0.340659 8.39086C0.340659 8.41153 0.31876 8.44408 0.291994 8.4632C0.263427 8.48362 0.243328 8.52562 0.243328 8.56497C0.243328 8.60182 0.232378 8.63198 0.218995 8.63198C0.205612 8.63198 0.194662 8.66453 0.194662 8.70432C0.194662 8.7441 0.183713 8.77665 0.17033 8.77665C0.156947 8.77665 0.145997 8.79835 0.145997 8.82487C0.145997 8.8514 0.135047 8.8731 0.121664 8.8731C0.108281 8.8731 0.0973312 8.9165 0.0973312 8.96954C0.0973312 9.02259 0.0863815 9.06599 0.0729984 9.06599C0.0588124 9.06599 0.0486656 9.14635 0.0486656 9.25888C0.0486656 9.37141 0.0385188 9.45178 0.0243328 9.45178C0.0091978 9.45178 0 9.58842 0 9.81345C0 10.0385 0.0091978 10.1751 0.0243328 10.1751C0.0393948 10.1751 0.0486656 10.3037 0.0486656 10.5127C0.0486656 10.7217 0.0393948 10.8503 0.0243328 10.8503C0.0091978 10.8503 0 10.9869 0 11.2119C0 11.437 0.0091978 11.5736 0.0243328 11.5736C0.0394678 11.5736 0.0486656 11.7102 0.0486656 11.9353C0.0486656 12.1603 0.0394678 12.297 0.0243328 12.297C0.0091978 12.297 0 12.4336 0 12.6586C0 12.8837 0.0091978 13.0203 0.0243328 13.0203C0.0394678 13.0203 0.0486656 13.1569 0.0486656 13.382C0.0486656 13.607 0.0394678 13.7437 0.0243328 13.7437C0.0091978 13.7437 0 13.8803 0 14.1053C0 14.3304 0.0091978 14.467 0.0243328 14.467C0.0394678 14.467 0.0486656 14.6036 0.0486656 14.8287C0.0486656 15.0537 0.0394678 15.1904 0.0243328 15.1904C0.0091248 15.1904 0 15.335 0 15.5761C0 15.8173 0.0091248 15.9619 0.0243328 15.9619C0.0393948 15.9619 0.0486656 16.0905 0.0486656 16.2995C0.0486656 16.5085 0.0393948 16.6371 0.0243328 16.6371C0.0091978 16.6371 0 16.7737 0 16.9987C0 17.2238 0.0091978 17.3604 0.0243328 17.3604C0.0394678 17.3604 0.0486656 17.497 0.0486656 17.7221C0.0486656 17.9471 0.0394678 18.0838 0.0243328 18.0838C0.0091978 18.0838 0 18.2204 0 18.4454C0 18.6705 0.0091978 18.8071 0.0243328 18.8071C0.0394678 18.8071 0.0486656 18.9437 0.0486656 19.1688C0.0486656 19.3938 0.0394678 19.5305 0.0243328 19.5305C0.0091978 19.5305 0 19.6671 0 19.8921C0 20.1172 0.0091978 20.2538 0.0243328 20.2538C0.0394678 20.2538 0.0486656 20.3904 0.0486656 20.6155C0.0486656 20.8405 0.0394678 20.9772 0.0243328 20.9772C0.0091248 20.9772 0 21.1218 0 21.3629C0 21.6041 0.0091248 21.7487 0.0243328 21.7487C0.0393948 21.7487 0.0486656 21.8773 0.0486656 22.0863C0.0486656 22.2953 0.0393948 22.4239 0.0243328 22.4239C0.0091978 22.4239 0 22.5605 0 22.7855C0 23.0106 0.0091978 23.1472 0.0243328 23.1472C0.0394678 23.1472 0.0486656 23.2838 0.0486656 23.5089C0.0486656 23.7339 0.0394678 23.8706 0.0243328 23.8706C0.0091978 23.8706 0 24.0072 0 24.2322C0 24.4573 0.0091978 24.5939 0.0243328 24.5939C0.0394678 24.5939 0.0486656 24.7305 0.0486656 24.9556C0.0486656 25.1806 0.0394678 25.3173 0.0243328 25.3173C0.0091978 25.3173 0 25.4539 0 25.6789C0 25.904 0.0091978 26.0406 0.0243328 26.0406C0.0394678 26.0406 0.0486656 26.1772 0.0486656 26.4023C0.0486656 26.6273 0.0394678 26.764 0.0243328 26.764C0.0091248 26.764 0 26.9086 0 27.1497C0 27.3909 0.0091248 27.5355 0.0243328 27.5355C0.0393948 27.5355 0.0486656 27.6641 0.0486656 27.8731C0.0486656 28.0821 0.0393948 28.2107 0.0243328 28.2107C0.0091978 28.2107 0 28.3473 0 28.5723C0 28.7974 0.0091978 28.934 0.0243328 28.934C0.0399301 28.934 0.0486656 29.159 0.0486656 29.5609C0.0486656 29.9628 0.0574011 30.1878 0.0729984 30.1878C0.0865275 30.1878 0.0973312 30.2521 0.0973312 30.3325C0.0973312 30.4129 0.108135 30.4772 0.121664 30.4772C0.135558 30.4772 0.145997 30.5495 0.145997 30.6459C0.145997 30.7424 0.156436 30.8147 0.17033 30.8147C0.183713 30.8147 0.194662 30.869 0.194662 30.9353C0.194662 31.0016 0.205612 31.0558 0.218995 31.0558C0.232378 31.0558 0.243328 31.0992 0.243328 31.1523C0.243328 31.2053 0.254278 31.2487 0.267661 31.2487C0.281044 31.2487 0.291994 31.303 0.291994 31.3693C0.291994 31.4356 0.302943 31.4898 0.316327 31.4898C0.32971 31.4898 0.340659 31.5224 0.340659 31.5622C0.340659 31.602 0.351609 31.6345 0.364992 31.6345C0.378375 31.6345 0.389325 31.6671 0.389325 31.7069C0.389325 31.7466 0.400275 31.7792 0.413658 31.7792C0.427041 31.7792 0.437991 31.8117 0.437991 31.8515C0.437991 31.8913 0.44894 31.9239 0.462323 31.9239C0.475706 31.9239 0.486656 31.9564 0.486656 31.9962C0.486656 32.036 0.497606 32.0685 0.510989 32.0685C0.524372 32.0685 0.535322 32.1011 0.535322 32.1409C0.535322 32.1806 0.546272 32.2132 0.559655 32.2132C0.573038 32.2132 0.583987 32.2458 0.583987 32.2855C0.583987 32.3253 0.594937 32.3579 0.60832 32.3579C0.621703 32.3579 0.632653 32.3796 0.632653 32.4061C0.632653 32.4326 0.643603 32.4543 0.656986 32.4543C0.670369 32.4543 0.681319 32.4869 0.681319 32.5266C0.681319 32.5664 0.692268 32.599 0.705652 32.599C0.719035 32.599 0.729984 32.6207 0.729984 32.6472C0.729984 32.6737 0.740934 32.6954 0.754317 32.6954C0.7677 32.6954 0.77865 32.7171 0.77865 32.7437C0.77865 32.7702 0.7896 32.7919 0.802983 32.7919C0.816366 32.7919 0.827316 32.8244 0.827316 32.8642C0.827316 32.904 0.838265 32.9365 0.851648 32.9365C0.865031 32.9365 0.875981 32.9582 0.875981 32.9848C0.875981 33.0113 0.886931 33.033 0.900314 33.033C0.913697 33.033 0.924647 33.0523 0.924647 33.0759C0.924647 33.0995 0.946546 33.1344 0.973312 33.1536C1.00188 33.174 1.02198 33.216 1.02198 33.2553C1.02198 33.2922 1.03293 33.3223 1.04631 33.3223C1.05969 33.3223 1.07064 33.3416 1.07064 33.3652C1.07064 33.3888 1.09254 33.4238 1.11931 33.4429C1.14608 33.462 1.16797 33.497 1.16797 33.5206C1.16797 33.5441 1.17892 33.5634 1.19231 33.5634C1.20569 33.5634 1.21664 33.5852 1.21664 33.6117C1.21664 33.6382 1.22759 33.6599 1.24097 33.6599C1.25436 33.6599 1.26531 33.6792 1.26531 33.7028C1.26531 33.7264 1.28721 33.7613 1.31397 33.7805C1.34074 33.7996 1.36264 33.8321 1.36264 33.8528C1.36264 33.8735 1.38454 33.906 1.4113 33.9251C1.43807 33.9442 1.45997 33.9768 1.45997 33.9975C1.45997 34.0181 1.48187 34.0507 1.50863 34.0698C1.5354 34.0889 1.5573 34.1215 1.5573 34.1421C1.5573 34.1628 1.5792 34.1953 1.60597 34.2145C1.63273 34.2336 1.65463 34.2642 1.65463 34.2825C1.65463 34.3007 1.68748 34.3461 1.72763 34.3832C1.76778 34.4204 1.80063 34.4638 1.80063 34.4797C1.80063 34.4956 1.83348 34.539 1.87363 34.5761C1.91378 34.6133 1.94662 34.6563 1.94662 34.6718C1.94662 34.6872 2.00137 34.7527 2.06829 34.8173C2.1352 34.8819 2.18995 34.9463 2.18995 34.9605C2.18995 34.9943 3.08195 35.8782 3.11601 35.8782C3.13037 35.8782 3.19541 35.9324 3.2606 35.9987C3.32578 36.065 3.39185 36.1193 3.40742 36.1193C3.42299 36.1193 3.46643 36.1518 3.50392 36.1916C3.54142 36.2314 3.58522 36.264 3.60126 36.264C3.61729 36.264 3.66109 36.2965 3.69859 36.3363C3.73608 36.3761 3.78429 36.4086 3.80568 36.4086C3.82709 36.4086 3.84458 36.4195 3.84458 36.4327C3.84458 36.446 3.86208 36.4569 3.88349 36.4569C3.90488 36.4569 3.95308 36.4894 3.99058 36.5292C4.02808 36.569 4.07628 36.6015 4.09767 36.6015C4.11908 36.6015 4.13658 36.6124 4.13658 36.6256C4.13658 36.6389 4.15607 36.6497 4.17987 36.6497C4.20369 36.6497 4.23895 36.6714 4.25824 36.698C4.27754 36.7245 4.3128 36.7462 4.33662 36.7462C4.36042 36.7462 4.37991 36.757 4.37991 36.7703C4.37991 36.7836 4.3994 36.7944 4.42319 36.7944C4.44702 36.7944 4.48227 36.8161 4.50157 36.8426C4.52087 36.8692 4.55612 36.8909 4.57995 36.8909C4.60374 36.8909 4.62323 36.9017 4.62323 36.915C4.62323 36.9282 4.64513 36.9391 4.6719 36.9391C4.69867 36.9391 4.72057 36.9499 4.72057 36.9632C4.72057 36.9765 4.74246 36.9873 4.76923 36.9873C4.796 36.9873 4.8179 36.9982 4.8179 37.0114C4.8179 37.0247 4.8398 37.0355 4.86656 37.0355C4.89333 37.0355 4.91523 37.0464 4.91523 37.0596C4.91523 37.0729 4.93713 37.0838 4.96389 37.0838C4.99066 37.0838 5.01256 37.0946 5.01256 37.1079C5.01256 37.1211 5.03446 37.132 5.06122 37.132C5.08799 37.132 5.10989 37.1428 5.10989 37.1561C5.10989 37.1694 5.13179 37.1802 5.15856 37.1802C5.18532 37.1802 5.20722 37.1911 5.20722 37.2043C5.20722 37.2176 5.24007 37.2284 5.28022 37.2284C5.32037 37.2284 5.35322 37.2393 5.35322 37.2525C5.35322 37.2658 5.37512 37.2766 5.40188 37.2766C5.42865 37.2766 5.45055 37.2875 5.45055 37.3008C5.45055 37.314 5.47245 37.3249 5.49922 37.3249C5.52598 37.3249 5.54788 37.3357 5.54788 37.349C5.54788 37.3622 5.58073 37.3731 5.62088 37.3731C5.66103 37.3731 5.69388 37.3839 5.69388 37.3972C5.69388 37.4105 5.71578 37.4213 5.74254 37.4213C5.76931 37.4213 5.79121 37.4322 5.79121 37.4454C5.79121 37.4587 5.81311 37.4695 5.83987 37.4695C5.86664 37.4695 5.88854 37.4804 5.88854 37.4937C5.88854 37.5069 5.92139 37.5178 5.96154 37.5178C6.00169 37.5178 6.03454 37.5286 6.03454 37.5419C6.03454 37.5551 6.07834 37.566 6.13187 37.566C6.1854 37.566 6.2292 37.5768 6.2292 37.5901C6.2292 37.6034 6.26205 37.6142 6.3022 37.6142C6.34235 37.6142 6.3752 37.6251 6.3752 37.6383C6.3752 37.6516 6.40805 37.6624 6.44819 37.6624C6.48834 37.6624 6.52119 37.6733 6.52119 37.6865C6.52119 37.6998 6.56499 37.7107 6.61852 37.7107C6.67206 37.7107 6.71586 37.7215 6.71586 37.7348C6.71586 37.748 6.75965 37.7589 6.81319 37.7589C6.86672 37.7589 6.91052 37.7697 6.91052 37.783C6.91052 37.7963 6.96527 37.8071 7.03218 37.8071C7.0991 37.8071 7.15385 37.818 7.15385 37.8312C7.15385 37.8446 7.21874 37.8553 7.29984 37.8553C7.38094 37.8553 7.44584 37.866 7.44584 37.8794C7.44584 37.8935 7.52694 37.9036 7.6405 37.9036C7.75406 37.9036 7.83517 37.9136 7.83517 37.9277C7.83517 37.9417 7.91627 37.9518 8.02983 37.9518C8.14339 37.9518 8.22449 37.9618 8.22449 37.9759C8.22449 37.9919 9.31136 38 11.4364 38C13.5615 38 14.6484 37.9919 14.6484 37.9759C14.6484 37.9612 14.7619 37.9518 14.9403 37.9518C15.1188 37.9518 15.2323 37.9424 15.2323 37.9277C15.2323 37.9143 15.2972 37.9036 15.3783 37.9036C15.4594 37.9036 15.5243 37.8928 15.5243 37.8794C15.5243 37.866 15.5892 37.8553 15.6703 37.8553C15.7514 37.8553 15.8163 37.8446 15.8163 37.8312C15.8163 37.818 15.8601 37.8071 15.9137 37.8071C15.9672 37.8071 16.011 37.7963 16.011 37.783C16.011 37.7697 16.0548 37.7589 16.1083 37.7589C16.1619 37.7589 16.2057 37.748 16.2057 37.7348C16.2057 37.7215 16.2495 37.7107 16.303 37.7107C16.3565 37.7107 16.4003 37.6998 16.4003 37.6865C16.4003 37.6733 16.4332 37.6624 16.4733 37.6624C16.5135 37.6624 16.5463 37.6516 16.5463 37.6383C16.5463 37.6251 16.5792 37.6142 16.6193 37.6142C16.6595 37.6142 16.6923 37.6034 16.6923 37.5901C16.6923 37.5768 16.7252 37.566 16.7653 37.566C16.8055 37.566 16.8383 37.5551 16.8383 37.5419C16.8383 37.5286 16.8602 37.5178 16.887 37.5178C16.9137 37.5178 16.9356 37.5069 16.9356 37.4937C16.9356 37.4804 16.9685 37.4695 17.0086 37.4695C17.0488 37.4695 17.0816 37.4587 17.0816 37.4454C17.0816 37.4322 17.1145 37.4213 17.1546 37.4213C17.1948 37.4213 17.2276 37.4105 17.2276 37.3972C17.2276 37.3839 17.2495 37.3731 17.2763 37.3731C17.3031 37.3731 17.325 37.3622 17.325 37.349C17.325 37.3357 17.3469 37.3249 17.3736 37.3249C17.4004 37.3249 17.4223 37.314 17.4223 37.3008C17.4223 37.2875 17.4551 37.2766 17.4953 37.2766C17.5354 37.2766 17.5683 37.2658 17.5683 37.2525C17.5683 37.2393 17.5902 37.2284 17.617 37.2284C17.6437 37.2284 17.6656 37.2176 17.6656 37.2043C17.6656 37.1911 17.6875 37.1802 17.7143 37.1802C17.7411 37.1802 17.763 37.1694 17.763 37.1561C17.763 37.1428 17.7849 37.132 17.8116 37.132C17.8384 37.132 17.8603 37.1211 17.8603 37.1079C17.8603 37.0946 17.8822 37.0838 17.9089 37.0838C17.9357 37.0838 17.9576 37.0729 17.9576 37.0596C17.9576 37.0464 17.9771 37.0355 18.0009 37.0355C18.0247 37.0355 18.06 37.0138 18.0793 36.9873C18.0986 36.9608 18.1338 36.9391 18.1577 36.9391C18.1814 36.9391 18.2009 36.9282 18.2009 36.915C18.2009 36.9017 18.2204 36.8909 18.2442 36.8909C18.2681 36.8909 18.3033 36.8692 18.3226 36.8426C18.3419 36.8161 18.3772 36.7944 18.401 36.7944C18.4248 36.7944 18.4443 36.7836 18.4443 36.7703C18.4443 36.757 18.4638 36.7462 18.4876 36.7462C18.5114 36.7462 18.5466 36.7245 18.5659 36.698C18.5852 36.6714 18.6161 36.6497 18.6346 36.6497C18.653 36.6497 18.6988 36.6172 18.7363 36.5774C18.7738 36.5376 18.8173 36.5051 18.8331 36.5051C18.8489 36.5051 18.9038 36.4617 18.9553 36.4086C19.0067 36.3556 19.0614 36.3122 19.0769 36.3122C19.0924 36.3122 19.1471 36.2688 19.1986 36.2157C19.25 36.1627 19.304 36.1193 19.3185 36.1193C19.3518 36.1193 20.2936 35.1879 20.2936 35.1549C20.2936 35.1154 24.6456 30.8147 24.6856 30.8147C24.7057 30.8147 24.7221 30.7983 24.7221 30.7782C24.7221 30.7375 25.1205 30.3325 25.1606 30.3325C25.2001 30.3325 25.3548 30.1699 25.3548 30.1283C25.3548 30.1075 25.376 30.0914 25.4035 30.0914C25.431 30.0914 25.4521 30.0753 25.4521 30.0544C25.4521 30.0121 25.6072 29.8503 25.6477 29.8503C25.6829 29.8503 25.7441 29.789 25.7441 29.7538C25.7441 29.7188 25.8053 29.6574 25.8402 29.6574C25.8809 29.6574 26.1334 29.3982 26.1334 29.3565C26.1334 29.3359 26.1548 29.3198 26.1821 29.3198C26.2096 29.3198 26.2308 29.3037 26.2308 29.2828C26.2308 29.2405 26.3858 29.0787 26.4264 29.0787C26.4658 29.0787 26.5228 29.0156 26.5228 28.9719C26.5228 28.9511 26.5394 28.934 26.5597 28.934C26.6078 28.934 26.9121 28.6325 26.9121 28.5849C26.9121 28.5647 26.9293 28.5482 26.9503 28.5482C26.9995 28.5482 27.0581 28.4902 27.0581 28.4414C27.0581 28.4206 27.0746 28.4036 27.0949 28.4036C27.115 28.4036 27.2574 28.2789 27.4112 28.1265C27.5649 27.9741 27.6907 27.8331 27.6907 27.8131C27.6907 27.7927 27.7122 27.7766 27.7394 27.7766C27.7718 27.7766 27.7881 27.7606 27.7881 27.7284C27.7881 27.7016 27.8043 27.6802 27.8246 27.6802C27.8661 27.6802 30.3187 25.2594 30.3187 25.2185C30.3187 25.2039 30.3515 25.1615 30.3917 25.1244C30.4318 25.0872 30.4647 25.0418 30.4647 25.0236C30.4647 25.0053 30.4866 24.9747 30.5133 24.9556C30.5401 24.9365 30.562 24.9015 30.562 24.8779C30.562 24.8543 30.573 24.835 30.5863 24.835C30.5997 24.835 30.6107 24.8157 30.6107 24.7921C30.6107 24.7685 30.6326 24.7336 30.6593 24.7145C30.6861 24.6953 30.708 24.6604 30.708 24.6368C30.708 24.6132 30.719 24.5939 30.7323 24.5939C30.7457 24.5939 30.7567 24.5722 30.7567 24.5457C30.7567 24.5192 30.7676 24.4975 30.781 24.4975C30.7944 24.4975 30.8053 24.4649 30.8053 24.4251C30.8053 24.3853 30.8163 24.3528 30.8297 24.3528C30.8431 24.3528 30.854 24.3202 30.854 24.2805C30.854 24.2407 30.865 24.2081 30.8783 24.2081C30.8917 24.2081 30.9027 24.1647 30.9027 24.1117C30.9027 24.0586 30.9136 24.0152 30.927 24.0152C30.9404 24.0152 30.9513 23.961 30.9513 23.8947C30.9513 23.8284 30.9623 23.7741 30.9757 23.7741C30.9909 23.7741 31 23.6214 31 23.3642C31 23.107 30.9909 22.9543 30.9757 22.9543C30.9623 22.9543 30.9513 22.9109 30.9513 22.8579C30.9513 22.8048 30.9404 22.7614 30.927 22.7614C30.9136 22.7614 30.9027 22.718 30.9027 22.665C30.9027 22.6119 30.8917 22.5685 30.8783 22.5685C30.865 22.5685 30.854 22.536 30.854 22.4962C30.854 22.4564 30.8431 22.4239 30.8297 22.4239C30.8163 22.4239 30.8053 22.3913 30.8053 22.3515C30.8053 22.3117 30.7944 22.2792 30.781 22.2792C30.7676 22.2792 30.7567 22.2575 30.7567 22.231C30.7567 22.2044 30.7457 22.1827 30.7323 22.1827C30.719 22.1827 30.708 22.161 30.708 22.1345C30.708 22.108 30.6971 22.0863 30.6837 22.0863C30.6703 22.0863 30.6593 22.0646 30.6593 22.0381C30.6593 22.0115 30.6484 21.9898 30.635 21.9898C30.6216 21.9898 30.6107 21.9705 30.6107 21.947C30.6107 21.9233 30.5888 21.8884 30.562 21.8693C30.5352 21.8502 30.5133 21.8176 30.5133 21.797C30.5133 21.7763 30.4914 21.7437 30.4647 21.7246C30.4379 21.7055 30.416 21.6706 30.416 21.647C30.416 21.6201 30.3978 21.6041 30.3673 21.6041C30.3401 21.6041 30.3187 21.588 30.3187 21.5676C30.3187 21.5201 29.8194 21.0254 29.7715 21.0254C29.7512 21.0254 29.7347 21.0145 29.7347 21.0013C29.7347 20.988 29.7152 20.9772 29.6914 20.9772C29.6676 20.9772 29.6323 20.9555 29.613 20.9289C29.5937 20.9024 29.5609 20.8807 29.54 20.8807C29.5192 20.8807 29.4863 20.859 29.467 20.8325C29.4477 20.806 29.4125 20.7843 29.3887 20.7843C29.3649 20.7843 29.3454 20.7734 29.3454 20.7602C29.3454 20.7469 29.3235 20.736 29.2967 20.736C29.2699 20.736 29.248 20.7252 29.248 20.7119C29.248 20.6987 29.2261 20.6878 29.1994 20.6878C29.1726 20.6878 29.1507 20.677 29.1507 20.6637C29.1507 20.6504 29.1179 20.6396 29.0777 20.6396C29.0376 20.6396 29.0047 20.6287 29.0047 20.6155C29.0047 20.6022 28.9719 20.5914 28.9317 20.5914C28.8916 20.5914 28.8587 20.5805 28.8587 20.5673C28.8587 20.554 28.8149 20.5431 28.7614 20.5431C28.7078 20.5431 28.6641 20.5323 28.6641 20.519C28.6641 20.5058 28.6093 20.4949 28.5424 20.4949C28.4755 20.4949 28.4207 20.4841 28.4207 20.4708C28.4207 20.4558 28.2828 20.4467 28.0557 20.4467C27.8286 20.4467 27.6907 20.4558 27.6907 20.4708C27.6907 20.4842 27.6258 20.4949 27.5447 20.4949C27.4636 20.4949 27.3987 20.5056 27.3987 20.519C27.3987 20.5323 27.3549 20.5431 27.3014 20.5431C27.2479 20.5431 27.2041 20.554 27.2041 20.5673C27.2041 20.5805 27.1712 20.5914 27.1311 20.5914C27.0909 20.5914 27.0581 20.6022 27.0581 20.6155C27.0581 20.6287 27.0362 20.6396 27.0094 20.6396C26.9827 20.6396 26.9608 20.6504 26.9608 20.6637C26.9608 20.677 26.9389 20.6878 26.9121 20.6878C26.8853 20.6878 26.8634 20.6987 26.8634 20.7119C26.8634 20.7252 26.8415 20.736 26.8148 20.736C26.788 20.736 26.7661 20.7469 26.7661 20.7602C26.7661 20.7734 26.7442 20.7843 26.7174 20.7843C26.6907 20.7843 26.6688 20.7951 26.6688 20.8084C26.6688 20.8216 26.6493 20.8325 26.6255 20.8325C26.6016 20.8325 26.5664 20.8542 26.5471 20.8807C26.5278 20.9072 26.4925 20.9289 26.4687 20.9289C26.4449 20.9289 26.4254 20.9398 26.4254 20.953C26.4254 20.9663 26.4083 20.9772 26.3874 20.9772C26.3664 20.9772 26.296 21.0314 26.2308 21.0977C26.1656 21.164 26.0998 21.2183 26.0846 21.2183C26.0445 21.2183 25.9874 21.281 25.9874 21.3251C25.9874 21.3459 25.9708 21.3629 25.9504 21.3629C25.9022 21.3629 25.6468 21.6161 25.6468 21.6638C25.6468 21.684 25.6301 21.7005 25.6096 21.7005C25.5613 21.7005 25.3548 21.9052 25.3548 21.9531C25.3548 21.9733 25.3382 21.9898 25.3178 21.9898C25.2697 21.9898 24.9655 22.2913 24.9655 22.339C24.9655 22.3592 24.9488 22.3756 24.9285 22.3756C24.8804 22.3756 24.5761 22.6771 24.5761 22.7248C24.5761 22.745 24.5589 22.7614 24.5379 22.7614C24.4887 22.7614 24.4301 22.8195 24.4301 22.8682C24.4301 22.889 24.4134 22.9061 24.3928 22.9061C24.3444 22.9061 24.1868 23.0622 24.1868 23.1102C24.1868 23.1306 24.1696 23.1472 24.1486 23.1472C24.0994 23.1472 24.0408 23.2053 24.0408 23.254C24.0408 23.2748 24.024 23.2919 24.0035 23.2919C23.9551 23.2919 23.7975 23.448 23.7975 23.496C23.7975 23.5164 23.781 23.533 23.7608 23.533C23.7129 23.533 23.0188 24.2207 23.0188 24.2682C23.0188 24.2882 23.0016 24.3046 22.9806 24.3046C22.9314 24.3046 22.8728 24.3626 22.8728 24.4114C22.8728 24.4322 22.8563 24.4492 22.8361 24.4492C22.7881 24.4492 22.2402 24.9922 22.2402 25.0397C22.2402 25.0601 22.2187 25.0761 22.1915 25.0761C22.1429 25.0761 22.1429 25.0601 22.1429 14.9492C22.1429 8.21405 22.1347 4.82234 22.1185 4.82234C22.1051 4.82234 22.0942 4.76808 22.0942 4.70178C22.0942 4.63547 22.0832 4.58122 22.0699 4.58122C22.0565 4.58122 22.0455 4.54867 22.0455 4.50888C22.0455 4.4691 22.0346 4.43655 22.0212 4.43655C22.0078 4.43655 21.9969 4.404 21.9969 4.36421C21.9969 4.32443 21.9859 4.29188 21.9725 4.29188C21.9591 4.29188 21.9482 4.27018 21.9482 4.24365C21.9482 4.21713 21.9372 4.19543 21.9239 4.19543C21.9105 4.19543 21.8995 4.17373 21.8995 4.14721C21.8995 4.12069 21.8886 4.09898 21.8752 4.09898C21.8618 4.09898 21.8509 4.07967 21.8509 4.05609C21.8509 4.03248 21.829 3.99755 21.8022 3.97843C21.7754 3.95931 21.7535 3.92895 21.7535 3.91094C21.7535 3.89293 21.7097 3.83651 21.6562 3.78553C21.6027 3.73456 21.5589 3.68089 21.5589 3.66623C21.5589 3.63127 21.3491 3.42386 21.3138 3.42386C21.2987 3.42386 21.2557 3.39131 21.2182 3.35152C21.1807 3.31174 21.1325 3.27919 21.1111 3.27919C21.0897 3.27919 21.0722 3.26834 21.0722 3.25508C21.0722 3.24181 21.0527 3.23096 21.0289 3.23096C21.0051 3.23096 20.9698 3.20926 20.9506 3.18274C20.9299 3.15443 20.8876 3.13452 20.8478 3.13452C20.8107 3.13452 20.7802 3.12367 20.7802 3.11041C20.7802 3.09714 20.7583 3.08629 20.7316 3.08629C20.7048 3.08629 20.6829 3.07544 20.6829 3.06218C20.6829 3.04892 20.65 3.03807 20.6099 3.03807C20.5697 3.03807 20.5369 3.02722 20.5369 3.01396C20.5369 3.0007 20.4931 2.98985 20.4396 2.98985C20.386 2.98985 20.3422 2.979 20.3422 2.96574C20.3422 2.9517 20.2618 2.94162 20.1496 2.94162C20.0193 2.94162 19.9524 2.93188 19.9428 2.91148C19.9314 2.88737 19.9257 2.88737 19.9144 2.91148C19.9048 2.93188 19.8379 2.94162 19.7076 2.94162C19.5954 2.94162 19.5149 2.9517 19.5149 2.96574C19.5149 2.979 19.4711 2.98985 19.4176 2.98985C19.364 2.98985 19.3203 3.0007 19.3203 3.01396C19.3203 3.02722 19.2874 3.03807 19.2473 3.03807C19.2071 3.03807 19.1743 3.04892 19.1743 3.06218C19.1743 3.07544 19.1524 3.08629 19.1256 3.08629C19.0988 3.08629 19.0769 3.09714 19.0769 3.11041C19.0769 3.12367 19.055 3.13452 19.0283 3.13452C19.0015 3.13452 18.9796 3.14537 18.9796 3.15863C18.9796 3.17189 18.9577 3.18274 18.9309 3.18274C18.9042 3.18274 18.8823 3.19359 18.8823 3.20685C18.8823 3.22011 18.8628 3.23096 18.839 3.23096C18.8151 3.23096 18.7799 3.25267 18.7606 3.27919C18.7413 3.30571 18.7104 3.32741 18.692 3.32741C18.6736 3.32741 18.6278 3.35996 18.5903 3.39975C18.5528 3.43953 18.5096 3.47208 18.4942 3.47208C18.4585 3.47208 18.3469 3.58205 18.3469 3.61721C18.3469 3.63194 18.2922 3.69683 18.2253 3.76142C18.1584 3.82602 18.1036 3.89343 18.1036 3.91125C18.1036 3.92909 18.0817 3.95931 18.0549 3.97843C18.0282 3.99755 18.0063 4.03248 18.0063 4.05609C18.0063 4.07967 17.9953 4.09898 17.9819 4.09898C17.9686 4.09898 17.9576 4.12069 17.9576 4.14721C17.9576 4.17373 17.9467 4.19543 17.9333 4.19543C17.9199 4.19543 17.9089 4.22798 17.9089 4.26777C17.9089 4.30755 17.898 4.3401 17.8846 4.3401C17.8712 4.3401 17.8603 4.3618 17.8603 4.38832C17.8603 4.41485 17.8493 4.43655 17.8359 4.43655C17.8226 4.43655 17.8116 4.47995 17.8116 4.53299C17.8116 4.58604 17.8007 4.62944 17.7873 4.62944C17.7739 4.62944 17.763 4.68369 17.763 4.75C17.763 4.81631 17.752 4.87056 17.7386 4.87056C17.7225 4.87056 17.7143 6.55035 17.7143 9.86168C17.7143 13.173 17.7061 14.8528 17.69 14.8528C17.6766 14.8528 17.6656 14.8745 17.6656 14.901C17.6656 14.9275 17.6547 14.9492 17.6413 14.9492C17.6279 14.9492 17.617 14.9709 17.617 14.9975C17.617 15.024 17.606 15.0457 17.5926 15.0457C17.5792 15.0457 17.5683 15.0674 17.5683 15.0939C17.5683 15.1241 17.5521 15.1421 17.525 15.1421C17.5012 15.1421 17.4659 15.1638 17.4466 15.1904C17.4273 15.2169 17.3921 15.2386 17.3682 15.2386C17.3445 15.2386 17.325 15.2494 17.325 15.2627C17.325 15.276 17.3031 15.2868 17.2763 15.2868C17.2495 15.2868 17.2276 15.2977 17.2276 15.3109C17.2276 15.3254 17.1303 15.335 16.9843 15.335C16.8383 15.335 16.741 15.3254 16.741 15.3109C16.741 15.2977 16.7191 15.2868 16.6923 15.2868C16.6655 15.2868 16.6436 15.276 16.6436 15.2627C16.6436 15.2494 16.6242 15.2386 16.6004 15.2386C16.5765 15.2386 16.5413 15.2169 16.522 15.1904C16.5027 15.1638 16.4674 15.1421 16.4436 15.1421C16.4165 15.1421 16.4003 15.1241 16.4003 15.0939C16.4003 15.0674 16.3894 15.0457 16.376 15.0457C16.3626 15.0457 16.3516 15.024 16.3516 14.9975C16.3516 14.9709 16.3407 14.9492 16.3273 14.9492C16.3139 14.9492 16.303 14.9275 16.303 14.901C16.303 14.8745 16.292 14.8528 16.2787 14.8528C16.2625 14.8528 16.2543 12.6827 16.2543 8.39086C16.2543 4.09898 16.2461 1.92893 16.23 1.92893C16.2166 1.92893 16.2057 1.87468 16.2057 1.80838C16.2057 1.74207 16.1947 1.68782 16.1813 1.68782C16.1679 1.68782 16.157 1.65527 16.157 1.61548C16.157 1.5757 16.146 1.54315 16.1327 1.54315C16.1193 1.54315 16.1083 1.5106 16.1083 1.47081C16.1083 1.43103 16.0974 1.39848 16.084 1.39848C16.0706 1.39848 16.0597 1.37678 16.0597 1.35025C16.0597 1.32373 16.0487 1.30203 16.0353 1.30203C16.0219 1.30203 16.011 1.28033 16.011 1.25381C16.011 1.22728 16 1.20558 15.9867 1.20558C15.9733 1.20558 15.9623 1.18627 15.9623 1.16269C15.9623 1.13908 15.9404 1.10415 15.9137 1.08503C15.8869 1.0659 15.865 1.03097 15.865 1.00736C15.865 0.98378 15.854 0.964467 15.8407 0.964467C15.8273 0.964467 15.8163 0.948047 15.8163 0.927986C15.8163 0.883645 15.3674 0.43401 15.3232 0.43401C15.3059 0.43401 15.276 0.41231 15.2567 0.385787C15.2374 0.359264 15.2021 0.337563 15.1783 0.337563C15.1545 0.337563 15.135 0.326713 15.135 0.313452C15.135 0.30019 15.1131 0.28934 15.0863 0.28934C15.0596 0.28934 15.0377 0.27849 15.0377 0.265228C15.0377 0.251967 15.0158 0.241117 14.989 0.241117C14.9622 0.241117 14.9403 0.230266 14.9403 0.217005C14.9403 0.203744 14.9184 0.192893 14.8917 0.192893C14.8649 0.192893 14.843 0.182043 14.843 0.168782C14.843 0.15552 14.8211 0.14467 14.7943 0.14467C14.7676 0.14467 14.7457 0.13382 14.7457 0.120558C14.7457 0.107297 14.7128 0.0964467 14.6727 0.0964467C14.6325 0.0964467 14.5997 0.0855964 14.5997 0.072335C14.5997 0.0590736 14.5449 0.0482234 14.478 0.0482234C14.4111 0.0482234 14.3564 0.0373731 14.3564 0.0241117C14.3564 0.009283 14.2347 0 14.04 0C13.8454 0 13.7237 0.009283 13.7237 0.0241117ZM9.95212 22.4239C10.7817 23.2461 11.472 23.9188 11.486 23.9188C11.5196 23.9188 11.6311 24.0297 11.6311 24.0632C11.6311 24.0775 11.67 24.1278 11.7176 24.1749L11.8041 24.2606L11.8482 24.2103C11.8724 24.1826 11.9102 24.1599 11.932 24.1599C11.9555 24.1599 11.9717 24.1402 11.9717 24.1117C11.9717 24.0839 11.988 24.0635 12.01 24.0635C12.031 24.0635 12.0639 24.0479 12.083 24.029C12.1021 24.0101 12.1177 23.9775 12.1177 23.9567C12.1177 23.9349 12.1384 23.9188 12.1664 23.9188C12.1944 23.9188 12.2151 23.9027 12.2151 23.8809C12.2151 23.8372 12.272 23.7741 12.3115 23.7741C12.352 23.7741 12.5071 23.6123 12.5071 23.57C12.5071 23.5496 12.5236 23.533 12.5439 23.533C12.5919 23.533 12.9937 23.1349 12.9937 23.0873C12.9937 23.0672 13.0102 23.0508 13.0304 23.0508C13.0506 23.0508 13.5487 22.5734 14.1374 21.9898C14.726 21.4063 15.2187 20.9289 15.2322 20.9289C15.2457 20.9289 15.7003 21.3683 16.2422 21.9054C16.9065 22.5637 17.2276 22.8981 17.2276 22.9318C17.2276 22.9911 17.1736 23.0508 17.1199 23.0508C17.0979 23.0508 17.0816 23.0712 17.0816 23.099C17.0816 23.1268 17.0654 23.1472 17.0434 23.1472C16.9942 23.1472 16.9356 23.2053 16.9356 23.254C16.9356 23.2758 16.915 23.2919 16.887 23.2919C16.8598 23.2919 16.8383 23.308 16.8383 23.3282C16.8383 23.3482 16.3018 23.8961 15.646 24.5457C14.9902 25.1953 14.4537 25.7385 14.4537 25.7528C14.4537 25.7865 14.3918 25.8477 14.3577 25.8477C14.3079 25.8477 13.9184 26.2551 13.9184 26.3072C13.9184 26.3667 13.9723 26.4264 14.0261 26.4264C14.0472 26.4264 14.0644 26.4429 14.0644 26.4631C14.0644 26.5048 14.3169 26.764 14.3576 26.764C14.3968 26.764 14.4537 26.8272 14.4537 26.8707C14.4537 26.8925 14.4743 26.9086 14.5024 26.9086C14.5295 26.9086 14.551 26.9247 14.551 26.945C14.551 26.965 15.0657 27.4911 15.6947 28.1142C16.3237 28.7373 16.8383 29.2634 16.8383 29.2834C16.8383 29.3034 16.855 29.3198 16.8753 29.3198C16.9235 29.3198 17.179 29.5729 17.179 29.6207C17.179 29.6408 17.1899 29.6574 17.2033 29.6574C17.2167 29.6574 17.2276 29.6737 17.2276 29.6936C17.2276 29.7333 15.2721 31.6827 15.2323 31.6827C15.2187 31.6827 14.5837 31.0643 13.821 30.3084C13.0584 29.5525 12.4179 28.934 12.3977 28.934C12.3776 28.934 12.3611 28.9175 12.3611 28.8974C12.3611 28.8497 12.0568 28.5482 12.0087 28.5482C11.9884 28.5482 11.9717 28.5315 11.9717 28.511C11.9717 28.4688 11.8658 28.3553 11.8265 28.3553C11.7925 28.3553 11.3391 28.8053 11.3391 28.839C11.3391 28.8728 11.2772 28.934 11.243 28.934C11.2024 28.934 10.9011 29.2416 10.9011 29.2832C10.9011 29.3033 10.8846 29.3198 10.8644 29.3198C10.8442 29.3198 10.2914 29.8515 9.63579 30.5013C8.98022 31.1511 8.43278 31.6827 8.41925 31.6827C8.40575 31.6827 7.95123 31.2433 7.40927 30.7063C6.76528 30.0682 6.42386 29.7131 6.42386 29.6814C6.42386 29.6495 6.86555 29.1954 7.7135 28.3553C8.4228 27.6527 9.00314 27.0614 9.00314 27.0414C9.00314 27.0214 9.01986 27.0051 9.04027 27.0051C9.08205 27.0051 9.29513 26.8033 9.29513 26.7638C9.29513 26.7244 9.45909 26.5711 9.50116 26.5711C9.52223 26.5711 9.53846 26.5501 9.53846 26.5228C9.53846 26.4907 9.55469 26.4746 9.58713 26.4746C9.61956 26.4746 9.63579 26.4585 9.63579 26.4264C9.63579 26.3943 9.65202 26.3782 9.68446 26.3782C9.72232 26.3782 9.73312 26.3621 9.73312 26.3058C9.73312 26.2496 9.72232 26.2335 9.68446 26.2335C9.65679 26.2335 9.63579 26.2174 9.63579 26.1962C9.63579 26.1533 9.52958 26.0406 9.48916 26.0406C9.45451 26.0406 9.39246 25.9797 9.39246 25.9457C9.39246 25.9315 8.72453 25.258 7.90816 24.4492C6.93028 23.4804 6.42386 22.9622 6.42386 22.9303C6.42386 22.8781 8.35771 20.9345 8.41321 20.9309C8.43003 20.9298 9.12254 21.6017 9.95212 22.4239Z" stroke="#FF9703" stroke-width="2" mask="url(#path-1-inside-1)"/>
</svg>
