<svg width="38" height="47" viewBox="0 0 38 47" fill="none" xmlns="http://www.w3.org/2000/svg">
<path d="M10.0273 29.7983C9.59488 29.7983 9.30348 29.8406 9.15308 29.8829V32.6512C9.33168 32.6935 9.55493 32.7053 9.86278 32.7053C10.9884 32.7053 11.6817 32.1366 11.6817 31.1754C11.6817 30.3153 11.0848 29.7983 10.0273 29.7983ZM18.2217 29.8265C17.7517 29.8265 17.4462 29.8688 17.2653 29.9111V36.0446C17.4462 36.0869 17.7376 36.0869 18.0008 36.0869C19.9208 36.101 21.171 35.0435 21.171 32.8063C21.1851 30.8558 20.0453 29.8265 18.2217 29.8265Z" fill="#00AEEF"/>
<path d="M23.5 0H4.7C3.45348 0 2.25802 0.495177 1.3766 1.3766C0.495177 2.25802 0 3.45348 0 4.7V42.3C0 43.5465 0.495177 44.742 1.3766 45.6234C2.25802 46.5048 3.45348 47 4.7 47H32.9C34.1465 47 35.342 46.5048 36.2234 45.6234C37.1048 44.742 37.6 43.5465 37.6 42.3V14.1L23.5 0ZM12.9203 33.3465C12.1941 34.028 11.1225 34.3335 9.8747 34.3335C9.63274 34.3361 9.3909 34.322 9.1509 34.2912V37.6423H7.05V28.3927C7.99812 28.2513 8.95613 28.1868 9.91465 28.2C11.2236 28.2 12.1542 28.4491 12.7816 28.9496C13.3785 29.4243 13.7827 30.2022 13.7827 31.1187C13.7804 32.0399 13.4749 32.8177 12.9203 33.3465ZM21.8668 36.5308C20.8797 37.3509 19.3781 37.741 17.5427 37.741C16.4429 37.741 15.6651 37.6705 15.1363 37.6V28.3951C16.0848 28.2566 17.0425 28.1914 18.001 28.2C19.7799 28.2 20.9361 28.5196 21.8386 29.2011C22.8138 29.9249 23.4248 31.0787 23.4248 32.7355C23.4248 34.5285 22.7691 35.767 21.8668 36.5308ZM30.55 30.0095H26.9498V32.1503H30.315V33.8753H26.9498V37.6446H24.8207V28.2705H30.55V30.0095ZM23.5 16.45H21.15V4.7L32.9 16.45H23.5Z" fill="#00AEEF"/>
</svg>
