<svg width="52" height="21" viewBox="0 0 52 21" fill="none" xmlns="http://www.w3.org/2000/svg">
<path fill-rule="evenodd" clip-rule="evenodd" d="M30.262 8.12856L30.3371 9.30992C30.3465 9.37555 30.3465 9.42243 30.3465 9.51618C30.3465 9.60994 30.3653 9.61932 30.3653 9.71308C30.3653 9.9756 30.4122 10.2475 30.4122 10.5194L30.4403 10.9038C30.4591 11.0445 30.4591 11.1757 30.4591 11.3164C30.4591 11.4289 30.4872 11.5883 30.4966 11.7008L30.5248 12.2821C30.5248 12.3758 30.5435 12.3946 30.5435 12.479L30.5905 13.2853C30.5905 13.379 30.6092 13.3884 30.6092 13.4822C30.6092 13.7166 30.6374 13.8291 30.6374 14.0822L30.6749 14.4854H29.0046L29.3143 12.8915C29.3612 12.6196 29.4269 12.3665 29.4738 12.0946C29.4926 11.9633 29.5207 11.8414 29.5489 11.7008C29.577 11.5601 29.6052 11.4382 29.6239 11.2976L29.9336 9.7037C29.9899 9.44118 30.0274 9.16928 30.0931 8.90675L30.2057 8.31607C30.2151 8.27857 30.2151 8.26919 30.2245 8.21294L30.2527 8.1098L30.262 8.12856ZM39.3078 10.9226H37.6845C37.6188 10.9226 37.6469 10.8663 37.6469 10.7913L37.8346 7.81915C37.8346 7.72539 37.8534 7.71602 37.8534 7.63163L37.9097 6.63779C37.9191 6.57216 37.9191 6.5159 37.9191 6.4409C37.9191 6.27213 37.966 5.85022 37.966 5.65332C37.966 5.55957 37.9848 5.54081 37.9848 5.45643L38.0035 5.05327C38.0129 4.94076 38.0317 4.77199 38.0317 4.65011H39.7676C40.2462 4.65011 40.1055 5.00639 40.1055 5.38142L39.8896 8.73799C39.8896 8.81299 39.899 8.87863 39.8896 8.95363C39.8427 9.37555 39.8427 9.91935 39.7958 10.3319C39.7676 10.585 39.8709 10.9132 39.3078 10.9132V10.9226ZM27.9537 19.6609C27.9912 19.4827 28.0287 19.2858 28.0663 19.1077C28.1038 18.9108 28.1413 18.7327 28.1789 18.5358C28.2164 18.3483 28.2539 18.1607 28.2915 17.9638C28.329 17.7763 28.3665 17.5794 28.4135 17.4013H30.8907C30.8907 17.5607 30.9377 17.8138 30.9377 17.9732C30.947 18.2545 30.994 18.5452 31.0033 18.8264C31.0127 19.0139 31.0503 19.2108 31.0503 19.4077C31.0503 19.4921 31.0409 19.6609 31.1159 19.6609H37.037C37.1121 19.6609 37.0839 19.5296 37.1027 19.3421C37.1215 19.1077 37.1215 18.8546 37.1496 18.6202C37.159 18.5639 37.1496 18.4983 37.1496 18.442L37.2153 17.5326C37.2341 17.3638 37.2247 17.1481 37.2528 16.9794C37.281 16.8012 37.2716 16.6137 37.2904 16.4262C37.2998 16.3699 37.2904 16.3137 37.2998 16.2481L37.3936 14.7948C37.3936 14.7198 37.3936 14.6729 37.403 14.5979C37.4311 14.3916 37.4499 14.0635 37.4499 13.8572H37.8815C37.9472 13.8572 37.9378 13.9416 37.9566 13.9979L38.4352 16.0043C38.4915 16.2387 38.5572 16.5106 38.6135 16.745C38.8011 17.4763 38.9794 18.1982 39.1389 18.9389L39.2703 19.4921C39.2891 19.5577 39.2797 19.6515 39.3454 19.6515H43.0707C43.0707 19.5671 43.005 19.3796 42.9768 19.2858L42.5921 17.8513C42.442 17.2419 42.2543 16.6418 42.1042 16.0324C41.954 15.4324 41.7664 14.8229 41.6256 14.2229C41.5975 14.101 41.5505 13.9791 41.5224 13.8572C41.9822 13.8572 42.3294 13.7353 42.5827 13.5291C43.005 13.1915 43.2677 12.6759 43.2584 12.1039L43.4648 8.82237C43.4836 8.71924 43.4742 8.58797 43.4929 8.49421L43.5305 7.82853C43.5305 7.75352 43.5399 7.73477 43.5492 7.67851C43.5586 7.61288 43.5492 7.566 43.5586 7.50037C43.5868 7.34098 43.5774 7.17222 43.5868 7.01283L43.6337 6.35651C43.6431 6.19712 43.6431 6.00961 43.6618 5.85022L43.7182 4.85637H44.8348C44.8348 5.16578 44.7879 5.46581 44.7879 5.77521L44.7222 6.69405C44.7034 6.85344 44.7128 7.00345 44.7034 7.16284L44.6377 8.08168C44.6377 8.25044 44.6284 8.40983 44.6096 8.55047L44.3844 12.2446C44.3656 12.3758 44.3656 12.5727 44.3562 12.704C44.3562 12.7884 44.3375 12.8165 44.3375 12.9196L44.0372 17.7951C44.0278 17.9357 43.9997 18.1045 43.9997 18.2451L43.9434 19.1733C43.9246 19.314 43.9152 19.4827 43.9152 19.6421H47.5936C47.6687 19.6421 47.6405 19.539 47.6405 19.4546C47.6405 19.3046 47.678 19.1546 47.678 18.9858L47.7531 17.8232C47.7719 17.7013 47.7813 17.5044 47.7813 17.3638C47.7813 17.2794 47.8 17.2419 47.8 17.1294C47.8 17.0169 47.8188 16.9888 47.8188 16.895C47.8188 16.7731 47.8282 16.5575 47.8469 16.4356C47.8751 16.2762 47.8563 16.1168 47.8751 15.9574C47.8845 15.8168 47.9032 15.6574 47.9032 15.5074L47.9408 15.0386C47.9408 14.9354 47.9502 14.8979 47.9596 14.8229L47.9971 14.101C48.0159 13.8291 48.0534 13.4541 48.0628 13.1822L48.1097 12.2446C48.1191 12.1039 48.1472 11.9445 48.1472 11.7945C48.1472 11.6351 48.1754 11.4757 48.1848 11.3257C48.1941 10.9976 48.2223 10.7163 48.2317 10.3881L48.5601 5.29704C48.5695 5.21266 48.5695 5.14703 48.5695 5.05327C48.5695 4.96889 48.5883 4.93138 48.5883 4.81887H51.028C50.9623 4.54697 50.9154 4.26569 50.8497 3.97504L50.5963 2.7093C50.5682 2.55929 50.54 2.42802 50.5119 2.27801C50.4837 2.14675 50.4556 1.99673 50.4274 1.86547C50.3993 1.71546 50.3524 1.57482 50.3524 1.4248H43.5962C43.5868 1.49044 43.568 1.53732 43.5492 1.59357C43.4929 1.75296 43.4179 1.9311 43.3803 2.09049H43.3428C43.324 2.02486 43.2584 1.97798 43.2114 1.9311C43.1082 1.82797 42.9862 1.76234 42.8642 1.69671C42.5546 1.50919 42.0666 1.4248 41.6538 1.4248H34.5785C34.5785 1.67795 34.541 1.87485 34.541 2.10924C34.541 2.18425 34.5316 2.21238 34.5316 2.25926C34.5222 2.32489 34.5316 2.38114 34.5222 2.4374C34.5128 2.53116 34.5034 2.68117 34.4941 2.77493C34.4847 2.83119 34.4941 2.88744 34.4941 2.9437L34.4377 3.80628C34.4096 4.01255 34.4002 4.5751 34.3814 4.83762L34.3533 5.34392C34.3533 5.52206 34.3158 5.67208 34.3158 5.84084L34.2125 7.37849C34.2032 7.65976 34.1562 7.95041 34.1656 8.23169C34.1656 8.51297 34.1281 8.80362 34.1187 9.08489L33.9873 11.1101C33.9873 11.5132 33.9216 11.9258 33.9216 12.3289H33.9029C33.9029 11.9914 33.7809 11.3539 33.7527 10.9788L33.7246 10.7538C33.7152 10.66 33.7152 10.6132 33.7058 10.5288L33.3868 7.8379C33.3023 7.24722 33.2648 6.62842 33.171 6.04711L33.1147 5.59707L32.6361 1.54669C32.6173 1.37793 32.5986 1.43418 32.242 1.43418H28.7137L28.0757 4.0688C27.5783 6.04711 27.1185 8.0348 26.6212 10.0225C26.5649 10.2381 26.5086 10.4631 26.4617 10.6788L25.4201 14.9636L25.3356 15.3011L24.3691 19.2671C24.3597 19.2952 24.2847 19.5953 24.2847 19.5953C24.2941 19.6421 24.2847 19.6234 24.341 19.6234H27.9537V19.6609Z" fill="white"/>
<path fill-rule="evenodd" clip-rule="evenodd" d="M0.600552 17.7204C0.609936 17.636 0.628703 17.5516 0.64747 17.4766L0.703772 17.1672C0.713155 17.1203 0.713155 17.0641 0.731923 17.0078C0.741306 16.961 0.75069 16.9235 0.760074 16.8859C0.769457 16.8016 0.788224 16.7172 0.797608 16.6234C0.806992 16.539 0.835143 16.4547 0.844526 16.389C0.844526 16.3328 0.928979 15.8546 0.947746 15.8171C0.947746 15.7421 1.06035 15.0389 1.07912 15.0014C1.0885 14.8701 1.13542 14.7201 1.1448 14.5889C1.15419 14.4388 1.21049 14.242 1.22925 14.0919C1.23864 13.9607 1.27617 13.7919 1.29494 13.6606C1.30432 13.5856 1.31371 13.5294 1.33247 13.445C1.34186 13.3887 1.36063 13.3325 1.36063 13.2575C1.38878 13.1637 1.39816 12.9856 1.42631 12.9106C1.43569 12.7699 1.47323 12.6293 1.492 12.4887C1.50138 12.4324 1.51076 12.3949 1.52015 12.3293C1.52953 12.2824 1.52015 12.2449 1.5483 12.2261C1.5483 12.1043 1.59522 11.9824 1.59522 11.8792C1.62337 11.7198 1.6609 11.5511 1.67967 11.3917C1.69844 11.2792 1.7172 11.176 1.73597 11.0635C1.74535 11.026 1.75474 10.9416 1.76412 10.9041C1.7735 10.8479 1.78289 10.8291 1.78289 10.7729C1.79227 10.6885 1.81104 10.6041 1.82981 10.5197C1.83919 10.4541 1.86734 10.351 1.86734 10.2947C1.88611 10.2009 1.90488 10.0978 1.91426 10.0134C1.92364 9.82592 1.99871 9.6384 1.99871 9.4415C2.01748 9.39462 2.04563 9.23524 2.04563 9.18836C2.0644 9.0946 2.08316 8.99146 2.09255 8.90708L2.177 8.39141C2.18638 8.3539 2.18638 8.34453 2.18638 8.30702C2.18638 8.28827 2.18638 8.28827 2.19577 8.26952L2.20515 8.25077C2.20515 8.11013 2.25207 7.94136 2.27084 7.8101C2.27084 7.75385 2.31776 7.48195 2.33652 7.45382C2.33652 7.33193 2.37406 7.28505 2.37406 7.17254C2.38344 7.12566 2.42098 6.9569 2.42098 6.90064C2.42098 6.83501 2.43974 6.80688 2.44913 6.74125L2.52419 6.34747C2.52419 6.22558 2.54296 6.16932 2.56173 6.05681C2.57111 6.01931 2.59926 5.84117 2.60865 5.79429C2.61803 5.70991 2.6368 5.65365 2.64618 5.55989C2.65557 5.49426 2.73063 4.96921 2.75879 4.94108C2.75879 4.8567 2.76817 4.83795 2.78694 4.76294C2.79632 4.69731 2.83385 4.36916 2.86201 4.34103C2.86201 4.23789 2.88077 4.16289 2.89954 4.05975C2.91831 3.96599 2.91831 3.90036 2.94646 3.82536L3.04968 3.23468C3.04968 3.15967 3.13413 2.65337 3.1529 2.62524C3.1529 2.54086 3.22797 2.09082 3.25612 2.03456C3.25612 1.96893 3.30304 1.67828 3.3218 1.64078C3.3218 1.55639 3.34995 1.40638 3.36872 1.322C3.36872 1.26574 3.49071 0.571928 3.50009 0.534425C3.50009 0.403163 3.54701 0.243773 3.56578 0.11251C3.56578 0.0375035 3.57516 0.0562552 3.58454 0H23.9939L23.9001 0.618808C23.8813 0.712566 23.9095 0.656311 23.8626 0.693815L23.8719 0.740694C23.8438 0.881332 23.7687 1.50014 23.7218 1.56577C23.7312 1.65015 23.6467 2.21271 23.6092 2.26896C23.6186 2.36272 23.5341 2.83151 23.506 2.94402L23.4497 3.2628L23.2714 4.23789C23.2808 4.30353 23.1963 4.8192 23.1682 4.86608C23.1776 5.00672 23.1213 5.22236 23.0931 5.37238L23.0086 5.8693C22.9993 5.88805 22.9993 5.88805 22.9993 5.9068L22.9899 5.93493C22.9993 6.00993 22.9805 6.18808 22.9336 6.24433C22.943 6.34747 22.896 6.54436 22.8773 6.64749C22.8585 6.76 22.7834 7.3038 22.7459 7.35068C22.7553 7.43507 22.6896 7.88511 22.6427 7.94136C22.6521 7.98824 22.6052 8.37265 22.5582 8.42891C22.577 8.5508 22.4644 9.01021 22.4456 9.17898C22.4175 9.28211 22.4081 9.39462 22.3893 9.49776L22.3236 9.82592C22.333 9.87279 22.2767 10.351 22.2204 10.426C22.2392 10.501 22.211 10.6791 22.1641 10.7354C22.1735 10.8198 22.1454 10.9135 22.136 11.0073L22.0328 11.5229C22.0421 11.5886 22.014 11.8042 21.9764 11.8511C21.9858 11.9449 21.9389 12.273 21.892 12.3386C21.9014 12.4324 21.8732 12.5355 21.8545 12.6293C21.8451 12.6949 21.8263 12.8637 21.7888 12.9106C21.7982 12.9668 21.7888 13.0137 21.7794 13.07C21.7794 13.0981 21.77 13.1262 21.7606 13.1544C21.7512 13.2106 21.7606 13.1825 21.7325 13.22C21.7419 13.2856 21.7325 13.3231 21.7231 13.3794C21.7231 13.3981 21.7137 13.4356 21.7137 13.4544C21.7043 13.5106 21.7137 13.4825 21.6856 13.52L21.6293 13.9607C21.5917 14.0732 21.6668 13.8669 21.6199 13.9888C21.6199 13.9888 21.6105 14.0076 21.6105 13.9982C21.6105 13.9982 21.6105 14.0076 21.6011 14.0076C21.6105 14.0638 21.6011 14.1107 21.5917 14.1669L21.5542 14.3076C21.573 14.3826 21.5073 14.7764 21.4697 14.8326C21.4791 14.9264 21.4134 15.3671 21.3665 15.4233C21.3759 15.5171 21.329 15.864 21.2821 15.9202C21.2914 15.9952 21.2727 16.164 21.2351 16.2203C21.2445 16.3046 21.2164 16.4078 21.1976 16.5015L21.1319 16.9141C21.1225 16.9797 21.085 17.2422 21.0569 17.2985C21.0756 17.3922 21.0381 17.5141 21.0193 17.6173C21.0006 17.711 21.0006 17.8423 20.9536 17.9079C20.963 17.9923 20.9349 18.0861 20.9255 18.1704C20.9161 18.2454 20.9067 18.358 20.8692 18.4048C20.8879 18.5173 20.8223 18.7517 20.8035 18.8736C20.7847 18.9955 20.7847 19.2205 20.719 19.3049C20.7284 19.3987 20.6815 19.7456 20.6346 19.8018C20.644 19.8862 20.5689 20.355 20.5314 20.4019C20.5408 20.5144 20.4751 20.8238 20.4563 20.9551C20.4375 21.0957 20.4657 21.1145 20.3249 21.1238H2.68372V21.1145C2.1207 21.1145 1.55768 21.1145 1.00405 21.1238H0C0.00938362 21.0488 0.0281509 20.9645 0.0469181 20.8801L0.121987 20.3925C0.131371 20.355 0.150138 20.1863 0.168905 20.1675C0.168905 20.1112 0.234591 19.68 0.253358 19.6518C0.253358 19.5862 0.272125 19.4924 0.281509 19.4362C0.487948 18.2361 0.328427 19.2768 0.572401 17.6923L0.600552 17.7204ZM4.87948 19.3518H8.05115C9.03643 14.5045 10.3501 6.77876 11.2228 1.70641H8.0793C8.11684 2.82214 5.02962 18.5173 4.88887 19.3612L4.87948 19.3518ZM12.818 14.2232C12.7899 14.2888 12.7805 14.4107 12.7711 14.4951C12.7617 14.5795 12.7242 14.6826 12.7242 14.7764C12.7242 14.8326 12.696 14.9076 12.6867 14.9639C12.6773 15.0295 12.6585 15.1139 12.6491 15.1889C12.6304 15.217 12.5834 15.5077 12.5834 15.5733C12.5553 15.6108 12.4802 16.089 12.4802 16.1734L12.377 16.6984C12.3582 16.8391 12.3113 16.9516 12.3301 17.1297C12.3582 17.411 12.6022 17.5891 12.9025 17.5423C13.1277 17.5048 13.1089 17.486 13.2591 17.4016C13.3154 17.3079 13.5406 17.1203 13.5218 16.9703C13.5593 16.9141 13.625 16.4828 13.6344 16.4172C13.6626 16.2953 13.7376 15.9202 13.7282 15.8265L13.7376 15.7983C13.7376 15.789 13.8127 15.5733 13.7939 15.4421L13.8221 15.3483C13.8315 15.3202 13.8315 15.2827 13.8408 15.2452C13.8502 15.1795 13.8784 15.1045 13.8596 15.0389C13.869 15.0201 13.869 15.0389 13.8784 15.0014L13.8971 14.917C13.9065 14.8514 13.9065 14.8514 13.9065 14.7951C13.9534 14.7389 13.9722 14.4857 13.991 14.392C14.0098 14.2701 14.0754 14.0076 14.0661 13.9044L14.1317 13.6231C14.1505 13.52 14.1787 13.4169 14.1693 13.3231C14.1974 13.2856 14.1974 13.2294 14.188 13.1731C14.2725 13.0418 14.1411 12.5355 14.0942 12.3949C14.0473 12.2636 13.8033 11.8699 13.7282 11.8324C13.7095 11.7855 13.503 11.5042 13.4561 11.4761C13.4374 11.4198 13.4561 11.4667 13.4186 11.4198L13.1558 11.0917L13.0902 10.9885C13.0057 10.8854 12.6116 10.3697 12.5741 10.3603C12.5553 10.2947 12.3958 10.1072 12.3395 10.0416C12.2925 9.9853 12.133 9.76028 12.0955 9.74153C12.0767 9.70403 11.8515 9.38525 11.814 9.3665C11.7671 9.25399 11.6826 9.15085 11.6169 9.03834C11.5888 8.99146 11.5512 8.92583 11.5231 8.8602C11.5043 8.81332 11.4762 8.71956 11.448 8.68206C11.4105 8.46641 11.3917 8.36328 11.4011 8.12888L11.4856 7.52883L11.6263 6.74125C11.6545 6.60999 11.7295 6.27246 11.7108 6.15995C11.7577 6.09432 11.7952 5.79429 11.7952 5.70053C11.8328 5.65365 11.9078 5.17548 11.8984 5.10985C11.9641 5.00672 11.9923 4.56605 12.0392 4.40666C12.058 4.2754 12.133 3.98475 12.1236 3.87224C12.1424 3.85348 12.133 3.87224 12.1424 3.83473L12.1799 3.67534C12.1987 3.60971 12.2269 3.5347 12.2175 3.46907C12.2456 3.43157 12.2362 3.45032 12.255 3.39407C12.2644 3.36594 12.2738 3.34719 12.2832 3.31906C12.3019 3.2628 12.3207 3.2253 12.3207 3.15967C12.3676 3.11279 12.4239 2.9534 12.4521 2.87839L12.6022 2.59712C12.6491 2.56899 12.696 2.49398 12.7336 2.4471C12.7805 2.38147 12.818 2.35334 12.8743 2.30646C12.9213 2.26896 13.184 2.09082 13.1934 2.07207C13.2778 2.04394 13.3717 1.97831 13.4655 1.94081C13.5593 1.9033 13.6438 1.8658 13.747 1.83767C13.9628 1.77204 14.1505 1.74391 14.3851 1.72516C15.0513 1.70641 15.7363 1.72516 16.412 1.72516C17.0594 1.72516 17.6694 1.78142 18.0166 2.15645C18.0916 2.23146 18.2512 2.4471 18.2981 2.57837C18.3356 2.69088 18.3825 2.77526 18.4107 2.89714C18.4388 3.02841 18.4482 3.15029 18.4482 3.30968C18.4482 3.36594 18.4388 3.46907 18.4294 3.54408C18.4201 3.61909 18.4013 3.71285 18.4013 3.79723C18.3919 3.88161 18.3638 3.98475 18.3544 4.06913C18.345 4.16289 18.3262 4.29415 18.2981 4.36916C18.2981 4.43479 18.2699 4.53792 18.2605 4.61293C18.2418 4.70669 18.223 4.80045 18.2136 4.88483C18.2042 4.91296 18.1667 5.1286 18.1667 5.16611C18.1573 5.23174 18.1385 5.30674 18.1198 5.39113C18.101 5.48489 18.0822 5.56927 18.0822 5.66303C18.0541 5.74741 18.0447 5.85992 18.0259 5.96306C18.0072 6.08494 17.9884 6.1787 17.9696 6.29121C17.9696 6.35684 17.9321 6.51623 17.9227 6.57249C17.9133 6.62874 17.9133 6.64749 17.904 6.71313C17.8946 6.76 17.8758 6.81626 17.8758 6.88189C17.8664 6.94752 17.8477 7.0319 17.8289 7.10691C17.8101 7.19129 17.7914 7.28505 17.7914 7.36006C17.782 7.41632 17.7632 7.49132 17.7444 7.56633L15.239 7.57571C15.239 7.39756 15.3516 7.07878 15.3422 6.91002C15.3891 6.85376 15.4361 6.49748 15.4267 6.4131C15.4454 6.38497 15.4361 6.4131 15.4454 6.36622L15.5205 5.8693C15.5768 5.80367 15.6237 5.26924 15.6613 5.14735C15.68 5.01609 15.7363 4.8192 15.727 4.69731C15.7645 4.64106 15.7645 4.50042 15.7926 4.43479L15.802 4.34103L15.8302 4.21914C15.9052 3.85348 15.7645 3.5347 15.3798 3.5347C15.0701 3.5347 14.7511 3.72222 14.6572 3.98475C14.6385 4.03163 14.6385 4.05975 14.6197 4.09726C14.6009 4.19102 14.5728 4.32228 14.5728 4.41604C14.554 4.50042 14.5446 4.55667 14.5259 4.65043C14.5071 4.74419 14.4883 4.8192 14.4883 4.92233L14.4508 5.06297L14.4226 5.23174C14.4039 5.35362 14.3757 5.46613 14.3663 5.57864C14.3382 5.5974 14.3476 5.65365 14.3382 5.70053C14.3288 5.76616 14.3194 5.78491 14.31 5.84117C14.3006 5.92555 14.2631 6.04744 14.2631 6.13182C14.2443 6.20683 14.235 6.27246 14.2162 6.36622C14.1974 6.45998 14.1787 6.53498 14.1787 6.63812C14.1505 6.67562 14.113 6.94752 14.1036 7.04128C14.0942 7.10691 14.0754 7.36944 14.0942 7.43507C14.113 7.49132 14.0754 7.45382 14.1224 7.48195C14.0754 7.61321 14.2443 7.94136 14.3194 8.07263C14.3663 8.14763 14.31 8.10075 14.3851 8.13826C14.3757 8.18514 14.3757 8.14763 14.3851 8.18514C14.3851 8.20389 14.4039 8.22264 14.4132 8.24139L14.8637 8.85082C14.9012 8.87895 14.8355 8.85082 14.9012 8.87895C14.9012 8.93521 15.1264 9.19773 15.1733 9.23524L15.5111 9.62902C15.5111 9.6384 15.4924 9.6384 15.5393 9.70403L15.9615 10.2291L16.1961 10.5197C16.2618 10.6041 16.2337 10.5854 16.29 10.6135C16.2994 10.6697 16.4307 10.8291 16.4683 10.8948C16.5433 11.0073 16.609 11.1667 16.6653 11.1948C16.6465 11.251 16.6559 11.2135 16.6841 11.2792C16.7029 11.3073 16.7029 11.3167 16.7216 11.3636L16.8436 11.7105C16.8811 11.8511 16.853 11.8605 16.8999 11.898C16.853 12.0105 16.8811 12.1793 16.8811 12.3011C16.8718 12.3762 16.8624 12.3949 16.8624 12.4887C16.8436 12.5168 16.7779 12.9762 16.7779 13.0512C16.7498 13.0793 16.7779 13.0418 16.7592 13.0887C16.7592 13.0981 16.7498 13.1544 16.7498 13.1544C16.7404 13.22 16.731 13.2575 16.731 13.3137C16.7122 13.3512 16.6465 13.7357 16.6465 13.7919C16.6278 13.8669 16.609 13.9794 16.5996 14.0732C16.5902 14.1763 16.5527 14.2701 16.5527 14.392C16.5339 14.4107 16.5339 14.4576 16.5246 14.4951C16.5152 14.5514 16.5152 14.5795 16.5058 14.6264C16.487 14.7201 16.4776 14.8233 16.4589 14.9076C16.4589 15.0014 16.412 15.1327 16.412 15.2452C16.3932 15.2733 16.365 15.4608 16.365 15.5171C16.3463 15.6483 16.3087 15.7796 16.2994 15.9202C16.2806 15.9671 16.2337 16.2484 16.2337 16.3234C16.2055 16.3421 16.2055 16.4172 16.2055 16.4547C16.1961 16.5203 16.1868 16.5484 16.1774 16.614C16.1586 16.7266 16.1305 16.8484 16.1211 16.961C16.1023 17.0078 16.0835 17.111 16.0741 17.1672C16.0554 17.2329 16.0272 17.336 16.0178 17.411L15.8583 17.861C15.7739 18.0673 15.6707 18.1892 15.6331 18.283C15.6144 18.2923 15.5017 18.4517 15.4736 18.4892C15.4361 18.5361 15.4267 18.5455 15.3891 18.5924L15.2859 18.7049C15.2109 18.808 14.9106 19.0236 14.7698 19.0799C14.6948 19.108 14.6291 19.1268 14.554 19.1737C14.4695 19.183 14.1411 19.2955 13.8408 19.3049L13.0057 19.3237C12.8462 19.3237 12.743 19.3424 12.6022 19.3424H11.5137C11.4105 19.3424 11.3917 19.3237 11.2979 19.3237C11.251 19.3237 11.1196 19.2955 11.0633 19.2862C11.0258 19.2768 10.9976 19.2768 10.9507 19.2674C10.9038 19.258 10.885 19.2393 10.8287 19.2393C10.5003 19.1643 10.4064 19.0518 10.2375 18.9299C10.2094 18.9111 10.2282 18.9205 10.2094 18.9111C10.1812 18.8643 10.2094 18.9018 10.1718 18.8549C10.1625 18.8361 10.1531 18.8361 10.1437 18.8174L9.82465 18.2173C9.81527 18.1329 9.78712 18.0579 9.77774 17.9735C9.76835 17.8798 9.78712 17.7954 9.76835 17.711C9.7965 17.6548 9.83404 17.2235 9.84342 17.1203C9.86219 16.9703 9.93726 16.6609 9.92787 16.539C9.96541 16.4828 9.99356 16.2859 9.98418 16.2203L9.99356 16.1921C9.99356 16.1921 10.078 15.8827 10.0592 15.7608C10.0968 15.714 10.1906 15.1608 10.1812 15.0764L10.2188 14.9358C10.2282 14.8701 10.2469 14.8326 10.2282 14.7764L10.2469 14.7201C10.2469 14.7107 10.2563 14.6732 10.2563 14.6639C10.2657 14.6264 10.2657 14.5889 10.2751 14.5514C10.2845 14.4763 10.3126 14.392 10.3032 14.317C10.3501 14.2513 10.3971 13.9419 10.3877 13.8482C10.4252 13.7919 10.5003 13.2669 10.519 13.1544C10.5753 13.1075 11.7014 13.1356 11.7671 13.1356H13.0432L12.9494 13.6888L12.9119 13.9044C12.8931 14.0076 12.8556 14.1107 12.8556 14.2232H12.818Z" fill="white"/>
</svg>
