<svg width="200" height="30" viewBox="0 0 200 30" fill="none" xmlns="http://www.w3.org/2000/svg">
<path d="M0 0H9.19646L15.5223 16.2198H15.8413L22.1672 0H31.3636V28.6364H24.1341V12.081H23.9214L17.8613 28.4126H13.5023L7.44222 11.9691H7.22958V28.6364H0V0Z" fill="#F58025"/>
<path d="M0 0H9.19646L15.5223 16.2198H15.8413L22.1672 0H31.3636V28.6364H24.1341V12.081H23.9214L17.8613 28.4126H13.5023L7.44222 11.9691H7.22958V28.6364H0V0Z" fill="url(#paint0_linear)"/>
<path d="M79.0909 29.6763V25.5216L92.043 8.09352H79.1444V2.05036H101.516V6.20503L88.5641 23.6331H101.463V29.6763H79.0909Z" fill="#00AEEF"/>
<path d="M79.0909 29.6763V25.5216L92.043 8.09352H79.1444V2.05036H101.516V6.20503L88.5641 23.6331H101.463V29.6763H79.0909Z" fill="url(#paint1_linear)"/>
<path d="M110.979 30C108.928 30 107.3 29.4919 106.096 28.4757C104.891 27.4595 104.289 25.9532 104.289 23.9568C104.289 22.8507 104.477 21.8885 104.851 21.0701C105.235 20.2428 105.779 19.5773 106.484 19.0737C107.188 18.5611 107.978 18.17 108.852 17.9002C109.735 17.6304 110.73 17.455 111.836 17.3741C113.62 17.2392 114.86 17.0459 115.555 16.7941C116.251 16.5423 116.599 16.1241 116.599 15.5396V15.4856C116.599 14.955 116.398 14.5459 115.997 14.2581C115.596 13.9613 115.065 13.8129 114.405 13.8129C113.682 13.8129 113.102 13.9703 112.665 14.2851C112.237 14.5998 111.978 15.0719 111.889 15.7014H105.092C105.155 14.7392 105.395 13.8444 105.815 13.0171C106.234 12.1808 106.823 11.4388 107.581 10.7914C108.339 10.1349 109.311 9.6223 110.498 9.2536C111.684 8.8759 113.022 8.68705 114.512 8.68705C117.384 8.68705 119.681 9.33004 121.403 10.616C123.124 11.902 123.985 13.5252 123.985 15.4856V29.6763H117.081V26.7626H116.92C115.761 28.9209 113.78 30 110.979 30ZM113.388 25.3058C114.271 25.3058 115.034 25.036 115.676 24.4964C116.327 23.9568 116.653 23.2374 116.653 22.3381V20.6115C115.921 20.9173 114.94 21.1691 113.709 21.3669C112.879 21.5018 112.259 21.7581 111.849 22.1358C111.448 22.5045 111.247 22.9676 111.247 23.5252C111.247 24.0917 111.443 24.5324 111.836 24.8471C112.228 25.1529 112.746 25.3058 113.388 25.3058Z" fill="#00AEEF"/>
<path d="M110.979 30C108.928 30 107.3 29.4919 106.096 28.4757C104.891 27.4595 104.289 25.9532 104.289 23.9568C104.289 22.8507 104.477 21.8885 104.851 21.0701C105.235 20.2428 105.779 19.5773 106.484 19.0737C107.188 18.5611 107.978 18.17 108.852 17.9002C109.735 17.6304 110.73 17.455 111.836 17.3741C113.62 17.2392 114.86 17.0459 115.555 16.7941C116.251 16.5423 116.599 16.1241 116.599 15.5396V15.4856C116.599 14.955 116.398 14.5459 115.997 14.2581C115.596 13.9613 115.065 13.8129 114.405 13.8129C113.682 13.8129 113.102 13.9703 112.665 14.2851C112.237 14.5998 111.978 15.0719 111.889 15.7014H105.092C105.155 14.7392 105.395 13.8444 105.815 13.0171C106.234 12.1808 106.823 11.4388 107.581 10.7914C108.339 10.1349 109.311 9.6223 110.498 9.2536C111.684 8.8759 113.022 8.68705 114.512 8.68705C117.384 8.68705 119.681 9.33004 121.403 10.616C123.124 11.902 123.985 13.5252 123.985 15.4856V29.6763H117.081V26.7626H116.92C115.761 28.9209 113.78 30 110.979 30ZM113.388 25.3058C114.271 25.3058 115.034 25.036 115.676 24.4964C116.327 23.9568 116.653 23.2374 116.653 22.3381V20.6115C115.921 20.9173 114.94 21.1691 113.709 21.3669C112.879 21.5018 112.259 21.7581 111.849 22.1358C111.448 22.5045 111.247 22.9676 111.247 23.5252C111.247 24.0917 111.443 24.5324 111.836 24.8471C112.228 25.1529 112.746 25.3058 113.388 25.3058Z" fill="url(#paint2_linear)"/>
<path d="M127.514 29.6763V8.95683H134.9V29.6763H127.514ZM133.776 5.80036C133.071 6.46583 132.215 6.79856 131.207 6.79856C130.199 6.79856 129.338 6.46583 128.625 5.80036C127.92 5.13489 127.568 4.33453 127.568 3.39928C127.568 2.46403 127.92 1.66367 128.625 0.9982C129.338 0.332733 130.199 0 131.207 0C132.215 0 133.071 0.332733 133.776 0.9982C134.49 1.66367 134.846 2.46403 134.846 3.39928C134.846 4.33453 134.49 5.13489 133.776 5.80036Z" fill="#00AEEF"/>
<path d="M127.514 29.6763V8.95683H134.9V29.6763H127.514ZM133.776 5.80036C133.071 6.46583 132.215 6.79856 131.207 6.79856C130.199 6.79856 129.338 6.46583 128.625 5.80036C127.92 5.13489 127.568 4.33453 127.568 3.39928C127.568 2.46403 127.92 1.66367 128.625 0.9982C129.338 0.332733 130.199 0 131.207 0C132.215 0 133.071 0.332733 133.776 0.9982C134.49 1.66367 134.846 2.46403 134.846 3.39928C134.846 4.33453 134.49 5.13489 133.776 5.80036Z" fill="url(#paint3_linear)"/>
<path d="M138.663 29.6763V8.95683H145.674V12.8957H145.888C146.317 11.5917 147.048 10.5665 148.083 9.82014C149.126 9.06475 150.357 8.68705 151.776 8.68705C153.23 8.68705 154.474 9.07374 155.509 9.84712C156.552 10.6205 157.181 11.6367 157.395 12.8957H157.61C157.957 11.6277 158.698 10.6115 159.831 9.84712C160.963 9.07374 162.293 8.68705 163.818 8.68705C165.798 8.68705 167.399 9.33004 168.621 10.616C169.844 11.893 170.455 13.5881 170.455 15.7014V29.6763H163.069V17.5899C163.069 16.6906 162.841 15.9802 162.386 15.4586C161.931 14.937 161.32 14.6763 160.553 14.6763C159.786 14.6763 159.184 14.937 158.747 15.4586C158.31 15.9802 158.091 16.6906 158.091 17.5899V29.6763H151.026V17.5899C151.026 16.6906 150.799 15.9802 150.344 15.4586C149.889 14.937 149.278 14.6763 148.511 14.6763C147.744 14.6763 147.142 14.937 146.705 15.4586C146.268 15.9802 146.049 16.6906 146.049 17.5899V29.6763H138.663Z" fill="#00AEEF"/>
<path d="M138.663 29.6763V8.95683H145.674V12.8957H145.888C146.317 11.5917 147.048 10.5665 148.083 9.82014C149.126 9.06475 150.357 8.68705 151.776 8.68705C153.23 8.68705 154.474 9.07374 155.509 9.84712C156.552 10.6205 157.181 11.6367 157.395 12.8957H157.61C157.957 11.6277 158.698 10.6115 159.831 9.84712C160.963 9.07374 162.293 8.68705 163.818 8.68705C165.798 8.68705 167.399 9.33004 168.621 10.616C169.844 11.893 170.455 13.5881 170.455 15.7014V29.6763H163.069V17.5899C163.069 16.6906 162.841 15.9802 162.386 15.4586C161.931 14.937 161.32 14.6763 160.553 14.6763C159.786 14.6763 159.184 14.937 158.747 15.4586C158.31 15.9802 158.091 16.6906 158.091 17.5899V29.6763H151.026V17.5899C151.026 16.6906 150.799 15.9802 150.344 15.4586C149.889 14.937 149.278 14.6763 148.511 14.6763C147.744 14.6763 147.142 14.937 146.705 15.4586C146.268 15.9802 146.049 16.6906 146.049 17.5899V29.6763H138.663Z" fill="url(#paint4_linear)"/>
<path d="M172.125 16.3636V13.2107L177.977 8.22911C178.416 7.85602 178.755 7.54335 178.995 7.29112C179.235 7.03363 179.437 6.73936 179.601 6.4083C179.764 6.07725 179.846 5.7278 179.846 5.35996C179.846 4.75039 179.659 4.26695 179.286 3.90962C178.919 3.55229 178.436 3.37362 177.839 3.37362C177.236 3.37362 176.754 3.56017 176.391 3.93326C176.034 4.3011 175.857 4.81871 175.863 5.48607H171.818C171.818 4.36679 172.063 3.39201 172.554 2.56174C173.049 1.73148 173.751 1.09827 174.66 0.662113C175.569 0.220704 176.629 0 177.839 0C179.713 0 181.207 0.454546 182.32 1.36364C183.438 2.26747 183.997 3.47346 183.997 4.98161C183.997 5.47031 183.931 5.93274 183.798 6.36889C183.665 6.79979 183.43 7.27535 183.093 7.79559C182.756 8.31056 182.297 8.86758 181.715 9.46663C181.138 10.0604 180.402 10.7409 179.509 11.5081L178.038 12.7693V12.8639H184.166V16.3636H172.125Z" fill="#FF9703"/>
<path d="M172.125 16.3636V13.2107L177.977 8.22911C178.416 7.85602 178.755 7.54335 178.995 7.29112C179.235 7.03363 179.437 6.73936 179.601 6.4083C179.764 6.07725 179.846 5.7278 179.846 5.35996C179.846 4.75039 179.659 4.26695 179.286 3.90962C178.919 3.55229 178.436 3.37362 177.839 3.37362C177.236 3.37362 176.754 3.56017 176.391 3.93326C176.034 4.3011 175.857 4.81871 175.863 5.48607H171.818C171.818 4.36679 172.063 3.39201 172.554 2.56174C173.049 1.73148 173.751 1.09827 174.66 0.662113C175.569 0.220704 176.629 0 177.839 0C179.713 0 181.207 0.454546 182.32 1.36364C183.438 2.26747 183.997 3.47346 183.997 4.98161C183.997 5.47031 183.931 5.93274 183.798 6.36889C183.665 6.79979 183.43 7.27535 183.093 7.79559C182.756 8.31056 182.297 8.86758 181.715 9.46663C181.138 10.0604 180.402 10.7409 179.509 11.5081L178.038 12.7693V12.8639H184.166V16.3636H172.125Z" fill="url(#paint5_linear)"/>
<path d="M185.579 13.8413V10.4362L191.891 0.220704H197.283V10.4362H199.091V13.8413H197.283V16.3636H193.208V13.8413H185.579ZM193.3 10.4362V4.7609H193.178L189.777 10.31V10.4362H193.3Z" fill="#FF9703"/>
<path d="M185.579 13.8413V10.4362L191.891 0.220704H197.283V10.4362H199.091V13.8413H197.283V16.3636H193.208V13.8413H185.579ZM193.3 10.4362V4.7609H193.178L189.777 10.31V10.4362H193.3Z" fill="url(#paint6_linear)"/>
<path d="M49.6092 28.6364C47.9435 29.5455 45.9788 30.0001 43.715 30.0001C41.4512 30.0001 39.4865 29.5455 37.8208 28.6364C36.1552 27.7182 34.8898 26.4418 34.0248 24.8072C33.1598 23.1635 32.7273 21.2581 32.7273 19.091C32.7273 16.9238 33.1598 15.023 34.0248 13.3885C34.8898 11.7448 36.1552 10.4684 37.8208 9.55929C39.4865 8.64102 41.4512 8.18188 43.715 8.18188C45.9788 8.18188 47.9435 8.64102 49.6092 9.55929C51.2748 10.4684 52.5402 11.7448 53.4052 13.3885C54.2702 15.023 54.7027 16.9238 54.7027 19.091C54.7027 21.2581 54.2702 23.1635 53.4052 24.8072C52.5402 26.4418 51.2748 27.7182 49.6092 28.6364ZM43.7702 24.3802C44.7365 24.3802 45.5003 23.9027 46.0616 22.9477C46.6322 21.9927 46.9174 20.6888 46.9174 19.0359C46.9174 17.383 46.6322 16.079 46.0616 15.124C45.5003 14.169 44.7365 13.6915 43.7702 13.6915C42.7487 13.6915 41.9481 14.169 41.3684 15.124C40.7978 16.0699 40.5125 17.3738 40.5125 19.0359C40.5125 20.698 40.7978 22.0065 41.3684 22.9615C41.9481 23.9073 42.7487 24.3802 43.7702 24.3802Z" fill="#FF9703"/>
<path d="M49.6092 28.6364C47.9435 29.5455 45.9788 30.0001 43.715 30.0001C41.4512 30.0001 39.4865 29.5455 37.8208 28.6364C36.1552 27.7182 34.8898 26.4418 34.0248 24.8072C33.1598 23.1635 32.7273 21.2581 32.7273 19.091C32.7273 16.9238 33.1598 15.023 34.0248 13.3885C34.8898 11.7448 36.1552 10.4684 37.8208 9.55929C39.4865 8.64102 41.4512 8.18188 43.715 8.18188C45.9788 8.18188 47.9435 8.64102 49.6092 9.55929C51.2748 10.4684 52.5402 11.7448 53.4052 13.3885C54.2702 15.023 54.7027 16.9238 54.7027 19.091C54.7027 21.2581 54.2702 23.1635 53.4052 24.8072C52.5402 26.4418 51.2748 27.7182 49.6092 28.6364ZM43.7702 24.3802C44.7365 24.3802 45.5003 23.9027 46.0616 22.9477C46.6322 21.9927 46.9174 20.6888 46.9174 19.0359C46.9174 17.383 46.6322 16.079 46.0616 15.124C45.5003 14.169 44.7365 13.6915 43.7702 13.6915C42.7487 13.6915 41.9481 14.169 41.3684 15.124C40.7978 16.0699 40.5125 17.3738 40.5125 19.0359C40.5125 20.698 40.7978 22.0065 41.3684 22.9615C41.9481 23.9073 42.7487 24.3802 43.7702 24.3802Z" fill="url(#paint7_linear)"/>
<path d="M77.1751 15.3444H70.1628C70.1076 14.7108 69.8086 14.2058 69.2656 13.8293C68.7227 13.4436 68.0647 13.2508 67.2917 13.2508C66.6107 13.2508 66.0401 13.3747 65.58 13.6227C65.1291 13.8706 64.9082 14.2058 64.9174 14.6282C64.8806 15.372 65.5616 15.8678 66.9604 16.1158L71.2671 16.8871C73.4389 17.282 75.054 17.9477 76.1122 18.8844C77.1797 19.8118 77.7181 21.0561 77.7273 22.6171C77.7181 24.0956 77.2671 25.3995 76.3745 26.529C75.4911 27.6585 74.2809 28.5216 72.7441 29.1185C71.2073 29.7062 69.4635 30.0001 67.5125 30.0001C64.3285 30.0001 61.807 29.3527 59.9481 28.0579C58.0984 26.754 57.0678 24.9955 56.8561 22.7824H64.4205C64.5217 23.4528 64.853 23.9716 65.4144 24.3389C65.9757 24.697 66.6935 24.8761 67.5678 24.8761C68.2855 24.8761 68.8653 24.7567 69.307 24.518C69.7579 24.27 69.988 23.9303 69.9972 23.4987C69.988 23.1038 69.7901 22.787 69.4036 22.5483C69.0171 22.3095 68.4052 22.1121 67.5678 21.956L63.8132 21.2948C61.6598 20.9183 60.0401 20.2067 58.9543 19.1598C57.8684 18.1038 57.3346 16.7402 57.353 15.0689C57.3438 12.8834 58.2043 11.1892 59.9343 9.98629C61.6736 8.78336 64.0708 8.18188 67.126 8.18188C70.1813 8.18188 72.5923 8.81549 74.3592 10.0827C76.1352 11.3499 77.0739 13.1038 77.1751 15.3444Z" fill="#FF9703"/>
<path d="M77.1751 15.3444H70.1628C70.1076 14.7108 69.8086 14.2058 69.2656 13.8293C68.7227 13.4436 68.0647 13.2508 67.2917 13.2508C66.6107 13.2508 66.0401 13.3747 65.58 13.6227C65.1291 13.8706 64.9082 14.2058 64.9174 14.6282C64.8806 15.372 65.5616 15.8678 66.9604 16.1158L71.2671 16.8871C73.4389 17.282 75.054 17.9477 76.1122 18.8844C77.1797 19.8118 77.7181 21.0561 77.7273 22.6171C77.7181 24.0956 77.2671 25.3995 76.3745 26.529C75.4911 27.6585 74.2809 28.5216 72.7441 29.1185C71.2073 29.7062 69.4635 30.0001 67.5125 30.0001C64.3285 30.0001 61.807 29.3527 59.9481 28.0579C58.0984 26.754 57.0678 24.9955 56.8561 22.7824H64.4205C64.5217 23.4528 64.853 23.9716 65.4144 24.3389C65.9757 24.697 66.6935 24.8761 67.5678 24.8761C68.2855 24.8761 68.8653 24.7567 69.307 24.518C69.7579 24.27 69.988 23.9303 69.9972 23.4987C69.988 23.1038 69.7901 22.787 69.4036 22.5483C69.0171 22.3095 68.4052 22.1121 67.5678 21.956L63.8132 21.2948C61.6598 20.9183 60.0401 20.2067 58.9543 19.1598C57.8684 18.1038 57.3346 16.7402 57.353 15.0689C57.3438 12.8834 58.2043 11.1892 59.9343 9.98629C61.6736 8.78336 64.0708 8.18188 67.126 8.18188C70.1813 8.18188 72.5923 8.81549 74.3592 10.0827C76.1352 11.3499 77.0739 13.1038 77.1751 15.3444Z" fill="url(#paint8_linear)"/>
<defs>
<linearGradient id="paint0_linear" x1="15.7881" y1="-9.09801" x2="15.7881" y2="38.4801" gradientUnits="userSpaceOnUse">
<stop stop-color="#E5E5E5"/>
<stop offset="0.3125" stop-color="#FF9949"/>
<stop offset="0.776042" stop-color="white" stop-opacity="0"/>
<stop offset="1" stop-color="#9E5D2A"/>
</linearGradient>
<linearGradient id="paint1_linear" x1="125.101" y1="-6.72662" x2="125.101" y2="39.1727" gradientUnits="userSpaceOnUse">
<stop stop-color="#00B7FC"/>
<stop offset="0.536458" stop-color="white" stop-opacity="0"/>
<stop offset="1" stop-color="#025878" stop-opacity="0"/>
</linearGradient>
<linearGradient id="paint2_linear" x1="125.101" y1="-6.72662" x2="125.101" y2="39.1727" gradientUnits="userSpaceOnUse">
<stop stop-color="#00B7FC"/>
<stop offset="0.536458" stop-color="white" stop-opacity="0"/>
<stop offset="1" stop-color="#025878" stop-opacity="0"/>
</linearGradient>
<linearGradient id="paint3_linear" x1="125.101" y1="-6.72662" x2="125.101" y2="39.1727" gradientUnits="userSpaceOnUse">
<stop stop-color="#00B7FC"/>
<stop offset="0.536458" stop-color="white" stop-opacity="0"/>
<stop offset="1" stop-color="#025878" stop-opacity="0"/>
</linearGradient>
<linearGradient id="paint4_linear" x1="125.101" y1="-6.72662" x2="125.101" y2="39.1727" gradientUnits="userSpaceOnUse">
<stop stop-color="#00B7FC"/>
<stop offset="0.536458" stop-color="white" stop-opacity="0"/>
<stop offset="1" stop-color="#025878" stop-opacity="0"/>
</linearGradient>
<linearGradient id="paint5_linear" x1="185.463" y1="-5.21633" x2="185.463" y2="21.9128" gradientUnits="userSpaceOnUse">
<stop stop-color="#E5E5E5"/>
<stop offset="0.3125" stop-color="#FF9949"/>
<stop offset="0.776042" stop-color="white" stop-opacity="0"/>
<stop offset="1" stop-color="#9E5D2A"/>
</linearGradient>
<linearGradient id="paint6_linear" x1="185.463" y1="-5.21633" x2="185.463" y2="21.9128" gradientUnits="userSpaceOnUse">
<stop stop-color="#E5E5E5"/>
<stop offset="0.3125" stop-color="#FF9949"/>
<stop offset="0.776042" stop-color="white" stop-opacity="0"/>
<stop offset="1" stop-color="#9E5D2A"/>
</linearGradient>
<linearGradient id="paint7_linear" x1="55.4574" y1="-7.55732" x2="55.4574" y2="39.3114" gradientUnits="userSpaceOnUse">
<stop stop-color="#E5E5E5"/>
<stop offset="0.3125" stop-color="#FF9949"/>
<stop offset="0.776042" stop-color="white" stop-opacity="0"/>
<stop offset="1" stop-color="#9E5D2A"/>
</linearGradient>
<linearGradient id="paint8_linear" x1="55.4574" y1="-7.55732" x2="55.4574" y2="39.3114" gradientUnits="userSpaceOnUse">
<stop stop-color="#E5E5E5"/>
<stop offset="0.3125" stop-color="#FF9949"/>
<stop offset="0.776042" stop-color="white" stop-opacity="0"/>
<stop offset="1" stop-color="#9E5D2A"/>
</linearGradient>
</defs>
</svg>
