<svg width="167" height="26" viewBox="0 0 167 26" fill="none" xmlns="http://www.w3.org/2000/svg">
<path d="M0 0.835938H7.71411L13.0203 14.4413H13.2879L18.5941 0.835938H26.3082V24.8565H20.2439V10.9696H20.0656L14.9823 24.6688H11.3259L6.24263 10.8758H6.06427V24.8565H0V0.835938Z" fill="#F58025"/>
<path d="M0 0.835938H7.71411L13.0203 14.4413H13.2879L18.5941 0.835938H26.3082V24.8565H20.2439V10.9696H20.0656L14.9823 24.6688H11.3259L6.24263 10.8758H6.06427V24.8565H0V0.835938Z" fill="url(#paint0_linear)"/>
<path d="M66.3425 25.7288V22.2438L77.2068 7.62489H66.3874V2.5558H85.1531V6.0408L74.2887 20.6597H85.1082V25.7288H66.3425Z" fill="white"/>
<path d="M93.0909 26.0003C91.37 26.0003 90.0044 25.5741 88.9943 24.7217C87.9842 23.8693 87.4792 22.6058 87.4792 20.9312C87.4792 20.0034 87.6363 19.1963 87.9505 18.5098C88.2723 17.8159 88.7287 17.2577 89.3198 16.8352C89.9109 16.4053 90.5731 16.0771 91.3064 15.8508C92.0471 15.6245 92.8814 15.4774 93.8092 15.4096C95.3057 15.2964 96.3457 15.1342 96.9294 14.923C97.513 14.7118 97.8048 14.361 97.8048 13.8707V13.8255C97.8048 13.3804 97.6364 13.0372 97.2997 12.7958C96.963 12.5469 96.5178 12.4224 95.9641 12.4224C95.3581 12.4224 94.8717 12.5544 94.5051 12.8184C94.1459 13.0825 93.9289 13.4785 93.8541 14.0065H88.1526C88.2049 13.1994 88.407 12.4488 88.7586 11.7548C89.1103 11.0533 89.6041 10.431 90.2401 9.88787C90.8761 9.33721 91.6917 8.90725 92.6869 8.59797C93.682 8.28115 94.8044 8.12275 96.0539 8.12275C98.4632 8.12275 100.39 8.66209 101.834 9.74078C103.278 10.8195 104 12.181 104 13.8255V25.7288H98.2088V23.2847H98.0742C97.1015 25.0951 95.4404 26.0003 93.0909 26.0003ZM95.1111 22.0627C95.8519 22.0627 96.4916 21.8364 97.0304 21.3838C97.5766 20.9312 97.8497 20.3278 97.8497 19.5734V18.1251C97.2361 18.3816 96.4131 18.5928 95.3805 18.7588C94.6847 18.8719 94.1646 19.0869 93.8204 19.4037C93.4837 19.713 93.3154 20.1015 93.3154 20.5692C93.3154 21.0444 93.48 21.414 93.8092 21.678C94.1384 21.9345 94.5724 22.0627 95.1111 22.0627Z" fill="white"/>
<path d="M106.96 25.7288V8.34904H113.156V25.7288H106.96ZM112.213 5.70135C111.622 6.25956 110.904 6.53866 110.058 6.53866C109.213 6.53866 108.491 6.25956 107.892 5.70135C107.301 5.14315 107.005 4.4718 107.005 3.6873C107.005 2.9028 107.301 2.23144 107.892 1.67324C108.491 1.11504 109.213 0.835938 110.058 0.835938C110.904 0.835938 111.622 1.11504 112.213 1.67324C112.812 2.23144 113.111 2.9028 113.111 3.6873C113.111 4.4718 112.812 5.14315 112.213 5.70135Z" fill="white"/>
<path d="M116.312 25.7288V8.34904H122.193V11.653H122.373C122.732 10.5592 123.346 9.69929 124.214 9.0732C125.089 8.43956 126.122 8.12275 127.311 8.12275C128.531 8.12275 129.575 8.44711 130.443 9.09583C131.318 9.74455 131.846 10.5969 132.025 11.653H132.205C132.497 10.5894 133.118 9.73701 134.068 9.09583C135.018 8.44711 136.133 8.12275 137.413 8.12275C139.074 8.12275 140.417 8.66209 141.442 9.74078C142.467 10.8119 142.979 12.2338 142.979 14.0065V25.7288H136.784V15.5906C136.784 14.8363 136.593 14.2403 136.212 13.8028C135.83 13.3653 135.318 13.1466 134.674 13.1466C134.031 13.1466 133.526 13.3653 133.159 13.8028C132.792 14.2403 132.609 14.8363 132.609 15.5906V25.7288H126.683V15.5906C126.683 14.8363 126.492 14.2403 126.111 13.8028C125.729 13.3653 125.216 13.1466 124.573 13.1466C123.929 13.1466 123.424 13.3653 123.058 13.8028C122.691 14.2403 122.508 14.8363 122.508 15.5906V25.7288H116.312Z" fill="white"/>
<path d="M144.38 14.562V11.9173L149.289 7.73862C149.657 7.42567 149.942 7.1634 150.144 6.95182C150.345 6.73584 150.514 6.489 150.651 6.2113C150.788 5.93361 150.857 5.64049 150.857 5.33194C150.857 4.82063 150.7 4.41511 150.388 4.11537C150.079 3.81564 149.675 3.66577 149.173 3.66577C148.668 3.66577 148.263 3.82225 147.959 4.13521C147.659 4.44376 147.511 4.87793 147.516 5.43773H144.123C144.123 4.49886 144.329 3.6812 144.74 2.98476C145.156 2.28832 145.745 1.75718 146.507 1.39133C147.269 1.02107 148.158 0.835938 149.173 0.835938C150.745 0.835938 151.998 1.21722 152.932 1.97977C153.87 2.73792 154.339 3.74952 154.339 5.01457C154.339 5.4245 154.284 5.81239 154.172 6.17825C154.061 6.53969 153.864 6.9386 153.581 7.37498C153.298 7.80694 152.913 8.27418 152.425 8.77667C151.941 9.27476 151.324 9.84557 150.574 10.4891L149.341 11.547V11.6263H154.481V14.562H144.38Z" fill="#FF9703"/>
<path d="M144.38 14.562V11.9173L149.289 7.73862C149.657 7.42567 149.942 7.1634 150.144 6.95182C150.345 6.73584 150.514 6.489 150.651 6.2113C150.788 5.93361 150.857 5.64049 150.857 5.33194C150.857 4.82063 150.7 4.41511 150.388 4.11537C150.079 3.81564 149.675 3.66577 149.173 3.66577C148.668 3.66577 148.263 3.82225 147.959 4.13521C147.659 4.44376 147.511 4.87793 147.516 5.43773H144.123C144.123 4.49886 144.329 3.6812 144.74 2.98476C145.156 2.28832 145.745 1.75718 146.507 1.39133C147.269 1.02107 148.158 0.835938 149.173 0.835938C150.745 0.835938 151.998 1.21722 152.932 1.97977C153.87 2.73792 154.339 3.74952 154.339 5.01457C154.339 5.4245 154.284 5.81239 154.172 6.17825C154.061 6.53969 153.864 6.9386 153.581 7.37498C153.298 7.80694 152.913 8.27418 152.425 8.77667C151.941 9.27476 151.324 9.84557 150.574 10.4891L149.341 11.547V11.6263H154.481V14.562H144.38Z" fill="url(#paint1_linear)"/>
<path d="M155.666 12.4462V9.58992L160.96 1.02107H165.484V9.58992H167V12.4462H165.484V14.562H162.065V12.4462H155.666ZM162.143 9.58992V4.82944H162.04L159.187 9.48413V9.58992H162.143Z" fill="#FF9703"/>
<path d="M155.666 12.4462V9.58992L160.96 1.02107H165.484V9.58992H167V12.4462H165.484V14.562H162.065V12.4462H155.666ZM162.143 9.58992V4.82944H162.04L159.187 9.48413V9.58992H162.143Z" fill="url(#paint2_linear)"/>
<path d="M41.6128 24.8563C40.2156 25.6188 38.5676 26.0001 36.6687 26.0001C34.7698 26.0001 33.1218 25.6188 31.7246 24.8563C30.3274 24.086 29.2661 23.0153 28.5405 21.6443C27.8149 20.2655 27.4521 18.6672 27.4521 16.8494C27.4521 15.0316 27.8149 13.4372 28.5405 12.0661C29.2661 10.6873 30.3274 9.61668 31.7246 8.85412C33.1218 8.08386 34.7698 7.69873 36.6687 7.69873C38.5676 7.69873 40.2156 8.08386 41.6128 8.85412C43.01 9.61668 44.0714 10.6873 44.797 12.0661C45.5226 13.4372 45.8854 15.0316 45.8854 16.8494C45.8854 18.6672 45.5226 20.2655 44.797 21.6443C44.0714 23.0153 43.01 24.086 41.6128 24.8563ZM36.715 21.2861C37.5255 21.2861 38.1662 20.8856 38.6371 20.0845C39.1157 19.2834 39.355 18.1897 39.355 16.8032C39.355 15.4167 39.1157 14.323 38.6371 13.5219C38.1662 12.7208 37.5255 12.3203 36.715 12.3203C35.8582 12.3203 35.1866 12.7208 34.7003 13.5219C34.2217 14.3153 33.9824 15.409 33.9824 16.8032C33.9824 18.1974 34.2217 19.295 34.7003 20.0961C35.1866 20.8894 35.8582 21.2861 36.715 21.2861Z" fill="#FF9703"/>
<path d="M41.6128 24.8563C40.2156 25.6188 38.5676 26.0001 36.6687 26.0001C34.7698 26.0001 33.1218 25.6188 31.7246 24.8563C30.3274 24.086 29.2661 23.0153 28.5405 21.6443C27.8149 20.2655 27.4521 18.6672 27.4521 16.8494C27.4521 15.0316 27.8149 13.4372 28.5405 12.0661C29.2661 10.6873 30.3274 9.61668 31.7246 8.85412C33.1218 8.08386 34.7698 7.69873 36.6687 7.69873C38.5676 7.69873 40.2156 8.08386 41.6128 8.85412C43.01 9.61668 44.0714 10.6873 44.797 12.0661C45.5226 13.4372 45.8854 15.0316 45.8854 16.8494C45.8854 18.6672 45.5226 20.2655 44.797 21.6443C44.0714 23.0153 43.01 24.086 41.6128 24.8563ZM36.715 21.2861C37.5255 21.2861 38.1662 20.8856 38.6371 20.0845C39.1157 19.2834 39.355 18.1897 39.355 16.8032C39.355 15.4167 39.1157 14.323 38.6371 13.5219C38.1662 12.7208 37.5255 12.3203 36.715 12.3203C35.8582 12.3203 35.1866 12.7208 34.7003 13.5219C34.2217 14.3153 33.9824 15.409 33.9824 16.8032C33.9824 18.1974 34.2217 19.295 34.7003 20.0961C35.1866 20.8894 35.8582 21.2861 36.715 21.2861Z" fill="url(#paint3_linear)"/>
<path d="M64.7355 13.7068H58.8535C58.8072 13.1753 58.5563 12.7516 58.1009 12.4358C57.6455 12.1123 57.0935 11.9506 56.4451 11.9506C55.8739 11.9506 55.3953 12.0545 55.0094 12.2625C54.6311 12.4705 54.4459 12.7516 54.4536 13.106C54.4227 13.7299 54.9939 14.1458 56.1672 14.3538L59.7798 15.0008C61.6015 15.332 62.9562 15.8904 63.8439 16.6761C64.7393 17.4541 65.1909 18.4978 65.1986 19.8072C65.1909 21.0473 64.8127 22.1411 64.0639 23.0885C63.3229 24.0359 62.3078 24.76 61.0187 25.2607C59.7296 25.7536 58.2668 26.0001 56.6304 26.0001C53.9596 26.0001 51.8445 25.4571 50.2853 24.371C48.7337 23.2772 47.8692 21.8022 47.6916 19.9459H54.0368C54.1217 20.5082 54.3996 20.9433 54.8704 21.2515C55.3413 21.5519 55.9434 21.7021 56.6767 21.7021C57.2788 21.7021 57.7651 21.6019 58.1356 21.4016C58.5139 21.1937 58.7068 20.9087 58.7146 20.5467C58.7068 20.2155 58.5409 19.9497 58.2167 19.7494C57.8925 19.5492 57.3791 19.3836 56.6767 19.2526L53.5273 18.698C51.721 18.3822 50.3624 17.7853 49.4516 16.9072C48.5407 16.0214 48.093 14.8776 48.1085 13.4757C48.1007 11.6425 48.8225 10.2213 50.2737 9.21229C51.7326 8.20325 53.7434 7.69873 56.3062 7.69873C58.8689 7.69873 60.8914 8.23021 62.3734 9.29317C63.8632 10.3561 64.6506 11.8273 64.7355 13.7068Z" fill="#FF9703"/>
<path d="M64.7355 13.7068H58.8535C58.8072 13.1753 58.5563 12.7516 58.1009 12.4358C57.6455 12.1123 57.0935 11.9506 56.4451 11.9506C55.8739 11.9506 55.3953 12.0545 55.0094 12.2625C54.6311 12.4705 54.4459 12.7516 54.4536 13.106C54.4227 13.7299 54.9939 14.1458 56.1672 14.3538L59.7798 15.0008C61.6015 15.332 62.9562 15.8904 63.8439 16.6761C64.7393 17.4541 65.1909 18.4978 65.1986 19.8072C65.1909 21.0473 64.8127 22.1411 64.0639 23.0885C63.3229 24.0359 62.3078 24.76 61.0187 25.2607C59.7296 25.7536 58.2668 26.0001 56.6304 26.0001C53.9596 26.0001 51.8445 25.4571 50.2853 24.371C48.7337 23.2772 47.8692 21.8022 47.6916 19.9459H54.0368C54.1217 20.5082 54.3996 20.9433 54.8704 21.2515C55.3413 21.5519 55.9434 21.7021 56.6767 21.7021C57.2788 21.7021 57.7651 21.6019 58.1356 21.4016C58.5139 21.1937 58.7068 20.9087 58.7146 20.5467C58.7068 20.2155 58.5409 19.9497 58.2167 19.7494C57.8925 19.5492 57.3791 19.3836 56.6767 19.2526L53.5273 18.698C51.721 18.3822 50.3624 17.7853 49.4516 16.9072C48.5407 16.0214 48.093 14.8776 48.1085 13.4757C48.1007 11.6425 48.8225 10.2213 50.2737 9.21229C51.7326 8.20325 53.7434 7.69873 56.3062 7.69873C58.8689 7.69873 60.8914 8.23021 62.3734 9.29317C63.8632 10.3561 64.6506 11.8273 64.7355 13.7068Z" fill="url(#paint4_linear)"/>
<defs>
<linearGradient id="paint0_linear" x1="13.2433" y1="-6.79559" x2="13.2433" y2="33.1135" gradientUnits="userSpaceOnUse">
<stop stop-color="#E5E5E5"/>
<stop offset="0.3125" stop-color="#FF9949"/>
<stop offset="0.776042" stop-color="white" stop-opacity="0"/>
<stop offset="1" stop-color="#9E5D2A"/>
</linearGradient>
<linearGradient id="paint1_linear" x1="155.569" y1="-3.53959" x2="155.569" y2="19.2166" gradientUnits="userSpaceOnUse">
<stop stop-color="#E5E5E5"/>
<stop offset="0.3125" stop-color="#FF9949"/>
<stop offset="0.776042" stop-color="white" stop-opacity="0"/>
<stop offset="1" stop-color="#9E5D2A"/>
</linearGradient>
<linearGradient id="paint2_linear" x1="155.569" y1="-3.53959" x2="155.569" y2="19.2166" gradientUnits="userSpaceOnUse">
<stop stop-color="#E5E5E5"/>
<stop offset="0.3125" stop-color="#FF9949"/>
<stop offset="0.776042" stop-color="white" stop-opacity="0"/>
<stop offset="1" stop-color="#9E5D2A"/>
</linearGradient>
<linearGradient id="paint3_linear" x1="46.5184" y1="-5.50351" x2="46.5184" y2="33.8105" gradientUnits="userSpaceOnUse">
<stop stop-color="#E5E5E5"/>
<stop offset="0.3125" stop-color="#FF9949"/>
<stop offset="0.776042" stop-color="white" stop-opacity="0"/>
<stop offset="1" stop-color="#9E5D2A"/>
</linearGradient>
<linearGradient id="paint4_linear" x1="46.5184" y1="-5.50351" x2="46.5184" y2="33.8105" gradientUnits="userSpaceOnUse">
<stop stop-color="#E5E5E5"/>
<stop offset="0.3125" stop-color="#FF9949"/>
<stop offset="0.776042" stop-color="white" stop-opacity="0"/>
<stop offset="1" stop-color="#9E5D2A"/>
</linearGradient>
</defs>
</svg>
