<svg width="24" height="40" viewBox="0 0 24 40" fill="none" xmlns="http://www.w3.org/2000/svg">
<path d="M6.25 0.833252H17.75C19.275 0.833252 20.7375 1.43905 21.8159 2.51739C22.8942 3.59572 23.5 5.05826 23.5 6.58325V33.4166C23.5 34.9416 22.8942 36.4041 21.8159 37.4825C20.7375 38.5608 19.275 39.1666 17.75 39.1666H6.25C4.72501 39.1666 3.26247 38.5608 2.18414 37.4825C1.1058 36.4041 0.5 34.9416 0.5 33.4166V6.58325C0.5 5.05826 1.1058 3.59572 2.18414 2.51739C3.26247 1.43905 4.72501 0.833252 6.25 0.833252ZM6.25 4.66659C5.74167 4.66659 5.25416 4.86852 4.89471 5.22796C4.53527 5.58741 4.33333 6.07492 4.33333 6.58325V33.4166C4.33333 33.9249 4.53527 34.4124 4.89471 34.7719C5.25416 35.1313 5.74167 35.3333 6.25 35.3333H17.75C18.2583 35.3333 18.7458 35.1313 19.1053 34.7719C19.4647 34.4124 19.6667 33.9249 19.6667 33.4166V6.58325C19.6667 6.07492 19.4647 5.58741 19.1053 5.22796C18.7458 4.86852 18.2583 4.66659 17.75 4.66659H6.25ZM12 33.4166C11.4917 33.4166 11.0042 33.2147 10.6447 32.8552C10.2853 32.4958 10.0833 32.0083 10.0833 31.4999C10.0833 30.9916 10.2853 30.5041 10.6447 30.1446C11.0042 29.7852 11.4917 29.5833 12 29.5833C12.5083 29.5833 12.9958 29.7852 13.3553 30.1446C13.7147 30.5041 13.9167 30.9916 13.9167 31.4999C13.9167 32.0083 13.7147 32.4958 13.3553 32.8552C12.9958 33.2147 12.5083 33.4166 12 33.4166Z" fill="#00AEEF"/>
</svg>
