<svg width="40" height="40" viewBox="0 0 40 40" fill="none" xmlns="http://www.w3.org/2000/svg">
<path d="M15.7778 39H24.2222M34.7778 39V5.22222C34.7778 4.10242 34.3329 3.02848 33.5411 2.23666C32.7493 1.44484 31.6754 1 30.5556 1H9.44444C8.32464 1 7.2507 1.44484 6.45888 2.23666C5.66706 3.02848 5.22222 4.10242 5.22222 5.22222V39H34.7778ZM34.7778 39H39H34.7778ZM34.7778 39H24.2222H34.7778ZM5.22222 39H1H5.22222ZM5.22222 39H15.7778H5.22222ZM13.6667 9.44444H15.7778H13.6667ZM13.6667 17.8889H15.7778H13.6667ZM24.2222 9.44444H26.3333H24.2222ZM24.2222 17.8889H26.3333H24.2222ZM15.7778 39V28.4444C15.7778 27.8845 16.0002 27.3476 16.3961 26.9517C16.792 26.5558 17.329 26.3333 17.8889 26.3333H22.1111C22.671 26.3333 23.208 26.5558 23.6039 26.9517C23.9998 27.3476 24.2222 27.8845 24.2222 28.4444V39H15.7778Z" stroke="black" stroke-width="2" stroke-linecap="round" stroke-linejoin="round"/>
<path d="M15.7778 39H24.2222M34.7778 39V5.22222C34.7778 4.10242 34.3329 3.02848 33.5411 2.23666C32.7493 1.44484 31.6754 1 30.5556 1H9.44444C8.32464 1 7.2507 1.44484 6.45888 2.23666C5.66706 3.02848 5.22222 4.10242 5.22222 5.22222V39H34.7778ZM34.7778 39H39H34.7778ZM34.7778 39H24.2222H34.7778ZM5.22222 39H1H5.22222ZM5.22222 39H15.7778H5.22222ZM13.6667 9.44444H15.7778H13.6667ZM13.6667 17.8889H15.7778H13.6667ZM24.2222 9.44444H26.3333H24.2222ZM24.2222 17.8889H26.3333H24.2222ZM15.7778 39V28.4444C15.7778 27.8845 16.0002 27.3476 16.3961 26.9517C16.792 26.5558 17.329 26.3333 17.8889 26.3333H22.1111C22.671 26.3333 23.208 26.5558 23.6039 26.9517C23.9998 27.3476 24.2222 27.8845 24.2222 28.4444V39H15.7778Z" stroke="#00AEEF" stroke-width="2" stroke-linecap="round" stroke-linejoin="round"/>
</svg>
