<svg width="461" height="35" viewBox="0 0 461 35" fill="none" xmlns="http://www.w3.org/2000/svg">
<path d="M25 0H28V35H25V0Z" fill="#FF9703"/>
<path d="M0 2C0 0.89543 0.895431 0 2 0H3V35H2C0.895431 35 0 34.1046 0 33V2Z" fill="#FF9703"/>
<path d="M3 0H5V35H3V0Z" fill="#FF9E14"/>
<path d="M13 0H15V35H13V0Z" fill="#FF9E14"/>
<path d="M23 0H25V35H23V0Z" fill="#FF9E14"/>
<path d="M8 0H10V35H8V0Z" fill="#FF9E14"/>
<path d="M18 0H20V35H18V0Z" fill="#FF9E14"/>
<path d="M28 0H30V35H28V0Z" fill="#FF9E14"/>
<path d="M5 0H8V35H5V0Z" fill="#FF9703"/>
<path d="M15 0H18V35H15V0Z" fill="#FF9703"/>
<path d="M10 0H13V35H10V0Z" fill="#FF9703"/>
<path d="M20 0H23V35H20V0Z" fill="#FF9703"/>
<path d="M30 0H33V35H30V0Z" fill="#FF9703"/>
<path d="M58 0H61V35H58V0Z" fill="#FF9703"/>
<path d="M33 0H36V35H33V0Z" fill="#FF9703"/>
<path d="M36 0H38V35H36V0Z" fill="#FF9E14"/>
<path d="M46 0H48V35H46V0Z" fill="#FF9E14"/>
<path d="M56 0H58V35H56V0Z" fill="#FF9E14"/>
<path d="M41 0H43V35H41V0Z" fill="#FF9E14"/>
<path d="M51 0H53V35H51V0Z" fill="#FF9E14"/>
<path d="M61 0H63V35H61V0Z" fill="#FF9E14"/>
<path d="M38 0H41V35H38V0Z" fill="#FF9703"/>
<path d="M48 0H51V35H48V0Z" fill="#FF9703"/>
<path d="M43 0H46V35H43V0Z" fill="#FF9703"/>
<path d="M53 0H56V35H53V0Z" fill="#FF9703"/>
<path d="M63 0H66V35H63V0Z" fill="#FF9703"/>
<path d="M157 0H160V35H157V0Z" fill="#FF9703"/>
<path d="M132 0H135V35H132V0Z" fill="#FF9703"/>
<path d="M135 0H137V35H135V0Z" fill="#FF9E14"/>
<path d="M145 0H147V35H145V0Z" fill="#FF9E14"/>
<path d="M155 0H157V35H155V0Z" fill="#FF9E14"/>
<path d="M140 0H142V35H140V0Z" fill="#FF9E14"/>
<path d="M150 0H152V35H150V0Z" fill="#FF9E14"/>
<path d="M160 0H162V35H160V0Z" fill="#FF9E14"/>
<path d="M137 0H140V35H137V0Z" fill="#FF9703"/>
<path d="M147 0H150V35H147V0Z" fill="#FF9703"/>
<path d="M142 0H145V35H142V0Z" fill="#FF9703"/>
<path d="M152 0H155V35H152V0Z" fill="#FF9703"/>
<path d="M162 0H165V35H162V0Z" fill="#FF9703"/>
<path d="M256 0H259V35H256V0Z" fill="#FF9703"/>
<path d="M231 0H234V35H231V0Z" fill="#FF9703"/>
<path d="M234 0H236V35H234V0Z" fill="#FF9E14"/>
<path d="M244 0H246V35H244V0Z" fill="#FF9E14"/>
<path d="M254 0H256V35H254V0Z" fill="#FF9E14"/>
<path d="M239 0H241V35H239V0Z" fill="#FF9E14"/>
<path d="M249 0H251V35H249V0Z" fill="#FF9E14"/>
<path d="M259 0H261V35H259V0Z" fill="#FF9E14"/>
<path d="M236 0H239V35H236V0Z" fill="#FF9703"/>
<path d="M246 0H249V35H246V0Z" fill="#FF9703"/>
<path d="M241 0H244V35H241V0Z" fill="#FF9703"/>
<path d="M251 0H254V35H251V0Z" fill="#FF9703"/>
<path d="M261 0H264V35H261V0Z" fill="#FF9703"/>
<path d="M355 0H358V35H355V0Z" fill="#FF9703"/>
<path d="M330 0H333V35H330V0Z" fill="#FF9703"/>
<path d="M333 0H335V35H333V0Z" fill="#FF9E14"/>
<path d="M343 0H345V35H343V0Z" fill="#FF9E14"/>
<path d="M353 0H355V35H353V0Z" fill="#FF9E14"/>
<path d="M338 0H340V35H338V0Z" fill="#FF9E14"/>
<path d="M348 0H350V35H348V0Z" fill="#FF9E14"/>
<path d="M358 0H360V35H358V0Z" fill="#FF9E14"/>
<path d="M335 0H338V35H335V0Z" fill="#FF9703"/>
<path d="M345 0H348V35H345V0Z" fill="#FF9703"/>
<path d="M340 0H343V35H340V0Z" fill="#FF9703"/>
<path d="M350 0H353V35H350V0Z" fill="#FF9703"/>
<path d="M360 0H363V35H360V0Z" fill="#FF9703"/>
<path d="M91 0H94V35H91V0Z" fill="#FF9703"/>
<path d="M66 0H69V35H66V0Z" fill="#FF9703"/>
<path d="M69 0H71V35H69V0Z" fill="#FF9E14"/>
<path d="M79 0H81V35H79V0Z" fill="#FF9E14"/>
<path d="M89 0H91V35H89V0Z" fill="#FF9E14"/>
<path d="M74 0H76V35H74V0Z" fill="#FF9E14"/>
<path d="M84 0H86V35H84V0Z" fill="#FF9E14"/>
<path d="M94 0H96V35H94V0Z" fill="#FF9E14"/>
<path d="M71 0H74V35H71V0Z" fill="#FF9703"/>
<path d="M81 0H84V35H81V0Z" fill="#FF9703"/>
<path d="M76 0H79V35H76V0Z" fill="#FF9703"/>
<path d="M86 0H89V35H86V0Z" fill="#FF9703"/>
<path d="M96 0H99V35H96V0Z" fill="#FF9703"/>
<path d="M190 0H193V35H190V0Z" fill="#FF9703"/>
<path d="M165 0H168V35H165V0Z" fill="#FF9703"/>
<path d="M168 0H170V35H168V0Z" fill="#FF9E14"/>
<path d="M178 0H180V35H178V0Z" fill="#FF9E14"/>
<path d="M188 0H190V35H188V0Z" fill="#FF9E14"/>
<path d="M173 0H175V35H173V0Z" fill="#FF9E14"/>
<path d="M183 0H185V35H183V0Z" fill="#FF9E14"/>
<path d="M193 0H195V35H193V0Z" fill="#FF9E14"/>
<path d="M170 0H173V35H170V0Z" fill="#FF9703"/>
<path d="M180 0H183V35H180V0Z" fill="#FF9703"/>
<path d="M175 0H178V35H175V0Z" fill="#FF9703"/>
<path d="M185 0H188V35H185V0Z" fill="#FF9703"/>
<path d="M195 0H198V35H195V0Z" fill="#FF9703"/>
<path d="M289 0H292V35H289V0Z" fill="#FF9703"/>
<path d="M264 0H267V35H264V0Z" fill="#FF9703"/>
<path d="M267 0H269V35H267V0Z" fill="#FF9E14"/>
<path d="M277 0H279V35H277V0Z" fill="#FF9E14"/>
<path d="M287 0H289V35H287V0Z" fill="#FF9E14"/>
<path d="M272 0H274V35H272V0Z" fill="#FF9E14"/>
<path d="M282 0H284V35H282V0Z" fill="#FF9E14"/>
<path d="M292 0H294V35H292V0Z" fill="#FF9E14"/>
<path d="M269 0H272V35H269V0Z" fill="#FF9703"/>
<path d="M279 0H282V35H279V0Z" fill="#FF9703"/>
<path d="M274 0H277V35H274V0Z" fill="#FF9703"/>
<path d="M284 0H287V35H284V0Z" fill="#FF9703"/>
<path d="M294 0H297V35H294V0Z" fill="#FF9703"/>
<path d="M388 0H391V35H388V0Z" fill="#FF9703"/>
<path d="M363 0H366V35H363V0Z" fill="#FF9703"/>
<path d="M366 0H368V35H366V0Z" fill="#FF9E14"/>
<path d="M376 0H378V35H376V0Z" fill="#FF9E14"/>
<path d="M386 0H388V35H386V0Z" fill="#FF9E14"/>
<path d="M371 0H373V35H371V0Z" fill="#FF9E14"/>
<path d="M381 0H383V35H381V0Z" fill="#FF9E14"/>
<path d="M391 0H393V35H391V0Z" fill="#FF9E14"/>
<path d="M368 0H371V35H368V0Z" fill="#FF9703"/>
<path d="M378 0H381V35H378V0Z" fill="#FF9703"/>
<path d="M373 0H376V35H373V0Z" fill="#FF9703"/>
<path d="M383 0H386V35H383V0Z" fill="#FF9703"/>
<path d="M393 0H396V35H393V0Z" fill="#FF9703"/>
<path d="M124 0H127V35H124V0Z" fill="#FF9703"/>
<path d="M99 0H102V35H99V0Z" fill="#FF9703"/>
<path d="M102 0H104V35H102V0Z" fill="#FF9E14"/>
<path d="M112 0H114V35H112V0Z" fill="#FF9E14"/>
<path d="M122 0H124V35H122V0Z" fill="#FF9E14"/>
<path d="M107 0H109V35H107V0Z" fill="#FF9E14"/>
<path d="M117 0H119V35H117V0Z" fill="#FF9E14"/>
<path d="M127 0H129V35H127V0Z" fill="#FF9E14"/>
<path d="M104 0H107V35H104V0Z" fill="#FF9703"/>
<path d="M114 0H117V35H114V0Z" fill="#FF9703"/>
<path d="M109 0H112V35H109V0Z" fill="#FF9703"/>
<path d="M119 0H122V35H119V0Z" fill="#FF9703"/>
<path d="M129 0H132V35H129V0Z" fill="#FF9703"/>
<path d="M223 0H226V35H223V0Z" fill="#FF9703"/>
<path d="M198 0H201V35H198V0Z" fill="#FF9703"/>
<path d="M201 0H203V35H201V0Z" fill="#FF9E14"/>
<path d="M211 0H213V35H211V0Z" fill="#FF9E14"/>
<path d="M221 0H223V35H221V0Z" fill="#FF9E14"/>
<path d="M206 0H208V35H206V0Z" fill="#FF9E14"/>
<path d="M216 0H218V35H216V0Z" fill="#FF9E14"/>
<path d="M226 0H228V35H226V0Z" fill="#FF9E14"/>
<path d="M203 0H206V35H203V0Z" fill="#FF9703"/>
<path d="M213 0H216V35H213V0Z" fill="#FF9703"/>
<path d="M208 0H211V35H208V0Z" fill="#FF9703"/>
<path d="M218 0H221V35H218V0Z" fill="#FF9703"/>
<path d="M228 0H231V35H228V0Z" fill="#FF9703"/>
<path d="M322 0H325V35H322V0Z" fill="#FF9703"/>
<path d="M297 0H300V35H297V0Z" fill="#FF9703"/>
<path d="M300 0H302V35H300V0Z" fill="#FF9E14"/>
<path d="M310 0H312V35H310V0Z" fill="#FF9E14"/>
<path d="M320 0H322V35H320V0Z" fill="#FF9E14"/>
<path d="M305 0H307V35H305V0Z" fill="#FF9E14"/>
<path d="M315 0H317V35H315V0Z" fill="#FF9E14"/>
<path d="M325 0H327V35H325V0Z" fill="#FF9E14"/>
<path d="M302 0H305V35H302V0Z" fill="#FF9703"/>
<path d="M312 0H315V35H312V0Z" fill="#FF9703"/>
<path d="M307 0H310V35H307V0Z" fill="#FF9703"/>
<path d="M317 0H320V35H317V0Z" fill="#FF9703"/>
<path d="M327 0H330V35H327V0Z" fill="#FF9703"/>
<path d="M421 0H424V35H421V0Z" fill="#FF9703"/>
<path d="M396 0H399V35H396V0Z" fill="#FF9703"/>
<path d="M399 0H401V35H399V0Z" fill="#FF9E14"/>
<path d="M409 0H411V35H409V0Z" fill="#FF9E14"/>
<path d="M419 0H421V35H419V0Z" fill="#FF9E14"/>
<path d="M404 0H406V35H404V0Z" fill="#FF9E14"/>
<path d="M414 0H416V35H414V0Z" fill="#FF9E14"/>
<path d="M424 0H426V35H424V0Z" fill="#FF9E14"/>
<path d="M401 0H404V35H401V0Z" fill="#FF9703"/>
<path d="M411 0H414V35H411V0Z" fill="#FF9703"/>
<path d="M406 0H409V35H406V0Z" fill="#FF9703"/>
<path d="M416 0H419V35H416V0Z" fill="#FF9703"/>
<path d="M426 0H429V35H426V0Z" fill="#FF9703"/>
<path d="M453 0H456V35H453V0Z" fill="#FF9703"/>
<path d="M428 0H431V35H428V0Z" fill="#FF9703"/>
<path d="M431 0H433V35H431V0Z" fill="#FF9E14"/>
<path d="M441 0H443V35H441V0Z" fill="#FF9E14"/>
<path d="M451 0H453V35H451V0Z" fill="#FF9E14"/>
<path d="M436 0H438V35H436V0Z" fill="#FF9E14"/>
<path d="M446 0H448V35H446V0Z" fill="#FF9E14"/>
<path d="M456 0H458V35H456V0Z" fill="#FF9E14"/>
<path d="M433 0H436V35H433V0Z" fill="#FF9703"/>
<path d="M443 0H446V35H443V0Z" fill="#FF9703"/>
<path d="M438 0H441V35H438V0Z" fill="#FF9703"/>
<path d="M448 0H451V35H448V0Z" fill="#FF9703"/>
<path d="M458 0H461V35H458V0Z" fill="#FF9703"/>
</svg>
