<svg width="82" height="82" viewBox="0 0 82 82" fill="none" xmlns="http://www.w3.org/2000/svg">
<path d="M53.2712 45.1351L51.3377 43.2016L52.4423 42.097C52.8324 41.7068 52.7055 41.0441 52.1976 40.8264L46.3976 38.3405C46.104 38.2147 45.7634 38.2803 45.5374 38.5061C45.3115 38.7321 45.2459 39.0727 45.3717 39.3664L47.8577 45.1664C48.0762 45.6762 48.7391 45.8002 49.1282 45.4111L50.2328 44.3064L52.1663 46.24C52.4714 46.545 52.9661 46.545 53.2713 46.24C53.5763 45.935 53.5763 45.4403 53.2712 45.1351ZM48.8393 43.4904L47.5774 40.5462L50.5216 41.8081L49.6808 42.6489C49.6806 42.649 49.6806 42.6491 49.6804 42.6493C49.6802 42.6494 49.6802 42.6495 49.68 42.6497L48.8393 43.4904Z" fill="#00AEEF"/>
<path d="M41 55.8438C41.4315 55.8438 41.7812 55.494 41.7812 55.0625C41.7812 54.631 41.4315 54.2812 41 54.2812C40.5685 54.2812 40.2188 54.631 40.2188 55.0625C40.2188 55.494 40.5685 55.8438 41 55.8438Z" fill="#00AEEF"/>
<path d="M60.2188 49.5938H58.6562V26.9375C58.6562 26.506 58.3065 26.1562 57.875 26.1562H24.125C23.6935 26.1562 23.3438 26.506 23.3438 26.9375V49.5938H21.7812C21.3498 49.5938 21 49.9435 21 50.375C21 53.3905 23.4533 55.8438 26.4688 55.8438H37.4844C37.9159 55.8438 38.2656 55.494 38.2656 55.0625C38.2656 54.631 37.9159 54.2812 37.4844 54.2812H26.4688C24.5823 54.2812 23.004 52.937 22.6409 51.1555H59.359C58.996 52.937 57.4177 54.2812 55.5312 54.2812H44.5156C44.0841 54.2812 43.7344 54.631 43.7344 55.0625C43.7344 55.494 44.0841 55.8438 44.5156 55.8438H55.5312C58.5467 55.8438 61 53.3905 61 50.375C61 49.9435 60.6502 49.5938 60.2188 49.5938ZM24.9062 27.7188H57.0938V49.5938H24.9062V27.7188Z" fill="#00AEEF"/>
<circle cx="41" cy="41" r="40" stroke="#ECECEC" stroke-width="2" stroke-dasharray="4 4"/>
</svg>
