<svg width="82" height="85" viewBox="0 0 82 85" fill="none" xmlns="http://www.w3.org/2000/svg">
<circle cx="41" cy="43.0068" r="40" stroke="#ECECEC" stroke-width="2" stroke-dasharray="4 4"/>
<path d="M78.3241 57.3916C75.1551 65.6143 69.3632 72.5514 61.8599 77.1371L41.9738 42.6934L38.0285 3.11742C46.7978 2.46401 55.5491 4.71874 62.9203 9.54789C70.5707 14.5599 76.2724 22.0423 79.0754 30.7482C81.8783 39.454 81.6132 48.8575 78.3241 57.3916Z" stroke="#FF9703" stroke-width="2"/>
<path d="M37.1064 4.26318L39.3385 4.12921L54.4677 17.3337L63.0981 75.2821L60.5 76.7821L51.2369 71.7378L35.8529 43.092L37.1064 4.26318Z" fill="white"/>
<g clip-path="url(#clip0)">
<path d="M56.3333 34.3403H54.7173C54.1878 33.127 52.9905 32.3421 51.6667 32.3403H27.6667C25.8267 32.3425 24.3355 33.8337 24.3333 35.6737V47.6737C24.34 53.7242 27.9001 59.2064 33.4247 61.6737H21V63.007H58.3333V61.6737H45.9087C51.4333 59.2064 54.9933 53.7242 55 47.6737H56.3333C58.9094 47.6707 60.9971 45.5831 61 43.007V39.007C60.9971 36.4309 58.9094 34.3432 56.3333 34.3403ZM53.6667 47.6737C53.6667 55.4057 47.3987 61.6737 39.6667 61.6737C31.9347 61.6737 25.6667 55.4057 25.6667 47.6737V35.6737C25.6667 34.5691 26.5621 33.6737 27.6667 33.6737H46.3333V38.007L43.9333 39.807C43.7655 39.9329 43.6667 40.1305 43.6667 40.3403V47.007C43.6667 47.3752 43.9652 47.6737 44.3333 47.6737H49.6667C50.0348 47.6737 50.3333 47.3752 50.3333 47.007V40.3403C50.3333 40.1305 50.2345 39.9329 50.0667 39.807L47.6667 38.007V33.6737H51.6667C52.7713 33.6737 53.6667 34.5691 53.6667 35.6737V47.6737ZM47 39.1737L49 40.6737V46.3403H45V40.6737L47 39.1737ZM59.6667 43.007C59.6645 44.847 58.1733 46.3382 56.3333 46.3403H55V35.6737H56.3333C58.1733 35.6758 59.6645 37.167 59.6667 39.007V43.007Z" fill="#00AEEF"/>
<path d="M38.6 31.0068H39.9334C39.9229 30.6518 40.03 30.3033 40.238 30.0155C40.5712 29.5212 40.7441 28.9363 40.7334 28.3402C40.7444 27.7435 40.5714 27.1578 40.238 26.6628C40.0304 26.3756 39.9233 26.0278 39.9334 25.6735C39.9229 25.3193 40.03 24.9717 40.238 24.6848C40.5719 24.1898 40.7449 23.6038 40.7334 23.0068H39.4C39.4104 23.361 39.3034 23.7087 39.0954 23.9955C38.7614 24.4905 38.5885 25.0765 38.6 25.6735C38.5891 26.27 38.762 26.8553 39.0954 27.3502C39.303 27.6377 39.4101 27.9857 39.4 28.3402C39.4104 28.6952 39.3034 29.0437 39.0954 29.3315C38.7622 29.8258 38.5893 30.4108 38.6 31.0068Z" fill="#00AEEF"/>
<path d="M31.2667 31.0068H32.6C32.5896 30.6518 32.6966 30.3033 32.9046 30.0155C33.2378 29.5212 33.4107 28.9363 33.4 28.3402C33.411 27.7435 33.2381 27.1578 32.9046 26.6628C32.697 26.3756 32.5899 26.0278 32.6 25.6735C32.5896 25.3193 32.6966 24.9717 32.9046 24.6848C33.2386 24.1898 33.4115 23.6038 33.4 23.0068H32.0667C32.0771 23.361 31.97 23.7087 31.762 23.9955C31.4281 24.4905 31.2552 25.0765 31.2667 25.6735C31.2557 26.27 31.4287 26.8553 31.762 27.3502C31.9697 27.6377 32.0767 27.9857 32.0667 28.3402C32.0771 28.6952 31.97 29.0437 31.762 29.3315C31.4288 29.8258 31.2559 30.4108 31.2667 31.0068Z" fill="#00AEEF"/>
<path d="M45.9333 31.0068H47.2666C47.2562 30.6518 47.3633 30.3033 47.5713 30.0155C47.9044 29.5212 48.0774 28.9363 48.0666 28.3402C48.0776 27.7435 47.9047 27.1578 47.5713 26.6628C47.3636 26.3756 47.2565 26.0278 47.2666 25.6735C47.2562 25.3193 47.3633 24.9717 47.5713 24.6848C47.9052 24.1898 48.0781 23.6038 48.0666 23.0068H46.7333C46.7437 23.361 46.6366 23.7087 46.4286 23.9955C46.0947 24.4905 45.9218 25.0765 45.9333 25.6735C45.9224 26.27 46.0953 26.8553 46.4286 27.3502C46.6363 27.6377 46.7434 27.9857 46.7333 28.3402C46.7437 28.6952 46.6366 29.0437 46.4286 29.3315C46.0954 29.8258 45.9225 30.4108 45.9333 31.0068Z" fill="#00AEEF"/>
</g>
<defs>
<clipPath id="clip0">
<rect width="40" height="40" fill="white" transform="translate(21 23.0068)"/>
</clipPath>
</defs>
</svg>
