<svg width="82" height="83" viewBox="0 0 82 83" fill="none" xmlns="http://www.w3.org/2000/svg">
<g clip-path="url(#clip0)">
<path d="M60.4141 34.393C60.7377 34.393 61 34.1307 61 33.8071V30.4718C61 30.2807 60.9068 30.1016 60.7502 29.9919C60.5937 29.8822 60.3935 29.8557 60.2138 29.9211C57.4052 30.9425 53.923 31.5281 50.4085 31.5701C47.0322 31.6086 43.9302 31.1281 41.8972 30.2467C41.8944 30.2455 41.8916 30.2443 41.8888 30.2432C37.7547 28.5271 33.2689 27.9088 28.5607 28.4042C25.9638 28.6556 23.6198 29.1507 21.3948 29.9179C21.1586 29.9994 21 30.2218 21 30.4718V51.5064C21 51.6958 21.0916 51.8735 21.2458 51.9834C21.3999 52.0934 21.5978 52.1221 21.777 52.0602C23.9137 51.3234 26.1696 50.8475 28.6785 50.6046C33.1932 50.1294 37.4852 50.7196 41.4354 52.3582C43.6243 53.3061 46.7065 53.7743 49.9791 53.7743C53.6123 53.7743 57.4798 53.1967 60.6143 52.057C60.8459 51.9728 61 51.7526 61 51.5063V36.5005C61 36.1768 60.7377 35.9146 60.4141 35.9146C60.0904 35.9146 59.8281 36.1768 59.8281 36.5005V51.0917C57.0897 52.0289 53.7637 52.5646 50.4085 52.6046C47.0331 52.6458 43.9303 52.1628 41.8972 51.2813C41.8944 51.28 41.8916 51.2789 41.8888 51.2777C37.7548 49.5617 33.269 48.9433 28.5608 49.4388C26.2642 49.661 24.1655 50.0739 22.172 50.6971V30.8929C24.1917 30.2314 26.3238 29.798 28.6786 29.5701C33.1934 29.0947 37.4853 29.6848 41.4356 31.3238C45.8553 33.2376 53.9209 33.1967 59.8282 31.2917V33.807C59.8281 34.1307 60.0904 34.393 60.4141 34.393Z" fill="#00AEEF"/>
<path d="M57.6797 47.6151C58.0034 47.6151 58.2656 47.3528 58.2656 47.0292V36.5566C58.2656 36.2329 58.0034 35.9706 57.6797 35.9706C56.7643 35.9706 55.9841 35.3179 55.8245 34.4185C55.7693 34.1076 55.4776 33.8967 55.1649 33.9409C49.7834 34.7079 44.2905 34.2571 40.8295 32.7638C40.8269 32.7627 40.8242 32.7617 40.8215 32.7605C37.1188 31.2275 33.0883 30.6769 28.8394 31.1242L28.8241 31.1257C28.0763 31.1981 27.3419 31.2937 26.6414 31.4101C26.4837 31.4363 26.3436 31.5256 26.2535 31.6577C26.1634 31.7896 26.1311 31.9528 26.1641 32.1091C26.191 32.2368 26.2047 32.3683 26.2047 32.5001C26.2047 33.5391 25.3595 34.3843 24.3204 34.3843C23.9967 34.3843 23.7345 34.6466 23.7345 34.9703V40.5399C23.7345 40.8636 23.9967 41.1259 24.3204 41.1259C24.6441 41.1259 24.9063 40.8636 24.9063 40.5399V35.4998C26.3121 35.2257 27.3766 33.9848 27.3766 32.5001C27.3766 32.4938 27.3766 32.4875 27.3765 32.4813C27.8838 32.4069 28.4059 32.3435 28.9331 32.2925L28.9648 32.2894C33.0129 31.863 36.8504 32.3855 40.3696 33.8418C43.9067 35.3662 49.403 35.8664 54.8207 35.1702C55.1937 36.1592 56.0558 36.8856 57.0938 37.0867V46.4997C55.688 46.7738 54.6236 48.0147 54.6236 49.4995C54.6236 49.51 54.6237 49.5206 54.6238 49.5311C53.2409 49.7391 51.8146 49.8531 50.3759 49.8703C47.3698 49.9056 44.6762 49.5056 42.9845 48.7721L42.9371 48.752C39.3988 47.2832 35.6103 46.5385 31.677 46.5385C30.5614 46.5385 29.4188 46.599 28.2857 46.718C27.9156 46.7539 27.5464 46.7949 27.1829 46.8405C26.8118 45.8465 25.9481 45.1167 24.9062 44.9152V43.2756C24.9062 42.9519 24.644 42.6896 24.3203 42.6896C23.9966 42.6896 23.7344 42.9519 23.7344 43.2756V45.4452C23.7344 45.7688 23.9966 46.0311 24.3203 46.0311C25.2385 46.0311 26.0191 46.6863 26.1765 47.5889C26.2307 47.9001 26.5219 48.1119 26.8346 48.0687C27.3441 47.9977 27.8703 47.9357 28.4033 47.8839C29.5005 47.7688 30.602 47.7104 31.6768 47.7104C35.4552 47.7104 39.0925 48.4249 42.4872 49.8341L42.5186 49.8474C44.2828 50.6124 46.9981 51.0443 50.0137 51.0443C50.1385 51.0443 50.264 51.0435 50.3898 51.0421C52.0784 51.0219 53.7516 50.873 55.3628 50.5996C55.5205 50.5728 55.6603 50.4828 55.7499 50.3505C55.8395 50.2181 55.8713 50.0549 55.8376 49.8986C55.8095 49.7683 55.7953 49.634 55.7953 49.4996C55.7954 48.4604 56.6406 47.6151 57.6797 47.6151Z" fill="#00AEEF"/>
<path d="M37.6171 42.3555C37.2934 42.3555 37.0311 42.6178 37.0311 42.9414C37.0311 43.2651 37.2934 43.5274 37.6171 43.5274H38.5745V44.7227C38.5745 45.0463 38.8368 45.3086 39.1604 45.3086C39.4841 45.3086 39.7464 45.0463 39.7464 44.7227V43.5274H42.7615C43.0852 43.5274 43.3475 43.2651 43.3475 42.9414C43.3475 42.6178 43.0852 42.3555 42.7615 42.3555H39.7464V41.222H42.7615C43.9356 41.222 44.8908 40.2667 44.8908 39.0927C44.8908 37.9186 43.9356 36.9634 42.7615 36.9634H39.1604C38.8368 36.9634 38.5745 37.2256 38.5745 37.5493V40.0501H37.6171C37.2934 40.0501 37.0311 40.3124 37.0311 40.636C37.0311 40.9597 37.2934 41.222 37.6171 41.222H38.5745V42.3555H37.6171ZM39.7464 38.1353H42.7615C43.2895 38.1353 43.7189 38.5648 43.7189 39.0928C43.7189 39.6207 43.2895 40.0502 42.7615 40.0502H39.7464V38.1353Z" fill="#00AEEF"/>
<path d="M33.5949 39.1871C33.5949 37.9936 32.6238 37.0225 31.4302 37.0225C30.2366 37.0225 29.2655 37.9936 29.2655 39.1871C29.2655 40.3807 30.2366 41.3518 31.4302 41.3518C32.6238 41.3518 33.5949 40.3808 33.5949 39.1871ZM30.4374 39.1871C30.4374 38.6397 30.8828 38.1943 31.4302 38.1943C31.9776 38.1943 32.423 38.6397 32.423 39.1871C32.423 39.7346 31.9776 40.18 31.4302 40.18C30.8828 40.18 30.4374 39.7346 30.4374 39.1871Z" fill="#00AEEF"/>
<path d="M52.6564 42.8307C52.6564 41.6371 51.6853 40.666 50.4917 40.666C49.2981 40.666 48.327 41.6371 48.327 42.8307C48.327 44.0243 49.2981 44.9954 50.4917 44.9954C51.6853 44.9954 52.6564 44.0243 52.6564 42.8307ZM49.4989 42.8307C49.4989 42.2833 49.9443 41.8379 50.4917 41.8379C51.0391 41.8379 51.4845 42.2833 51.4845 42.8307C51.4845 43.3781 51.0391 43.8235 50.4917 43.8235C49.9443 43.8235 49.4989 43.3781 49.4989 42.8307Z" fill="#00AEEF"/>
<g clip-path="url(#clip1)">
<path d="M60.4141 40.393C60.7377 40.393 61 40.1307 61 39.8071V36.4718C61 36.2807 60.9068 36.1016 60.7502 35.9919C60.5937 35.8822 60.3935 35.8557 60.2138 35.9211C57.4052 36.9425 53.923 37.5281 50.4085 37.5701C47.0322 37.6086 43.9302 37.1281 41.8972 36.2467C41.8944 36.2455 41.8916 36.2443 41.8888 36.2432C37.7547 34.5271 33.2689 33.9088 28.5607 34.4042C25.9638 34.6556 23.6198 35.1507 21.3948 35.9179C21.1586 35.9994 21 36.2218 21 36.4718V57.5064C21 57.6958 21.0916 57.8735 21.2458 57.9834C21.3999 58.0934 21.5978 58.1221 21.777 58.0602C23.9137 57.3234 26.1696 56.8475 28.6785 56.6046C33.1932 56.1294 37.4852 56.7196 41.4354 58.3582C43.6243 59.3061 46.7065 59.7743 49.9791 59.7743C53.6123 59.7743 57.4798 59.1967 60.6143 58.057C60.8459 57.9728 61 57.7526 61 57.5063V42.5005C61 42.1768 60.7377 41.9146 60.4141 41.9146C60.0904 41.9146 59.8281 42.1768 59.8281 42.5005V57.0917C57.0897 58.0289 53.7637 58.5646 50.4085 58.6046C47.0331 58.6458 43.9303 58.1628 41.8972 57.2813C41.8944 57.28 41.8916 57.2789 41.8888 57.2777C37.7548 55.5617 33.269 54.9433 28.5608 55.4388C26.2642 55.661 24.1655 56.0739 22.172 56.6971V36.8929C24.1917 36.2314 26.3238 35.798 28.6786 35.5701C33.1934 35.0947 37.4853 35.6848 41.4356 37.3238C45.8553 39.2376 53.9209 39.1967 59.8282 37.2917V39.807C59.8281 40.1307 60.0904 40.393 60.4141 40.393Z" fill="#00AEEF"/>
<path d="M57.6797 53.6151C58.0034 53.6151 58.2656 53.3528 58.2656 53.0292V42.5566C58.2656 42.2329 58.0034 41.9706 57.6797 41.9706C56.7643 41.9706 55.9841 41.3179 55.8245 40.4185C55.7693 40.1076 55.4776 39.8967 55.1649 39.9409C49.7834 40.7079 44.2905 40.2571 40.8295 38.7638C40.8269 38.7627 40.8242 38.7617 40.8215 38.7605C37.1188 37.2275 33.0883 36.6769 28.8394 37.1242L28.8241 37.1257C28.0763 37.1981 27.3419 37.2937 26.6414 37.4101C26.4837 37.4363 26.3436 37.5256 26.2535 37.6577C26.1634 37.7896 26.1311 37.9528 26.1641 38.1091C26.191 38.2368 26.2047 38.3683 26.2047 38.5001C26.2047 39.5391 25.3595 40.3843 24.3204 40.3843C23.9967 40.3843 23.7345 40.6466 23.7345 40.9703V46.5399C23.7345 46.8636 23.9967 47.1259 24.3204 47.1259C24.6441 47.1259 24.9063 46.8636 24.9063 46.5399V41.4998C26.3121 41.2257 27.3766 39.9848 27.3766 38.5001C27.3766 38.4938 27.3766 38.4875 27.3765 38.4813C27.8838 38.4069 28.4059 38.3435 28.9331 38.2925L28.9648 38.2894C33.0129 37.863 36.8504 38.3855 40.3696 39.8418C43.9067 41.3662 49.403 41.8664 54.8207 41.1702C55.1937 42.1592 56.0558 42.8856 57.0938 43.0867V52.4997C55.688 52.7738 54.6236 54.0147 54.6236 55.4995C54.6236 55.51 54.6237 55.5206 54.6238 55.5311C53.2409 55.7391 51.8146 55.8531 50.3759 55.8703C47.3698 55.9056 44.6762 55.5056 42.9845 54.7721L42.9371 54.752C39.3988 53.2832 35.6103 52.5385 31.677 52.5385C30.5614 52.5385 29.4188 52.599 28.2857 52.718C27.9156 52.7539 27.5464 52.7949 27.1829 52.8405C26.8118 51.8465 25.9481 51.1167 24.9062 50.9152V49.2756C24.9062 48.9519 24.644 48.6896 24.3203 48.6896C23.9966 48.6896 23.7344 48.9519 23.7344 49.2756V51.4452C23.7344 51.7688 23.9966 52.0311 24.3203 52.0311C25.2385 52.0311 26.0191 52.6863 26.1765 53.5889C26.2307 53.9001 26.5219 54.1119 26.8346 54.0687C27.3441 53.9977 27.8703 53.9357 28.4033 53.8839C29.5005 53.7688 30.602 53.7104 31.6768 53.7104C35.4552 53.7104 39.0925 54.4249 42.4872 55.8341L42.5186 55.8474C44.2828 56.6124 46.9981 57.0443 50.0137 57.0443C50.1385 57.0443 50.264 57.0435 50.3898 57.0421C52.0784 57.0219 53.7516 56.873 55.3628 56.5996C55.5205 56.5728 55.6603 56.4828 55.7499 56.3505C55.8395 56.2181 55.8713 56.0549 55.8376 55.8986C55.8095 55.7683 55.7953 55.634 55.7953 55.4996C55.7954 54.4604 56.6406 53.6151 57.6797 53.6151Z" fill="#00AEEF"/>
<path d="M33.5949 45.1871C33.5949 43.9936 32.6238 43.0225 31.4302 43.0225C30.2366 43.0225 29.2655 43.9936 29.2655 45.1871C29.2655 46.3807 30.2366 47.3518 31.4302 47.3518C32.6238 47.3518 33.5949 46.3808 33.5949 45.1871ZM30.4374 45.1871C30.4374 44.6397 30.8828 44.1943 31.4302 44.1943C31.9776 44.1943 32.423 44.6397 32.423 45.1871C32.423 45.7346 31.9776 46.18 31.4302 46.18C30.8828 46.18 30.4374 45.7346 30.4374 45.1871Z" fill="#00AEEF"/>
<path d="M52.6564 48.8307C52.6564 47.6371 51.6853 46.666 50.4917 46.666C49.2981 46.666 48.327 47.6371 48.327 48.8307C48.327 50.0243 49.2981 50.9954 50.4917 50.9954C51.6853 50.9954 52.6564 50.0243 52.6564 48.8307ZM49.4989 48.8307C49.4989 48.2833 49.9443 47.8379 50.4917 47.8379C51.0391 47.8379 51.4845 48.2833 51.4845 48.8307C51.4845 49.3781 51.0391 49.8235 50.4917 49.8235C49.9443 49.8235 49.4989 49.3781 49.4989 48.8307Z" fill="#00AEEF"/>
</g>
</g>
<circle cx="41" cy="41.0068" r="40" stroke="#FF9703" stroke-width="2"/>
<defs>
<clipPath id="clip0">
<rect width="40" height="40" fill="white" transform="translate(21 21.0068)"/>
</clipPath>
<clipPath id="clip1">
<rect width="40" height="40" fill="white" transform="translate(21 27.0068)"/>
</clipPath>
</defs>
</svg>
