<svg width="96" height="96" viewBox="0 0 96 96" fill="none" xmlns="http://www.w3.org/2000/svg">
<path d="M84.484 54.8258C81.9692 49.0378 78.4965 43.4295 74.1056 38.1805C68.7967 31.7938 63.5077 27.5227 60.8133 25.5468L70.9921 6.66611C71.4911 5.72807 71.3314 4.57048 70.553 3.83202C67.9185 1.25738 65.1243 0 62.0108 0C59.1568 0 56.5422 1.07775 54.2669 2.03576C52.4707 2.77422 50.7742 3.49272 49.3971 3.49272C48.978 3.49272 48.6187 3.43285 48.2595 3.29314C43.5094 1.55676 39.857 0.479002 36.3243 0.479002C31.8536 0.479002 28.0416 2.27526 24.3094 6.10728C23.531 6.90561 23.4112 8.16299 24.0299 9.10104L35.0071 25.6865C32.2927 27.7023 27.1035 31.9335 21.8944 38.1805C17.5235 43.4295 14.0308 49.0378 11.516 54.8258C8.36257 62.1106 6.7659 69.7148 6.7659 77.4187C6.7659 87.6574 15.1085 96 25.3472 96H70.6528C80.8915 96 89.2341 87.6574 89.2341 77.4187C89.2341 69.7148 87.6374 62.1106 84.484 54.8258ZM29.1393 8.10312C31.4545 6.10728 33.6699 5.22911 36.3243 5.22911C39.1584 5.22911 42.3518 6.18711 46.6029 7.76383C47.4811 8.08316 48.4191 8.24283 49.3771 8.24283C51.7123 8.24283 53.9476 7.32474 56.0832 6.42661C58.1389 5.5684 60.0948 4.7501 61.9909 4.7501C62.9089 4.7501 64.2062 4.90977 65.8428 6.06736L56.2628 23.8703H39.5775L29.1393 8.10312ZM70.6528 91.21H25.3472C17.743 91.21 11.5559 85.0229 11.5559 77.4187C11.5559 64.6254 16.2461 52.4906 25.4669 41.3538C31.2948 34.3085 37.2225 29.9376 39.0187 28.6603H56.9414C58.7576 29.9177 64.6653 34.3085 70.4931 41.3538C79.7339 52.4906 84.4042 64.6054 84.4042 77.4187C84.4441 85.0229 78.257 91.21 70.6528 91.21Z" fill="#00AEEF"/>
<path d="M50.8 64.5758C56.4243 64.5758 61 60.1849 61 54.7879C61 49.3908 56.4243 45 50.8 45C50.778 45 50.7562 45.0003 50.7345 45.0012H42.4024C42.4016 45.0012 42.4008 45.001 42.4001 45.001C41.406 45.001 40.6001 45.7744 40.6001 46.7283V46.7284V62.8485V68.0303H38.8C37.8059 68.0303 37 68.8037 37 69.7576C37 70.7115 37.8059 71.4848 38.8 71.4848H40.6V81.2727C40.6 82.2266 41.4059 83 42.4 83C43.3941 83 44.2 82.2266 44.2 81.2727V71.4848H50.8C51.7941 71.4848 52.6 70.7115 52.6 69.7576C52.6 68.8037 51.7941 68.0303 50.8 68.0303H44.2V64.5758H50.8ZM50.8 48.4557C50.8194 48.4557 50.8389 48.4554 50.8581 48.4548C54.4708 48.4847 57.4 51.3142 57.4 54.7879C57.4 58.2801 54.4392 61.1212 50.8 61.1212H44.2V48.4557H50.8Z" fill="#00AEEF"/>
</svg>
