<svg width="96" height="96" viewBox="0 0 96 96" fill="none" xmlns="http://www.w3.org/2000/svg">
<path d="M42.0002 60C58.5431 60 72.0002 46.5429 72.0002 30C72.0002 13.4571 58.5431 0 42.0002 0C25.4573 0 12.0002 13.4571 12.0002 30C12.0002 46.5429 25.4573 60 42.0002 60ZM42.0002 3.99994C56.3361 3.99994 68.0003 15.6639 68.0003 30C68.0003 44.3361 56.3361 56.0001 42.0002 56.0001C27.6643 56.0001 16.0001 44.3359 16.0001 30C16.0001 15.6641 27.6643 3.99994 42.0002 3.99994Z" fill="#FF9703"/>
<path d="M81.9999 75.9999C80.8944 75.9999 79.9999 76.8945 79.9999 78V89.1774L53.4141 62.586C53.0391 62.211 52.5313 62 51.9999 62C51.4687 62 50.9608 62.211 50.5858 62.586L36 77.1718L15.414 56.586C14.6327 55.8047 13.3671 55.8047 12.5859 56.586C11.8046 57.3673 11.8046 58.6329 12.5859 59.414L34.5859 81.414C35.3672 82.1953 36.6328 82.1953 37.4139 81.414L51.9999 66.828L77.1662 91.9999H66C64.8945 91.9999 63.9999 92.8944 63.9999 93.9999C63.9999 95.1054 64.8945 96 66 96H81.9999C83.1054 96 84 95.1054 84 93.9999V78C84 76.8945 83.1054 75.9999 81.9999 75.9999Z" fill="#FF9703"/>
<path d="M42.4531 38.0909V36.7102C42.4616 35.6449 42.6832 34.6776 43.1179 33.8082C43.5526 32.9389 44.2131 32.2358 45.0994 31.6989C45.9858 31.1619 47.0256 30.8935 48.2188 30.8935C49.1307 30.8935 49.9574 31.0469 50.6989 31.3537C51.4403 31.6605 52.0455 32.0824 52.5142 32.6193C52.9915 33.1477 53.3537 33.7614 53.6009 34.4602C53.8565 35.1591 53.9844 35.9091 53.9844 36.7102V38.0909C53.9929 39.1562 53.7756 40.1236 53.3324 40.9929C52.8977 41.8622 52.233 42.5653 51.3381 43.1023C50.4517 43.6392 49.4119 43.9077 48.2188 43.9077C47.3068 43.9077 46.4801 43.75 45.7386 43.4347C45.0057 43.1278 44.4006 42.7102 43.9233 42.1818C43.4545 41.6449 43.0923 41.027 42.8366 40.3281C42.581 39.6293 42.4531 38.8835 42.4531 38.0909ZM29.017 23.108V21.7273C29.0256 20.6534 29.2472 19.6818 29.6818 18.8125C30.125 17.9432 30.7855 17.2443 31.6634 16.7159C32.5497 16.179 33.5852 15.9105 34.7699 15.9105C35.6903 15.9105 36.5213 16.0639 37.2628 16.3707C38.0043 16.6776 38.6094 17.0994 39.0781 17.6364C39.5554 18.1648 39.9176 18.7784 40.1648 19.4773C40.4205 20.1761 40.5483 20.9261 40.5483 21.7273V23.108C40.5483 23.9091 40.4205 24.6591 40.1648 25.358C39.9091 26.0483 39.5426 26.6577 39.0653 27.1861C38.5881 27.7145 37.9787 28.1321 37.2372 28.4389C36.4957 28.7457 35.6733 28.8991 34.7699 28.8991C33.5682 28.8991 32.5241 28.6349 31.6378 28.1065C30.7514 27.5696 30.0952 26.8707 29.669 26.0099C29.2429 25.1406 29.0256 24.1733 29.017 23.108ZM30.2699 43L48.2699 16.8182H51.6065L33.6065 43H30.2699ZM46.1733 36.7102V38.0909C46.1818 38.5341 46.2415 38.9347 46.3523 39.2926C46.4716 39.6506 46.6889 39.9616 47.0043 40.2259C47.3196 40.4815 47.7244 40.6094 48.2188 40.6094C48.9347 40.6094 49.4503 40.3707 49.7656 39.8935C50.0895 39.4077 50.2472 38.8068 50.2386 38.0909V36.7102C50.2386 36.3693 50.2088 36.0582 50.1491 35.777C50.0895 35.4957 49.9872 35.2315 49.8423 34.9844C49.6974 34.7287 49.4844 34.5284 49.2031 34.3835C48.9304 34.2386 48.6023 34.1662 48.2188 34.1662C47.5114 34.1662 46.9957 34.4134 46.6719 34.9077C46.348 35.3935 46.1818 35.9943 46.1733 36.7102ZM32.7628 21.7273V23.108C32.7713 23.8239 32.9332 24.4247 33.2486 24.9105C33.5639 25.3878 34.071 25.6264 34.7699 25.6264C35.1449 25.6264 35.4688 25.5582 35.7415 25.4219C36.0142 25.277 36.223 25.081 36.3679 24.8338C36.5213 24.5866 36.6321 24.3224 36.7003 24.0412C36.7685 23.7514 36.8026 23.4403 36.8026 23.108V21.7273C36.8026 21.3949 36.7727 21.0881 36.7131 20.8068C36.6534 20.517 36.5469 20.2486 36.3935 20.0014C36.2486 19.7457 36.0355 19.5455 35.7543 19.4006C35.4815 19.2557 35.1534 19.1832 34.7699 19.1832C34.4034 19.1832 34.0838 19.2599 33.8111 19.4134C33.5469 19.5582 33.3423 19.7585 33.1974 20.0142C33.0526 20.2614 32.9418 20.5298 32.8651 20.8196C32.7969 21.1009 32.7628 21.4034 32.7628 21.7273Z" fill="#FF9703"/>
</svg>
