<svg width="73" height="80" viewBox="0 0 73 80" fill="none" xmlns="http://www.w3.org/2000/svg">
<path d="M72.3366 0H24.1122V65.4474H72.3366V0ZM68.892 62.0028H27.5568V3.4446H68.892V62.0028Z" fill="#00AEEF"/>
<path d="M48.2244 68.8919H44.7798V75.7811H3.4446V17.2229H20.6676V13.7783H0V79.2257H48.2244V68.8919Z" fill="#00AEEF"/>
<path d="M63.725 32.7237C63.725 28.2233 60.2425 24.56 55.8386 24.1862C57.5213 22.3468 58.5581 19.9063 58.5581 17.223C58.5581 11.5239 53.9234 6.88916 48.2243 6.88916C42.5252 6.88916 37.8905 11.5239 37.8905 17.223C37.8905 19.9063 38.9274 22.3468 40.61 24.1862C36.2061 24.56 32.7236 28.2233 32.7236 32.7237V44.7798H63.725V32.7237ZM48.2243 10.3338C52.0237 10.3338 55.1135 13.4236 55.1135 17.223C55.1135 21.0224 52.0237 24.1122 48.2243 24.1122C44.4249 24.1122 41.3351 21.0224 41.3351 17.223C41.3351 13.4236 44.4249 10.3338 48.2243 10.3338ZM60.2804 41.3352H36.1682V32.7237C36.1682 29.875 38.4864 27.5568 41.3351 27.5568H55.1135C57.9622 27.5568 60.2804 29.875 60.2804 32.7237V41.3352Z" fill="#00AEEF"/>
<path d="M36.1682 48.2244H32.7236V51.669H36.1682V48.2244Z" fill="#00AEEF"/>
<path d="M63.7251 48.2244H39.6129V51.669H63.7251V48.2244Z" fill="#00AEEF"/>
<path d="M63.7251 55.1138H60.2805V58.5584H63.7251V55.1138Z" fill="#00AEEF"/>
<path d="M56.8358 55.1138H32.7236V58.5584H56.8358V55.1138Z" fill="#00AEEF"/>
<path d="M20.6676 24.1121V20.6675H6.88916V34.4459H20.6676V31.0013H10.3338V24.1121H20.6676Z" fill="#00AEEF"/>
<path d="M20.6676 37.8906H6.88916V41.3352H20.6676V37.8906Z" fill="#00AEEF"/>
<path d="M20.6676 44.7798H6.88916V48.2244H20.6676V44.7798Z" fill="#00AEEF"/>
<path d="M10.3338 58.5581H6.88916V62.0027H10.3338V58.5581Z" fill="#00AEEF"/>
<path d="M20.6675 58.5581H13.7783V62.0027H20.6675V58.5581Z" fill="#00AEEF"/>
<path d="M20.6676 65.4473H6.88916V68.8919H20.6676V65.4473Z" fill="#00AEEF"/>
</svg>
