<svg width="96" height="96" viewBox="0 0 96 96" fill="none" xmlns="http://www.w3.org/2000/svg">
<g clip-path="url(#clip0)">
<path d="M92.244 40.0129L62.1946 9.96345L49.5422 22.6158L26.9256 0L24.7115 2.21401L49.5422 27.0446L62.1946 14.3922L90.03 42.2277H84.3362V45.3908H95.4071V34.3199H92.244V40.0129Z" fill="white"/>
<path d="M14.7481 5.85205C6.84035 5.85205 0.51416 12.1782 0.51416 20.086C0.51416 23.7232 1.9374 27.203 4.46803 29.8911C1.9374 30.9985 0.51416 32.5801 0.51416 34.3199V89.6741C0.51416 93.7855 7.63113 96.0003 14.7481 96.0003C21.8651 96.0003 28.982 93.7855 28.982 89.6741V34.3199C28.982 32.5801 27.5588 30.9985 25.0282 29.8911C30.4053 24.1974 30.247 15.183 24.5532 9.80592C21.8651 7.27529 18.3853 5.85205 14.7481 5.85205ZM14.7481 9.01515C20.916 9.01515 25.8189 13.9173 25.8189 20.086C25.8189 26.2539 20.916 31.1568 14.7481 31.1568C8.58021 31.1568 3.67726 26.2539 3.67726 20.086C3.67726 13.9173 8.58021 9.01515 14.7481 9.01515ZM14.7481 92.8372C7.63113 92.8372 3.67726 90.6224 3.67726 89.6741V85.8778C7.1562 87.4593 10.9525 88.2501 14.7481 88.0926C18.5437 88.2501 22.3392 87.4593 25.8189 85.8778V89.6741C25.8189 90.6224 21.8651 92.8372 14.7481 92.8372ZM14.7481 84.9295C7.63113 84.9295 3.67726 82.7147 3.67726 81.7664V77.9701C7.1562 79.5516 10.9525 80.3424 14.7481 80.1848C18.5437 80.3424 22.3392 79.5516 25.8189 77.9701V81.7664C25.8189 82.7147 21.8651 84.9295 14.7481 84.9295ZM14.7481 77.0217C7.63113 77.0217 3.67726 74.807 3.67726 73.8586V70.0623C7.1562 71.6439 10.9525 72.4346 14.7481 72.2771C18.5437 72.4346 22.3392 71.6439 25.8189 70.0623V73.8586C25.8189 74.807 21.8651 77.0217 14.7481 77.0217ZM14.7481 69.114C7.63113 69.114 3.67726 66.8992 3.67726 65.9509V62.1546C7.1562 63.7361 10.9525 64.5269 14.7481 64.3694C18.5437 64.5269 22.3392 63.7361 25.8189 62.1546V65.9509C25.8189 66.8992 21.8651 69.114 14.7481 69.114ZM14.7481 61.2063C7.63113 61.2063 3.67726 58.9915 3.67726 58.0432V54.2468C7.1562 55.8284 10.9525 56.6191 14.7481 56.4616C18.5437 56.6191 22.3392 55.8284 25.8189 54.2468V58.0432C25.8189 58.9915 21.8651 61.2063 14.7481 61.2063ZM14.7481 53.2985C7.63113 53.2985 3.67726 51.0837 3.67726 50.1354V46.3391C7.1562 47.9206 10.9525 48.7114 14.7481 48.5539C18.5437 48.7114 22.3392 47.9206 25.8189 46.3391V50.1354C25.8189 51.0837 21.8651 53.2985 14.7481 53.2985ZM14.7481 45.3908C7.63113 45.3908 3.67726 43.176 3.67726 42.2277V38.4313C7.1562 40.0129 10.9525 40.8037 14.7481 40.6461C18.5437 40.8037 22.3392 40.0129 25.8189 38.4313V42.2277C25.8189 43.176 21.8651 45.3908 14.7481 45.3908ZM25.8189 34.3199C25.8189 35.2682 21.8651 37.483 14.7481 37.483C7.63113 37.483 3.67726 35.2682 3.67726 34.3199C3.67726 34.0033 4.62634 32.8959 7.1562 32.1051C11.7433 34.9524 17.5946 34.9524 22.1809 32.1051C24.8699 32.8959 25.8189 34.0033 25.8189 34.3199Z" fill="white"/>
<path d="M47.9606 43.8091C40.8436 43.8091 33.7267 46.0231 33.7267 50.1353V89.674C33.7267 93.7854 40.8436 96.0002 47.9606 96.0002C55.0776 96.0002 62.1945 93.7854 62.1945 89.674V50.1353C62.1945 46.0231 55.0776 43.8091 47.9606 43.8091ZM47.9606 92.8371C40.8436 92.8371 36.8898 90.6223 36.8898 89.674V85.8777C40.3687 87.4592 44.165 88.25 47.9606 88.0924C51.7561 88.25 55.5517 87.4592 59.0314 85.8777V89.674C59.0314 90.6223 55.0776 92.8371 47.9606 92.8371ZM47.9606 84.9293C40.8436 84.9293 36.8898 82.7146 36.8898 81.7663V77.9699C40.3687 79.5515 44.165 80.3422 47.9606 80.1847C51.7561 80.3422 55.5517 79.5515 59.0314 77.9699V81.7663C59.0314 82.7146 55.0776 84.9293 47.9606 84.9293ZM47.9606 77.0216C40.8436 77.0216 36.8898 74.8068 36.8898 73.8585V70.0622C40.3687 71.6437 44.165 72.4345 47.9606 72.277C51.7561 72.4345 55.5517 71.6437 59.0314 70.0622V73.8585C59.0314 74.8068 55.0776 77.0216 47.9606 77.0216ZM47.9606 69.1139C40.8436 69.1139 36.8898 66.8991 36.8898 65.9508V62.1544C40.3687 63.736 44.165 64.5268 47.9606 64.3692C51.7561 64.5268 55.5517 63.736 59.0314 62.1544V65.9508C59.0314 66.8991 55.0776 69.1139 47.9606 69.1139ZM47.9606 61.2061C40.8436 61.2061 36.8898 58.9913 36.8898 58.043V54.2467C40.3687 55.8282 44.165 56.619 47.9606 56.4615C51.7561 56.619 55.5517 55.8282 59.0314 54.2467V58.043C59.0314 58.9913 55.0776 61.2061 47.9606 61.2061ZM47.9606 53.2984C40.8436 53.2984 36.8898 51.0836 36.8898 50.1353C36.8898 49.1862 40.8436 46.9722 47.9606 46.9722C55.0776 46.9722 59.0314 49.1862 59.0314 50.1353C59.0314 51.0836 55.0776 53.2984 47.9606 53.2984Z" fill="white"/>
<path d="M81.1732 51.717C74.0562 51.717 66.9392 53.9311 66.9392 58.0432V89.6742C66.9392 93.7856 74.0562 96.0004 81.1732 96.0004C88.2901 96.0004 95.4071 93.7856 95.4071 89.6742V58.0432C95.4071 53.9311 88.2901 51.717 81.1732 51.717ZM81.1732 92.8373C74.0562 92.8373 70.1023 90.6225 70.1023 89.6742V85.8779C73.5813 87.4594 77.3776 88.2502 81.1732 88.0926C84.9687 88.2502 88.7643 87.4594 92.244 85.8779V89.6742C92.244 90.6225 88.2901 92.8373 81.1732 92.8373ZM81.1732 84.9296C74.0562 84.9296 70.1023 82.7148 70.1023 81.7665V77.9701C73.5813 79.5517 77.3776 80.3424 81.1732 80.1849C84.9687 80.3424 88.7643 79.5517 92.244 77.9701V81.7665C92.244 82.7148 88.2901 84.9296 81.1732 84.9296ZM81.1732 77.0218C74.0562 77.0218 70.1023 74.807 70.1023 73.8587V70.0624C73.5813 71.6439 77.3776 72.4347 81.1732 72.2772C84.9687 72.4347 88.7643 71.6439 92.244 70.0624V73.8587C92.244 74.807 88.2901 77.0218 81.1732 77.0218ZM81.1732 69.1141C74.0562 69.1141 70.1023 66.8993 70.1023 65.951V62.1546C73.5813 63.7362 77.3776 64.527 81.1732 64.3694C84.9687 64.527 88.7643 63.7362 92.244 62.1546V65.951C92.244 66.8993 88.2901 69.1141 81.1732 69.1141ZM81.1732 61.2063C74.0562 61.2063 70.1023 58.9915 70.1023 58.0432C70.1023 57.0941 74.0562 54.8801 81.1732 54.8801C88.2901 54.8801 92.244 57.0941 92.244 58.0432C92.244 58.9915 88.2901 61.2063 81.1732 61.2063Z" fill="white"/>
<path d="M80.6982 41.1201L62.1946 22.6157L49.5422 35.2681L41.1595 26.8862L38.9455 29.1002L49.5422 39.6969L62.1946 27.0445L78.4842 43.3342L80.6982 41.1201Z" fill="white"/>
<path d="M31.0501 21.2281L33.2865 18.9917L37.9833 23.6885L35.7469 25.9249L31.0501 21.2281Z" fill="white"/>
</g>
<defs>
<clipPath id="clip0">
<rect width="96" height="96" fill="white"/>
</clipPath>
</defs>
</svg>
