<svg width="97" height="96" viewBox="0 0 97 96" fill="none" xmlns="http://www.w3.org/2000/svg">
<g clip-path="url(#clip0)">
<path d="M48.1064 43.7812C47.8426 43.7812 47.5848 43.8067 47.3343 43.853L34.4346 21.5599C34.0456 20.8871 33.1833 20.6569 32.5094 21.045C31.8354 21.4333 31.6044 22.2934 31.9936 22.9659L44.8944 45.2612C44.2617 45.9988 43.8783 46.9552 43.8783 47.9998C43.8783 49.833 45.0567 51.3962 46.6971 51.9767V83.3437C46.6971 84.1205 47.3279 84.75 48.1064 84.75C48.885 84.75 49.5158 84.1205 49.5158 83.3437V51.9769C51.1561 51.3964 52.3345 49.8332 52.3345 48C52.3345 45.6739 50.4377 43.7812 48.1064 43.7812ZM48.1064 49.4062C47.3292 49.4062 46.6971 48.7755 46.6971 48C46.6971 47.2245 47.3292 46.5937 48.1064 46.5937C48.8836 46.5937 49.5158 47.2245 49.5158 48C49.5158 48.7755 48.8836 49.4062 48.1064 49.4062Z" fill="white"/>
<path d="M82.1229 14.0588C73.0368 4.99294 60.9561 0 48.1064 0C35.2568 0 23.176 4.99294 14.0899 14.0588C5.00382 23.1246 0 35.1787 0 48C0 60.8213 5.00401 72.8752 14.0899 81.9412C23.1758 91.0072 35.2568 96 48.1064 96C60.9561 96 73.0368 91.0071 82.1229 81.9412C91.209 72.8754 96.2129 60.8213 96.2129 48C96.2129 35.1787 91.2088 23.1248 82.1229 14.0588ZM48.1064 93.1875C23.1347 93.1875 2.81874 72.9165 2.81874 48C2.81874 23.0835 23.1347 2.8125 48.1064 2.8125C73.0782 2.8125 93.3941 23.0835 93.3941 48C93.3941 72.9165 73.0782 93.1875 48.1064 93.1875Z" fill="white"/>
<path d="M48.1064 14.0625C48.8848 14.0625 49.5158 13.4329 49.5158 12.6562C49.5158 11.8796 48.8848 11.25 48.1064 11.25C47.3281 11.25 46.6971 11.8796 46.6971 12.6562C46.6971 13.4329 47.3281 14.0625 48.1064 14.0625Z" fill="white"/>
<path d="M30.3954 18.7969C31.1737 18.7969 31.8047 18.1673 31.8047 17.3906C31.8047 16.614 31.1737 15.9844 30.3954 15.9844C29.617 15.9844 28.986 16.614 28.986 17.3906C28.986 18.1673 29.617 18.7969 30.3954 18.7969Z" fill="white"/>
<path d="M17.4292 31.7344C18.2076 31.7344 18.8386 31.1048 18.8386 30.3281C18.8386 29.5515 18.2076 28.9219 17.4292 28.9219C16.6508 28.9219 16.0198 29.5515 16.0198 30.3281C16.0198 31.1048 16.6508 31.7344 17.4292 31.7344Z" fill="white"/>
<path d="M12.6843 49.4062C13.4627 49.4062 14.0937 48.7767 14.0937 48C14.0937 47.2233 13.4627 46.5938 12.6843 46.5938C11.9059 46.5938 11.2749 47.2233 11.2749 48C11.2749 48.7767 11.9059 49.4062 12.6843 49.4062Z" fill="white"/>
<path d="M17.4292 67.0781C18.2076 67.0781 18.8386 66.4485 18.8386 65.6719C18.8386 64.8952 18.2076 64.2656 17.4292 64.2656C16.6508 64.2656 16.0198 64.8952 16.0198 65.6719C16.0198 66.4485 16.6508 67.0781 17.4292 67.0781Z" fill="white"/>
<path d="M30.3954 80.0156C31.1737 80.0156 31.8047 79.386 31.8047 78.6094C31.8047 77.8327 31.1737 77.2031 30.3954 77.2031C29.617 77.2031 28.986 77.8327 28.986 78.6094C28.986 79.386 29.617 80.0156 30.3954 80.0156Z" fill="white"/>
<path d="M65.8175 80.0156C66.5959 80.0156 67.2269 79.386 67.2269 78.6094C67.2269 77.8327 66.5959 77.2031 65.8175 77.2031C65.0391 77.2031 64.4081 77.8327 64.4081 78.6094C64.4081 79.386 65.0391 80.0156 65.8175 80.0156Z" fill="white"/>
<path d="M78.7837 67.0781C79.562 67.0781 80.193 66.4485 80.193 65.6719C80.193 64.8952 79.562 64.2656 78.7837 64.2656C78.0053 64.2656 77.3743 64.8952 77.3743 65.6719C77.3743 66.4485 78.0053 67.0781 78.7837 67.0781Z" fill="white"/>
<path d="M83.5285 49.4062C84.3069 49.4062 84.9379 48.7767 84.9379 48C84.9379 47.2233 84.3069 46.5938 83.5285 46.5938C82.7502 46.5938 82.1192 47.2233 82.1192 48C82.1192 48.7767 82.7502 49.4062 83.5285 49.4062Z" fill="white"/>
<path d="M78.7837 31.7344C79.562 31.7344 80.193 31.1048 80.193 30.3281C80.193 29.5515 79.562 28.9219 78.7837 28.9219C78.0053 28.9219 77.3743 29.5515 77.3743 30.3281C77.3743 31.1048 78.0053 31.7344 78.7837 31.7344Z" fill="white"/>
<path d="M65.8175 18.7969C66.5959 18.7969 67.2269 18.1673 67.2269 17.3906C67.2269 16.614 66.5959 15.9844 65.8175 15.9844C65.0391 15.9844 64.4081 16.614 64.4081 17.3906C64.4081 18.1673 65.0391 18.7969 65.8175 18.7969Z" fill="white"/>
<path d="M78.1365 18.0364C70.1151 10.0328 59.4501 5.625 48.1064 5.625C37.8442 5.625 27.9365 9.32775 20.2088 16.0507C19.6222 16.5613 19.5613 17.4495 20.0726 18.0349C20.5843 18.6204 21.4746 18.681 22.0611 18.1706C29.2756 11.8943 38.5252 8.4375 48.1064 8.4375C69.9697 8.4375 87.7566 26.1851 87.7566 48C87.7566 69.8149 69.9697 87.5625 48.1064 87.5625C26.2432 87.5625 8.45621 69.8149 8.45621 48C8.45621 38.4399 11.9206 29.2108 18.2109 22.0123C18.7226 21.4269 18.6615 20.5388 18.0749 20.0282C17.4886 19.5178 16.5982 19.5784 16.0863 20.1641C9.34843 27.8747 5.63747 37.7604 5.63747 48C5.63747 59.3186 10.055 69.96 18.0764 77.9636C26.0977 85.9672 36.7627 90.375 48.1064 90.375C59.4501 90.375 70.1151 85.9672 78.1365 77.9636C86.1579 69.96 90.5754 59.3186 90.5754 48C90.5754 36.6814 86.1579 26.04 78.1365 18.0364Z" fill="white"/>
</g>
<defs>
<clipPath id="clip0">
<rect width="96.2129" height="96" fill="white"/>
</clipPath>
</defs>
</svg>
