<svg width="96" height="96" viewBox="0 0 96 96" fill="none" xmlns="http://www.w3.org/2000/svg">
<path d="M36.75 23.625C26.4113 23.625 18 32.0363 18 42.375C18 52.7137 26.4113 61.125 36.75 61.125C47.0887 61.125 55.5 52.7137 55.5 42.375C55.5 32.0363 47.0887 23.625 36.75 23.625ZM51.6287 40.5H44.2161C44.0546 36.0021 43.3091 31.5118 41.9233 28.2949C47.0888 30.1988 50.9229 34.8696 51.6287 40.5ZM36.75 57.375C36.5891 57.375 35.5592 56.7386 34.5512 53.7148C33.6975 51.1539 33.1727 47.8446 33.0366 44.25L40.4632 44.2481C40.3273 47.8427 39.8023 51.1539 38.9486 53.7148C37.9408 56.7386 36.9109 57.375 36.75 57.375ZM33.0366 40.5C33.1725 36.9054 33.6975 33.5961 34.5512 31.0352C35.5592 28.0112 36.5891 27.375 36.75 27.375C36.9109 27.375 37.9408 28.0114 38.9488 31.0352C39.8025 33.5961 40.3273 36.9054 40.4634 40.5H33.0366ZM31.5769 28.2949C30.1911 31.5116 29.4456 36.0021 29.2841 40.5H21.8715C22.5771 34.8696 26.4113 30.1988 31.5769 28.2949ZM21.8713 44.25H29.2839C29.4454 48.7479 30.1909 53.2382 31.5767 56.4551C26.4112 54.5511 22.5771 49.8802 21.8713 44.25ZM41.9231 56.4549C43.3089 53.2382 44.0544 48.7459 44.2159 44.2479L51.6285 44.2498C50.9229 49.8802 47.0887 54.5511 41.9231 56.4549Z" fill="#00AEEF"/>
<path d="M77.4508 57.924L72.8104 53.2836L75.4615 50.6325C76.3978 49.6959 76.0931 48.1056 74.8742 47.5832L60.9542 41.6169C60.2496 41.3151 59.4321 41.4724 58.8896 42.0144C58.3476 42.5567 58.1901 43.3742 58.4921 44.079L64.4584 57.999C64.9828 59.2226 66.5738 59.5202 67.5077 58.5862L70.1588 55.9352L74.7992 60.5756C75.5314 61.3078 76.7186 61.3078 77.451 60.5756C78.183 59.8436 78.183 58.6564 77.4508 57.924ZM66.8143 53.9766L63.7858 46.9106L70.8518 49.9391L68.8339 51.957C68.8335 51.9574 68.8333 51.9576 68.833 51.9579C68.8326 51.9583 68.8324 51.9585 68.832 51.9589L66.8143 53.9766Z" fill="#00AEEF"/>
<path d="M48 83.625C49.0355 83.625 49.875 82.7855 49.875 81.75C49.875 80.7145 49.0355 79.875 48 79.875C46.9645 79.875 46.125 80.7145 46.125 81.75C46.125 82.7855 46.9645 83.625 48 83.625Z" fill="#00AEEF"/>
<path d="M94.125 68.625H90.375V14.25C90.375 13.2144 89.5356 12.375 88.5 12.375H7.5C6.46444 12.375 5.625 13.2144 5.625 14.25V68.625H1.875C0.839438 68.625 0 69.4644 0 70.5C0 77.7371 5.88788 83.625 13.125 83.625H39.5625C40.5981 83.625 41.4375 82.7856 41.4375 81.75C41.4375 80.7144 40.5981 79.875 39.5625 79.875H13.125C8.59762 79.875 4.80956 76.6489 3.93825 72.3731H92.0616C91.1904 76.6489 87.4024 79.875 82.875 79.875H56.4375C55.4019 79.875 54.5625 80.7144 54.5625 81.75C54.5625 82.7856 55.4019 83.625 56.4375 83.625H82.875C90.1121 83.625 96 77.7371 96 70.5C96 69.4644 95.1606 68.625 94.125 68.625ZM9.375 16.125H86.625V68.625H9.375V16.125Z" fill="#00AEEF"/>
</svg>
